<svg width="24" height="24" viewBox="0 0 24 24" fill="none" xmlns="http://www.w3.org/2000/svg">
    <path
        d="M22.432 11.2203C22.2976 11.086 22.1138 11.0011 21.9016 11.0011L2.10266 11.0011C1.69253 11.0011 1.35312 11.3405 1.35312 11.7507C1.35312 12.1608 1.69253 12.5002 2.10266 12.5002L21.9016 12.5002C22.3118 12.5002 22.6512 12.1608 22.6512 11.7507C22.6512 11.5385 22.5663 11.3547 22.432 11.2203Z"
        fill="currentColor" />
    <path
        d="M9.89546 3.95872C9.60554 3.66881 9.12471 3.66881 8.8348 3.95872L1.57281 11.2207C1.2829 11.5106 1.2829 11.9915 1.57281 12.2814L8.8348 19.5434C9.12471 19.8333 9.60554 19.8333 9.89546 19.5434C10.1854 19.2534 10.1854 18.7726 9.89546 18.4827L3.1638 11.751L9.89546 5.01938C10.1854 4.72947 10.1854 4.24863 9.89546 3.95872Z"
        fill="currentColor" />
</svg>