<svg viewBox="0 0 168 192" fill="none" xmlns="http://www.w3.org/2000/svg">
<path d="M156.792 71.2532L34.0293 1.22981C32.489 0.354634 31.1037 0.400215 30.1103 1.17511L24.0952 4.77611L28.5519 11.1212V106.324C28.5519 110.317 31.0035 114.948 34.0384 116.68L148.663 182.073L154.569 190.469L160.247 187.059C161.486 186.439 162.279 184.871 162.279 182.611V81.6095C162.27 77.6165 159.818 72.9762 156.792 71.2532Z" fill="#41A3A9"/>
<path d="M127.747 66.2024L25.7266 9.09696L24.0952 5.35922L28.6248 2.64252C29.6182 1.86762 31.0126 1.82204 32.5437 2.69722L155.298 72.7206C156.984 73.6778 158.488 75.5376 159.49 77.6891L159.645 78.309L152.372 82.6758L127.747 66.2024Z" fill="#A2D0D2"/>
<path d="M160.457 82.0014L153.858 85.9306L154.432 88.4011L160.457 84.6908V82.0014Z" fill="#A2D0D2"/>
<path d="M29.7551 0.709948C30.9764 -0.238162 32.6442 -0.238164 34.3211 0.719063L157.075 70.7425C160.265 72.5566 162.853 77.4339 162.853 81.6002V182.592C162.853 185.008 161.997 186.813 160.538 187.542L154.396 191.225L148.262 182.492L33.747 117.163C30.5571 115.349 27.9688 110.472 27.9688 106.306V11.3033L23.257 4.60267L29.7551 0.709948ZM29.1354 10.9295V106.315C29.1354 110.116 31.4685 114.529 34.3302 116.161L148.955 181.553L154.733 189.685L155.954 188.955L156.182 187.141L160.666 184.37C161.277 183.996 161.696 183.331 161.696 182.61V182.601V81.6093C161.696 77.8077 159.363 73.3954 156.501 71.7635L33.747 1.73099C32.4802 1.01079 31.3136 0.974324 30.4113 1.66717L24.9339 4.94909L29.1354 10.9295Z" fill="#111112"/>
<path d="M63.8237 157.284L88.7136 143.154C91.1287 141.777 95.1753 141.932 97.9368 143.509L113.075 152.152L120.275 155.37V158.661H120.229C120.065 159.518 119.464 160.265 118.488 160.821L87.8204 178.252C86.7176 178.881 85.2777 179.191 83.7739 179.191C81.9784 179.191 80.101 178.753 78.6063 177.897L58.6744 166.528C57.2253 165.699 56.3686 164.605 56.2775 163.356C56.2775 163.256 56.2684 163.146 56.2775 163.091V160.42L63.8237 157.284Z" fill="#111112"/>
<path d="M118.195 157.786L87.5269 175.217C85.3123 176.484 81.4389 176.32 78.8871 174.861L58.9551 163.493C56.3941 162.035 56.1207 159.828 58.3354 158.561L89.0034 141.131C91.2181 139.863 95.0914 140.027 97.6433 141.486L117.575 152.854C120.127 154.313 120.41 156.528 118.195 157.786Z" fill="#41A3A9"/>
<path d="M61.6904 161.113L70.0204 156.181C72.7454 154.568 76.1175 154.54 78.8699 156.108L99.7497 168.051L87.1361 175.226C84.9215 176.493 81.0481 176.329 78.4962 174.87L62.3192 166.055C59.7582 164.587 59.4757 162.381 61.6904 161.113Z" fill="#A2D0D2"/>
<path d="M83.7632 176.657C85.267 176.657 86.7161 176.347 87.8189 175.718L118.487 158.288C119.644 157.631 120.273 156.692 120.273 155.644C120.273 154.422 119.398 153.219 117.867 152.344L97.9352 140.975C95.1737 139.407 91.1272 139.243 88.712 140.62L58.044 158.051C56.8866 158.707 56.2577 159.646 56.2577 160.694C56.2577 161.916 57.1326 163.11 58.6638 163.985L78.5957 175.372C80.0903 176.22 81.9678 176.657 83.7632 176.657ZM117.904 157.285L87.2356 174.715C85.185 175.891 81.5668 175.727 79.1699 174.36L59.2379 162.992C58.0805 162.335 57.4152 161.497 57.4152 160.713C57.4152 159.928 58.0713 159.391 58.6182 159.081L89.2862 141.65C91.3459 140.483 94.955 140.638 97.3519 142.006L117.284 153.374C118.441 154.039 119.107 154.869 119.107 155.653C119.107 156.428 118.45 156.966 117.904 157.285Z" fill="#111112"/>
<path d="M24.0866 4.07356C25.2714 3.38983 26.757 3.481 28.279 4.34706L151.033 74.3705C154.223 76.1846 156.811 81.0619 156.811 85.2281V186.22C156.811 188.481 155.9 189.484 155.134 189.931C154.633 190.222 154.05 190.359 153.394 190.359C152.355 190.359 151.152 189.994 149.903 189.283L27.7048 120.791C24.515 118.977 21.9266 114.1 21.9266 109.934V8.95086C21.9266 6.65352 22.7104 4.87581 24.0866 4.07356Z" fill="#111112"/>
<path d="M22.5006 98.201V110.444C22.5006 114.155 25.1436 118.677 28.3973 120.527L150.331 190.086C153.585 191.945 156.228 190.441 156.228 186.722V174.478L22.5006 98.201Z" fill="#41A3A9"/>
<path d="M152.974 191.471C153.64 191.471 154.268 191.316 154.815 190.988C156.1 190.241 156.811 188.727 156.811 186.722V174.141L156.52 173.977L21.9266 97.1981V110.444C21.9266 114.337 24.7063 119.087 28.1149 121.038L150.049 190.596C151.069 191.18 152.063 191.471 152.974 191.471ZM155.645 174.825V186.731C155.645 188.299 155.143 189.457 154.223 189.985C153.293 190.523 152.017 190.386 150.614 189.584L28.68 120.026C25.5904 118.266 23.075 113.963 23.075 110.444V99.2037L155.645 174.825Z" fill="#111112"/>
<path d="M148.252 162.308L30.4836 95.1291C29.4173 94.5183 28.5515 92.8864 28.5515 91.4734V14.3391C28.5515 12.9352 29.4173 12.2879 30.4836 12.8987L148.252 80.0778C149.319 80.6886 150.185 82.3205 150.185 83.7335V160.877C150.185 162.272 149.319 162.919 148.252 162.308Z" fill="#41A3A9"/>
<path d="M149.019 163.119C149.301 163.119 149.566 163.047 149.812 162.91C150.413 162.554 150.759 161.816 150.759 160.868V83.7244C150.759 82.1107 149.784 80.2783 148.536 79.5672L30.776 12.3882C30.1198 12.0144 29.4636 11.9779 28.9259 12.297C28.3244 12.6525 27.978 13.391 27.978 14.3391V91.4824C27.978 93.1052 28.9532 94.9285 30.2018 95.6395L147.971 162.819C148.326 163.019 148.681 163.119 149.019 163.119ZM29.7188 13.2451C29.8919 13.2451 30.0833 13.3363 30.1927 13.4001L147.961 80.5792C148.855 81.0897 149.602 82.5301 149.602 83.7244V160.868C149.602 161.378 149.456 161.77 149.228 161.907C149 162.035 148.7 161.898 148.536 161.807L30.7669 94.6276C29.8737 94.1171 29.1264 92.6767 29.1264 91.4824V14.3391C29.1264 13.8286 29.2722 13.4366 29.5 13.2998C29.573 13.2633 29.6459 13.2451 29.7188 13.2451Z" fill="#111112"/>
<path d="M164.276 165.325V148.232L140.097 134.22V151.313C140.097 151.313 140.443 159.901 136.807 161.934C133.171 163.967 133.171 163.967 133.171 163.967L157.35 177.979C157.35 177.979 157.35 177.979 160.986 175.946C164.622 173.922 164.276 165.325 164.276 165.325Z" fill="#41A3A9"/>
<path d="M167.329 170.586V153.493L143.15 139.481V156.565C143.15 156.565 143.496 165.152 139.86 167.185C136.224 169.218 136.224 169.218 136.224 169.218L160.402 183.23C160.402 183.23 160.402 183.23 164.039 181.197C167.675 179.174 167.329 170.586 167.329 170.586Z" fill="#A2D0D2"/>
<path d="M157.34 178.727L131.866 163.958L136.487 161.369C139.194 159.856 139.54 153.611 139.449 151.332V133.099L164.913 147.858V165.307C164.931 165.827 165.187 174.323 161.295 176.502L157.34 178.727ZM134.464 163.985L157.358 177.25L160.675 175.39C163.373 173.877 163.728 167.632 163.637 165.353V148.606L140.743 135.332V151.304C140.762 151.642 141.062 160.293 137.125 162.49L134.464 163.985Z" fill="#111112"/>
<path d="M152.866 159.354L154.497 152.79C153.978 152.334 153.431 151.933 152.866 151.605C149.166 149.463 146.158 151.204 146.158 155.48C146.158 159.755 149.166 164.961 152.866 167.103C156.566 169.245 159.574 167.504 159.574 163.229C159.574 162.645 159.51 162.043 159.409 161.433L152.866 159.354Z" fill="#41A3A9"/>
<path d="M154.815 158.534L161.359 160.613C160.803 157.44 158.898 154.085 156.446 151.97L154.815 158.534Z" fill="#41A3A9"/>
<path d="M160.839 159.081L152.874 156.547L154.87 148.542L155.581 149.162C158.151 151.387 160.101 154.833 160.684 158.142L160.839 159.081ZM154.25 155.772L159.317 157.385C158.689 154.969 157.276 152.49 155.508 150.694L154.25 155.772Z" fill="#111112"/>
<path d="M154.177 166.666C153.157 166.666 152.036 166.328 150.887 165.672C147.032 163.448 143.888 158.005 143.888 153.547C143.888 151.259 144.69 149.545 146.139 148.697C147.588 147.859 149.484 148.023 151.462 149.171C152.027 149.5 152.61 149.919 153.184 150.42L153.448 150.657L151.863 157.039L158.215 159.063L158.279 159.409C158.397 160.075 158.452 160.713 158.452 161.305C158.452 163.594 157.65 165.307 156.201 166.155C155.599 166.493 154.916 166.666 154.177 166.666ZM148.19 149.335C147.652 149.335 147.16 149.454 146.731 149.709C145.647 150.329 145.055 151.697 145.055 153.547C145.055 157.631 147.934 162.618 151.471 164.669C153.075 165.599 154.551 165.763 155.636 165.143C156.711 164.523 157.313 163.156 157.313 161.305C157.313 160.886 157.276 160.43 157.212 159.956L150.495 157.814L152.172 151.077C151.744 150.721 151.316 150.42 150.896 150.183C149.921 149.618 149.001 149.335 148.19 149.335Z" fill="#111112"/>
<mask id="mask0_306_2935" style="mask-type:alpha" maskUnits="userSpaceOnUse" x="28" y="12" width="123" height="151">
<path d="M148.252 162.308L30.4836 95.1291C29.4173 94.5183 28.5515 92.8864 28.5515 91.4734V14.3391C28.5515 12.9352 29.4173 12.2879 30.4836 12.8987L148.252 80.0778C149.319 80.6886 150.185 82.3205 150.185 83.7335V160.877C150.185 162.272 149.319 162.919 148.252 162.308Z" fill="#41A3A9"/>
</mask>
<g mask="url(#mask0_306_2935)">
<path d="M47.9847 72.1094L53.9725 62.0358L58.1557 72.465L67.1511 42.1163L74.0138 71.6718L78.2882 70.5596L93.2622 111.009L68.108 111.438L44.9954 78.6277L47.9847 72.1094Z" fill="#41A3A9"/>
<path d="M67.8799 111.893L67.7432 111.702L44.4756 78.6821L47.6016 71.8813L54.0542 61.0327L58.0916 71.1155L67.2055 40.3748L74.3507 71.1337L78.5704 70.0397L93.8999 111.456L67.8799 111.893ZM45.5055 78.5819L68.3356 110.982L92.6148 110.562L78.0053 71.0881L73.6763 72.2095L67.087 43.8573L58.201 73.8231L53.8811 63.0383L48.3672 72.3097L45.5055 78.5819Z" fill="#111112"/>
<path d="M8.88794 82.2651L17.6919 64.3513L23.2057 71.0154L39.2461 45.1429L58.1573 87.7167L61.3015 82.3289L74.0153 107.8L92.2429 90.087L100.691 115.759L105.722 115.185L113.542 142.707L8.88794 82.2651Z" fill="#41A3A9"/>
<path d="M13.9634 84.6539L22.7673 67.433L28.2812 74.0971L44.3215 48.2246L63.2327 90.7984L66.377 85.4106L79.0999 110.882L97.3275 93.1687L105.767 118.85L110.798 118.266L118.517 144.759L13.9634 84.6539Z" fill="#A2D0D2"/>
<path d="M114.27 143.646L8.29443 82.4476L17.5905 63.531L23.15 70.2498L39.3088 44.1859L58.2017 86.7324L61.3278 81.381L74.1418 107.044L92.4424 89.2667L100.991 115.276L106.04 114.702L106.14 115.066L114.27 143.646ZM9.47012 82.0921L112.812 141.768L105.393 115.677L100.38 116.251L92.0505 90.9077L73.8957 108.548L61.2731 83.2681L58.1015 88.6924L39.1812 46.0912L23.2502 71.7814L17.7819 65.172L9.47012 82.0921Z" fill="#111112"/>
<path d="M8.88684 82.2652L18.2285 73.9692L24.034 82.092L34.3964 48.0238L43.9204 88.1818L52.3597 87.8536L58.1562 99.7961L76.2562 82.5204L84.5316 104.117L90.9841 99.477L100.144 126.671L113.541 142.707L8.88684 82.2652Z" fill="#41A3A9"/>
<path d="M115.5 144.357L8.12134 82.3471L18.3015 73.3035L23.87 81.0981L34.4512 46.3098L44.2667 87.7258L52.6332 87.4067L58.2838 99.0666L76.4294 81.7454L84.7412 103.424L91.2211 98.7658L100.554 126.462L115.5 144.357ZM9.64333 82.1921L111.581 141.057L99.7243 126.817L90.7563 100.197L84.322 104.819L76.0831 83.3134L58.0195 100.553L52.0864 88.3183L43.565 88.6465L34.3418 49.7375L24.1981 83.0946L18.1465 74.6345L9.64333 82.1921Z" fill="#111112"/>
</g>
<path d="M32.6822 115.834L7.48253 101.275C6.98127 100.983 6.52558 100.956 6.17014 101.138C6.12457 101.166 6.079 101.193 6.03343 101.22L2.38791 103.417C2.24208 103.509 2.19652 103.691 2.27854 103.837L4.24713 107.401V121.194C4.24713 122.735 5.18584 124.522 6.33418 125.187L26.1932 136.656L30.0939 141.588L34.0129 139.218C34.4777 138.981 34.7784 138.37 34.7784 137.504V119.818C34.7693 118.286 33.8306 116.499 32.6822 115.834Z" fill="#41A3A9"/>
<path d="M32.5363 117.356L7.33653 102.797C6.83527 102.505 6.37958 102.478 6.02414 102.66C5.97857 102.688 5.93301 102.715 5.88744 102.743L2.24191 104.94C2.09609 105.031 2.05052 105.213 2.13255 105.359L4.10114 108.923V122.717C4.10114 124.257 5.03984 126.044 6.18818 126.71L26.0472 138.178L28.1252 139.919L32.3175 139.099C32.7823 138.862 34.6324 139.892 34.6324 139.026V121.34C34.6233 119.809 33.6937 118.022 32.5363 117.356Z" fill="#A2D0D2"/>
<path d="M29.975 142.18L25.892 137.011L6.10591 125.589C4.81174 124.841 3.79102 122.917 3.79102 121.213V107.538L1.87711 104.074C1.6766 103.718 1.79506 103.271 2.14139 103.053L5.79604 100.846C5.8325 100.819 5.8963 100.783 5.96921 100.746C6.47958 100.491 7.09932 100.537 7.70995 100.892L32.9097 115.451C34.2038 116.199 35.2246 118.122 35.2246 119.827V137.513C35.2246 138.525 34.86 139.291 34.2129 139.628L29.975 142.18ZM2.71556 103.745L4.68415 107.292V121.203C4.68415 122.571 5.54087 124.221 6.5525 124.804L26.5391 136.382L30.1938 141.004L33.7755 138.835C34.1309 138.652 34.3314 138.16 34.3314 137.504V119.818C34.3314 118.45 33.4747 116.8 32.4631 116.217L7.26338 101.658C7.01731 101.521 6.67097 101.384 6.37022 101.53C6.34287 101.548 6.31554 101.567 6.2882 101.585L2.71556 103.745Z" fill="#111112"/>
<path d="M28.6996 141.488L3.49991 126.929C2.34246 126.263 1.41284 124.476 1.41284 122.936V105.259C1.41284 103.718 2.35157 103.016 3.49991 103.682L28.6996 118.241C29.8571 118.906 30.7867 120.693 30.7867 122.234V139.92C30.7867 141.451 29.8571 142.162 28.6996 141.488Z" fill="#41A3A9"/>
<path d="M29.5284 142.19C29.1912 142.19 28.8357 142.09 28.4712 141.88L3.27146 127.321C1.9773 126.573 0.956543 124.65 0.956543 122.945V105.259C0.956543 104.284 1.30288 103.527 1.90439 103.181C2.42388 102.88 3.07095 102.916 3.71803 103.29L28.9177 117.849C30.2119 118.597 31.2327 120.52 31.2327 122.225V139.911C31.2327 140.886 30.8863 141.643 30.2848 141.989C30.057 142.126 29.8018 142.19 29.5284 142.19ZM28.9269 141.105C29.182 141.251 29.5466 141.388 29.8474 141.214C30.1572 141.032 30.3486 140.549 30.3486 139.911V122.225C30.3486 120.857 29.4919 119.207 28.4803 118.624L3.28056 104.065C3.02537 103.919 2.66084 103.782 2.36008 103.956C2.05021 104.138 1.8588 104.621 1.8588 105.259V122.945C1.8588 124.313 2.71552 125.963 3.72715 126.546L28.9269 141.105Z" fill="#111112"/>
<path d="M17.4533 132.846L15.4483 131.688C14.947 131.397 14.546 130.631 14.546 129.965V116.61C14.546 115.944 14.947 115.643 15.4483 115.926L17.4533 117.084C17.9546 117.375 18.3556 118.141 18.3556 118.807V132.162C18.3556 132.828 17.9546 133.129 17.4533 132.846Z" fill="#A2D0D2"/>
<path d="M16.779 131.269C16.5876 131.269 16.3871 131.214 16.1957 131.095L14.1907 129.938C13.5527 129.564 13.0605 128.661 13.0605 127.823V114.467C13.0605 113.956 13.2519 113.546 13.5983 113.346C13.899 113.172 14.2818 113.191 14.6372 113.391L16.6423 114.549C17.2802 114.923 17.7724 115.825 17.7724 116.664V130.02C17.7724 130.53 17.581 130.94 17.2347 131.141C17.098 131.232 16.9431 131.269 16.779 131.269ZM14.0631 114.139C14.054 114.139 14.054 114.139 14.0631 114.139C14.0357 114.148 13.9628 114.239 13.9628 114.485V127.841C13.9628 128.342 14.2818 128.971 14.6372 129.181L16.6423 130.339C16.7243 130.393 16.779 130.393 16.7881 130.384C16.8063 130.375 16.8792 130.284 16.8792 130.038V116.682C16.8792 116.181 16.5603 115.552 16.1957 115.342L14.1998 114.184C14.1269 114.148 14.0813 114.139 14.0631 114.139Z" fill="#111112"/>
<path d="M23.1131 136.11L20.78 134.761C20.3698 134.524 20.0417 133.895 20.0417 133.357V124.687C20.0417 124.14 20.3698 123.894 20.78 124.131L23.1131 125.48C23.5232 125.717 23.8513 126.346 23.8513 126.884V135.554C23.8422 136.092 23.5141 136.347 23.1131 136.11Z" fill="#A2D0D2"/>
<path d="M22.3751 134.523C22.202 134.523 22.0288 134.478 21.8556 134.377L19.5225 133.028C18.9757 132.709 18.5656 131.943 18.5656 131.232V122.563C18.5656 122.116 18.7387 121.751 19.0395 121.578C19.3129 121.423 19.6501 121.432 19.9691 121.614L22.3022 122.964C22.8491 123.283 23.2592 124.049 23.2592 124.76V133.429C23.2592 133.876 23.086 134.241 22.7853 134.414C22.6577 134.487 22.5118 134.523 22.3751 134.523ZM22.3022 133.593C22.3296 133.612 22.3478 133.612 22.3569 133.621C22.3478 133.603 22.366 133.539 22.366 133.429V124.76C22.366 124.349 22.0926 123.875 21.8556 123.739L19.5225 122.389C19.486 122.353 19.4587 122.426 19.4587 122.563V131.232C19.4587 131.643 19.7321 132.117 19.9691 132.253L22.3022 133.593Z" fill="#111112"/>
<path d="M12.4132 129.892L9.87956 128.433C9.52412 128.233 9.24158 127.686 9.24158 127.221V123.857C9.24158 123.392 9.52412 123.173 9.87956 123.374L12.4132 124.832C12.7686 125.033 13.0511 125.58 13.0511 126.045V129.409C13.0511 129.883 12.7686 130.093 12.4132 129.892Z" fill="#A2D0D2"/>
<path d="M11.6383 128.287C11.4834 128.287 11.3193 128.242 11.1644 128.151L8.63075 126.692C8.1386 126.41 7.77405 125.717 7.77405 125.088V121.724C7.77405 121.313 7.93809 120.985 8.22062 120.821C8.4758 120.675 8.78568 120.684 9.08644 120.858L11.6201 122.316C12.1122 122.599 12.4768 123.292 12.4768 123.921V127.285C12.4768 127.695 12.3127 128.023 12.0302 128.187C11.9026 128.26 11.775 128.287 11.6383 128.287ZM8.66718 121.651C8.66718 121.669 8.66718 121.696 8.66718 121.724V125.088C8.66718 125.425 8.88593 125.808 9.07732 125.917L11.5745 127.358C11.5745 127.339 11.5745 127.312 11.5745 127.285V123.921C11.5745 123.583 11.3558 123.201 11.1644 123.091L8.66718 121.651Z" fill="#111112"/>
<path d="M30.3386 120.256L34.3214 117.849L34.768 119.827L34.7133 138.124L34.0024 139.218L30.4844 141.187L30.7852 123.501L30.3386 120.256Z" fill="#111112"/>
<path d="M122.362 96.7516L118.179 74.1975C115.226 73.3132 112.483 73.4226 110.232 74.5075V74.4984L110.022 74.6077C109.922 74.6624 109.812 74.7171 109.712 74.7718L105.939 76.7683L106.367 78.1814C106.076 78.6737 105.811 79.2024 105.584 79.7859C102.111 88.483 106.805 103.133 116.083 112.496C120.785 117.245 125.762 119.725 129.972 119.88L130.829 120.956L134.256 119.114C134.657 118.932 135.049 118.722 135.422 118.485L135.431 118.476C137.008 117.446 138.293 115.86 139.15 113.708C139.624 112.523 139.943 111.219 140.116 109.834L122.362 96.7516Z" fill="#41A3A9"/>
<path d="M122.344 97.7819L118.16 75.2278C115.208 74.3435 112.464 74.4529 110.213 75.5378V75.5287L110.004 75.6381C109.903 75.6928 109.794 75.7474 109.694 75.8021L105.921 77.7986L106.349 79.2117C106.057 79.704 105.793 80.2327 105.565 80.8162C102.093 89.5133 106.786 104.163 116.064 113.526C120.767 118.276 125.743 120.755 129.954 120.91L129.735 119.087L128.012 116.771C128.413 116.589 130.902 117.647 131.275 117.41L128.559 116.024L129.197 116.133C130.774 115.103 128.341 116.662 129.197 114.511C129.671 113.325 129.279 113.271 129.452 111.885L122.344 97.7819Z" fill="#A2D0D2"/>
<path d="M130.701 121.53L129.735 120.327C125.269 120.09 120.311 117.428 115.754 112.824C106.385 103.361 101.637 88.4647 105.164 79.6309C105.365 79.1295 105.602 78.6372 105.884 78.1358L105.401 76.5586L109.502 74.3889C109.575 74.3433 109.666 74.2977 109.757 74.2522L110.423 73.8966L110.441 73.924C112.71 72.9576 115.417 72.912 118.306 73.769L118.571 73.851L122.772 96.4963L140.599 109.633L140.562 109.897C140.371 111.356 140.034 112.696 139.56 113.881C138.703 116.042 137.418 117.692 135.75 118.804L135.659 118.868C135.285 119.114 134.866 119.333 134.429 119.524L130.701 121.53ZM106.467 77.0053L106.85 78.2452L106.75 78.4184C106.449 78.938 106.194 79.4485 105.993 79.9682C102.585 88.5012 107.251 102.96 116.392 112.195C120.858 116.707 125.688 119.287 129.981 119.442L130.182 119.451L130.938 120.39L134.037 118.722C134.447 118.54 134.811 118.339 135.139 118.13L135.185 118.102C136.734 117.09 137.928 115.559 138.73 113.544C139.15 112.496 139.45 111.32 139.642 110.043L121.961 97.0159L117.787 74.553C115.044 73.7872 112.51 73.9057 110.423 74.9085L110.222 75.0088C110.086 75.0818 110.004 75.1182 109.931 75.1638L106.467 77.0053Z" fill="#111112"/>
<path d="M118.251 98.9397L114.068 76.3857C108.481 74.7174 103.642 76.5406 101.473 81.974C98.0004 90.6711 102.694 105.321 111.972 114.684C121.241 124.046 131.576 124.584 135.048 115.887C135.522 114.702 135.841 113.398 136.014 112.013L118.251 98.9397Z" fill="#41A3A9"/>
<path d="M126.289 122.524C121.733 122.524 116.419 119.825 111.644 115.003C102.275 105.54 97.5262 90.6436 101.053 81.8098C103.241 76.3399 108.153 74.1519 114.195 75.957L114.46 76.0391L118.661 98.6843L136.488 111.821L136.451 112.085C136.26 113.544 135.923 114.875 135.449 116.069C134.073 119.506 131.63 121.676 128.386 122.332C127.711 122.46 127.009 122.524 126.289 122.524ZM110.258 76.2396C106.43 76.2396 103.414 78.309 101.883 82.1471C98.474 90.6801 103.14 105.139 112.281 114.383C117.604 119.752 123.555 122.396 128.212 121.457C131.147 120.865 133.362 118.886 134.619 115.741C135.039 114.693 135.339 113.517 135.522 112.24L117.841 99.213L113.676 76.7593C112.482 76.4037 111.334 76.2396 110.258 76.2396Z" fill="#111112"/>
<path d="M114.067 76.3858L118.169 74.2069L122.361 96.7519L118.251 98.9398L114.067 76.3858Z" fill="#111112"/>
<path d="M136.004 112.022L140.114 109.834L122.361 96.752L118.25 98.94L136.004 112.022Z" fill="#41A3A9"/>
<path d="M136.004 112.022L137.981 110.992L121.622 98.9311L119.225 100.207L136.004 112.022Z" fill="#A2D0D2"/>
<path d="M141.263 109.552L122.771 96.4969L118.506 73.5235L113.566 76.149L117.749 98.7031L117.84 99.1954L118.205 99.4689L135.959 112.551L141.263 109.552ZM114.559 76.6322L117.84 74.8909L121.851 96.5151L118.57 98.2564L114.559 76.6322ZM122.315 97.2809L139.267 109.78L136.032 111.493L119.08 98.9948L122.315 97.2809Z" fill="#111112"/>
<path d="M143.386 102.996C142.985 98.4471 141.418 93.4513 138.911 88.7745C137.043 85.2829 134.655 81.9554 131.848 79.1202C128.367 75.6013 124.73 73.3313 121.376 72.3285L117.266 74.5164L121.376 83.6146L124.275 87.9176L125.541 94.7367C125.551 94.8096 125.633 94.8461 125.696 94.8187L125.733 94.8005C125.669 94.8278 125.669 94.9099 125.733 94.9372H125.724C125.706 94.9281 125.687 94.9555 125.706 94.9646L132.277 99.8145L139.212 110.143L143.323 107.956C143.523 106.397 143.541 104.728 143.386 102.996Z" fill="#41A3A9"/>
<path d="M143.45 104.802C143.049 100.253 141.482 95.2568 138.976 90.5801C137.107 87.0885 134.719 83.761 131.912 80.9258C128.431 77.4068 124.794 75.1368 121.441 74.134L117.33 76.3128L121.441 85.411L124.339 89.714L125.606 96.5331C125.615 96.606 125.697 96.6425 125.76 96.6152L125.797 96.5969C125.733 96.6243 125.733 96.7063 125.797 96.7337H125.788C125.77 96.7246 125.751 96.7519 125.77 96.761L132.341 101.611L139.285 109.77L143.332 107.947C143.523 106.397 143.605 106.534 143.45 104.802Z" fill="#A2D0D2"/>
<path d="M139.067 110.727L131.949 100.134L125.113 95.0923L125.168 94.992C125.141 94.9373 125.113 94.8826 125.104 94.8188L123.856 88.0909L121.012 83.8608L116.692 74.3068L121.331 71.8362L121.504 71.8909C125.059 72.9576 128.75 75.3461 132.167 78.8012C134.938 81.6 137.335 84.8819 139.304 88.5558C141.819 93.2599 143.432 98.3742 143.824 102.951C143.979 104.737 143.952 106.433 143.751 108.01L143.724 108.238L139.067 110.727ZM127.2 95.5208L132.641 99.5594L139.358 109.551L142.904 107.664C143.068 106.214 143.086 104.665 142.94 103.033C142.548 98.5748 140.98 93.579 138.52 88.9752C136.615 85.4289 134.209 82.1196 131.529 79.4211C128.267 76.1301 124.776 73.8419 121.422 72.7935L117.85 74.6897L121.787 83.405L124.712 87.8174L125.961 94.5453L127.829 95.5663L127.2 95.5208ZM125.77 94.8097L125.788 94.8188L125.952 94.6091L125.97 94.6182C125.961 94.6 125.952 94.5727 125.943 94.5544C125.943 94.5544 125.943 94.5544 125.934 94.5544H125.943C125.906 94.4997 125.861 94.4541 125.806 94.4177C125.733 94.3812 125.633 94.3721 125.56 94.3903L125.906 94.5362L125.77 94.8097Z" fill="#111112"/>
<path d="M121.577 96.9979L134.801 90.9537C132.933 87.4621 130.545 84.1346 127.738 81.2994C124.256 77.7804 120.62 75.5104 117.266 74.5076L121.431 96.925C121.44 96.9888 121.513 97.0253 121.577 96.9979Z" fill="#41A3A9"/>
<path d="M121.532 97.4534C121.44 97.4534 121.358 97.4352 121.276 97.3896C121.121 97.3076 121.021 97.1617 120.985 96.9976L116.692 73.8692L117.394 74.0788C120.948 75.1455 124.639 77.534 128.057 80.9891C130.828 83.7879 133.234 87.0698 135.193 90.7437L135.421 91.1631L121.759 97.4078C121.696 97.4352 121.614 97.4534 121.532 97.4534ZM117.84 75.1637L121.787 96.4141L134.182 90.7528C132.322 87.3615 129.989 84.2163 127.419 81.6181C124.339 78.4912 121.039 76.2759 117.84 75.1637Z" fill="#111112"/>
<path d="M139.214 110.134C139.414 108.575 139.432 106.907 139.286 105.174L121.606 97.1155C121.587 97.1064 121.569 97.1338 121.587 97.1429L139.214 110.134Z" fill="#41A3A9"/>
<path d="M139.559 110.945L121.004 97.2706L121.405 96.5504L121.797 96.7145L139.714 104.883L139.733 105.147C139.887 106.925 139.86 108.63 139.66 110.207L139.559 110.945ZM125.178 99.2398L138.849 109.313C138.958 108.101 138.958 106.816 138.858 105.475L125.178 99.2398Z" fill="#111112"/>
<path d="M121.612 97.1247L139.275 105.174C138.874 100.625 137.306 95.6296 134.8 90.9528L121.612 96.9788C121.549 97.0061 121.549 97.0973 121.612 97.1247Z" fill="#41A3A9"/>
<path d="M123.91 98.4465L137.909 104.874C137.125 100.252 136.496 98.3097 134.345 93.9156L123.91 98.4465Z" fill="#A2D0D2"/>
<path d="M139.786 105.904L121.157 97.4165L121.112 96.7693L121.421 96.5778L134.992 90.3786L135.192 90.7524C137.708 95.4565 139.321 100.571 139.713 105.147L139.786 105.904ZM122.533 97.0519L138.756 104.445C138.273 100.306 136.824 95.7665 134.609 91.5364L122.533 97.0519Z" fill="#111112"/>
<path d="M137.371 96.7521L141.491 94.5916L143.086 100.645L143.414 107.136L143.04 108.102L139.632 110.044L139.121 103.754L137.371 96.7521Z" fill="#111112"/>
<path d="M133.189 119.68L136.479 117.656L138.612 114.848L139.787 111.439L140.115 109.834L136.005 112.022L134.474 117.2L133.189 119.68Z" fill="#111112"/>
</svg>
