<svg width="23" height="18" viewBox="0 0 23 18" fill="none" xmlns="http://www.w3.org/2000/svg">
<path d="M18.8944 2.34399C17.5184 1.71467 16.057 1.256 14.5317 1C14.3397 1.33067 14.1263 1.77866 13.977 2.13067C12.3546 1.89599 10.7439 1.89599 9.14394 2.13067C8.9946 1.77866 8.77059 1.33067 8.58925 1C7.05328 1.256 5.59194 1.71467 4.22555 2.34399C1.46289 6.41865 0.71622 10.3973 1.08955 14.3226C2.92421 15.6559 4.6949 16.4666 6.43463 17C6.86129 16.424 7.2453 15.8053 7.57597 15.1546C6.94663 14.92 6.3493 14.632 5.7733 14.2906C5.92263 14.184 6.07197 14.0667 6.21064 13.9493C9.68796 15.5387 13.4544 15.5387 16.889 13.9493C17.0383 14.0667 17.177 14.184 17.3263 14.2906C16.7503 14.632 16.153 14.92 15.5237 15.1546C15.8543 15.8053 16.2384 16.424 16.665 17C18.4037 16.4666 20.185 15.6559 22.0101 14.3226C22.4687 9.7787 21.2837 5.83202 18.8944 2.34399ZM8.05596 11.9013C7.01061 11.9013 6.15728 10.952 6.15728 9.7893C6.15728 8.6267 6.98928 7.67731 8.05596 7.67731C9.11194 7.67731 9.97591 8.6267 9.95457 9.7893C9.95457 10.952 9.11194 11.9013 8.05596 11.9013ZM15.065 11.9013C14.0197 11.9013 13.1653 10.952 13.1653 9.7893C13.1653 8.6267 13.9983 7.67731 15.065 7.67731C16.121 7.67731 16.985 8.6267 16.9637 9.7893C16.9637 10.952 16.1317 11.9013 15.065 11.9013Z" stroke="#41A3A9" stroke-width="1.3" stroke-linejoin="round"/>
</svg>
