<svg viewBox="0 0 284 200" fill="none" xmlns="http://www.w3.org/2000/svg">
<g opacity="0.3">
<path d="M141.961 200L0.442505 120.492L1.57651 120.085L142.221 199.06L141.961 200Z" fill="#A2D0D2"/>
<path d="M19.142 110.235L18.6633 111.041L159.298 190.012L159.776 189.205L19.142 110.235Z" fill="#A2D0D2"/>
<path d="M36.7138 100.372L36.2351 101.179L176.87 180.149L177.348 179.343L36.7138 100.372Z" fill="#A2D0D2"/>
<path d="M54.2774 90.5064L53.7987 91.3128L194.433 170.283L194.912 169.477L54.2774 90.5064Z" fill="#A2D0D2"/>
<path d="M71.853 80.6365L71.3743 81.4429L212.009 160.413L212.487 159.607L71.853 80.6365Z" fill="#A2D0D2"/>
<path d="M89.4239 70.773L88.9452 71.5794L229.58 150.55L230.058 149.743L89.4239 70.773Z" fill="#A2D0D2"/>
<path d="M106.987 60.9052L106.509 61.7116L247.143 140.682L247.622 139.876L106.987 60.9052Z" fill="#A2D0D2"/>
<path d="M124.559 51.045L124.081 51.8513L264.715 130.822L265.194 130.015L124.559 51.045Z" fill="#A2D0D2"/>
<path d="M282.29 120.944L141.655 41.9689L141.933 41.0468L283.443 120.519L282.29 120.944Z" fill="#A2D0D2"/>
<path d="M141.961 200L141.691 199.033L282.327 120.058L283.442 120.519L141.961 200Z" fill="#A2D0D2"/>
<path d="M264.717 110.172L124.115 189.19L124.594 189.996L265.196 110.978L264.717 110.172Z" fill="#A2D0D2"/>
<path d="M247.171 100.29L106.569 179.324L107.048 180.13L247.65 101.096L247.171 100.29Z" fill="#A2D0D2"/>
<path d="M229.582 90.44L88.9796 169.458L89.4586 170.264L230.061 91.2462L229.582 90.44Z" fill="#A2D0D2"/>
<path d="M194.462 70.6838L53.8596 149.717L54.3387 150.523L194.941 71.4899L194.462 70.6838Z" fill="#A2D0D2"/>
<path d="M212.31 80.7334L71.7083 159.767L72.1873 160.573L212.789 81.5396L212.31 80.7334Z" fill="#A2D0D2"/>
<path d="M176.891 60.8318L36.2888 139.865L36.7679 140.671L177.37 61.638L176.891 60.8318Z" fill="#A2D0D2"/>
<path d="M159.326 50.9861L18.7241 130.02L19.2032 130.826L159.805 51.7923L159.326 50.9861Z" fill="#A2D0D2"/>
<path d="M1.6137 120.917L0.442505 120.492L141.933 41.0468L142.258 41.9418L1.6137 120.917Z" fill="#A2D0D2"/>
</g>
<path d="M105.8 66.172C105.8 45.7313 120.566 20.8479 138.768 10.6387C147.673 5.63511 155.748 5.09661 161.677 8.21545H161.7L161.931 8.35007C162.023 8.39494 162.092 8.43983 162.185 8.50715L169.936 12.9049C170.536 13.2415 170.559 14.0493 169.983 14.4307L165.368 17.3925C166.084 20.0177 166.499 22.957 166.499 26.2329C166.499 46.6737 151.734 71.5571 133.531 81.7663C131.086 83.135 128.686 84.1671 126.402 84.8851L124.672 90.6964C124.487 91.3247 123.726 91.6164 123.149 91.3023L115.698 87.084C115.536 86.9942 115.375 86.9045 115.213 86.8147L114.729 86.5454L114.705 86.4781C109.215 82.9105 105.8 75.9549 105.8 66.172Z" fill="#41A3A9"/>
<path d="M106.883 69.717C106.883 49.2762 121.648 24.3929 139.851 14.1837C148.756 9.1801 156.831 8.64159 162.76 11.7604H162.783L163.014 11.8951C163.106 11.9399 163.175 11.9848 163.268 12.0521L171.019 16.4499C171.619 16.7865 171.642 17.5942 171.065 17.9757L166.451 20.9374C167.167 23.5627 167.582 26.502 167.582 29.7779C167.582 50.2186 129.769 87.712 127.485 88.43C127.508 88.3851 106.883 79.4998 106.883 69.717Z" fill="#A2D0D2"/>
<path d="M123.679 92.4688C123.956 92.4688 124.21 92.4239 124.487 92.3118C125.11 92.0649 125.548 91.5713 125.733 90.9655L127.301 85.6927C129.585 84.9298 131.869 83.9201 134.084 82.6636C152.564 72.2973 167.606 46.9652 167.606 26.2103C167.606 23.2934 167.283 20.4887 166.637 17.841L170.605 15.2831C171.182 14.9017 171.528 14.2734 171.505 13.6003C171.482 12.9271 171.112 12.2989 170.513 11.9623L161.838 7.02605L161.769 7.04847C155.286 3.86232 146.958 4.80471 138.214 9.71856C119.734 20.0848 104.692 45.417 104.692 66.1718C104.692 75.7527 107.922 83.1796 113.782 87.1062L113.805 87.1511L115.166 87.9813L122.595 92.1996C122.941 92.3567 123.31 92.4688 123.679 92.4688ZM169.198 13.6452L164.145 16.8762L164.353 17.6166C165.068 20.2867 165.437 23.1812 165.437 26.1878C165.437 46.2696 150.88 70.7716 133 80.8237C130.716 82.1026 128.386 83.1123 126.079 83.8528L125.525 84.0322L123.633 90.3821L115.305 85.558C109.883 82.0801 106.884 75.2142 106.884 66.1718C106.884 46.0901 121.442 21.5881 139.321 11.536C147.581 6.91385 155.332 6.06121 161.169 9.11274L161.584 9.33713H161.607L169.198 13.6452Z" fill="#111112"/>
<path d="M118.072 50.4653L110.205 45.686L106.883 54.9528L105.798 69.2008L106.883 77.7046L116.042 87.6221L119.71 89.0805L116.711 83.7853L114.265 75.057V63.8157L118.072 52.3725V50.4653Z" fill="#111112"/>
<path d="M153.209 140.799L137.083 78.5124L156.693 61.9085L172.819 124.196C173.073 125.205 171.85 126.753 171.043 126.394L161.261 121.997C160.73 121.75 159.899 122.468 159.669 123.343L155.262 139.745C154.939 141.069 153.486 141.809 153.209 140.799Z" fill="#41A3A9"/>
<path d="M156.001 125.25L151.594 141.652C151.248 142.976 149.795 143.716 149.518 142.707L140.889 109.387L161.607 97.0685L169.128 126.125C169.382 127.135 168.159 128.683 167.351 128.324L157.569 123.926C157.062 123.68 156.231 124.375 156.001 125.25Z" fill="#A2D0D2"/>
<path d="M153.763 142.325C154.847 142.325 155.978 141.316 156.324 139.992L160.73 123.59C160.799 123.343 160.961 123.141 161.053 123.051L170.581 127.337C171.25 127.629 172.012 127.494 172.681 126.955C173.488 126.305 174.157 125.048 173.857 123.926L157.293 59.9565L135.837 78.131L152.125 141.046C152.356 141.809 153.002 142.325 153.763 142.325ZM161.053 120.875C160.776 120.875 160.499 120.942 160.246 121.054C159.507 121.391 158.861 122.176 158.631 123.051L154.224 139.453C154.178 139.588 154.132 139.7 154.086 139.79L138.306 78.849L156.093 63.7934L171.804 124.42C171.85 124.622 171.573 125.116 171.343 125.318L161.768 121.01C161.515 120.92 161.284 120.875 161.053 120.875Z" fill="#111112"/>
<path d="M115.374 156.573L131.085 76.2911L150.741 70.7041L135.03 150.986C134.776 152.288 133.322 153.185 132.953 152.265L128.478 140.867C128.247 140.261 127.393 140.485 126.886 141.316L117.15 156.753C116.365 158.009 115.12 157.875 115.374 156.573Z" fill="#41A3A9"/>
<path d="M111.405 156.236L121.026 107.12L139.205 109.005L131.061 150.649C130.807 151.951 129.354 152.848 128.985 151.928L124.509 140.53C124.278 139.924 123.425 140.149 122.917 140.979L113.182 156.416C112.397 157.672 111.151 157.538 111.405 156.236Z" fill="#A2D0D2"/>
<path d="M115.95 158.682C116.735 158.682 117.519 158.189 118.073 157.314L127.739 141.989L131.938 152.669C132.215 153.365 132.884 153.791 133.622 153.724C134.753 153.634 135.814 152.512 136.068 151.211L152.125 69.2231L130.139 75.4833L114.289 156.416C114.035 157.673 114.681 158.391 115.304 158.615C115.535 158.66 115.743 158.682 115.95 158.682ZM127.993 139.476C127.232 139.476 126.47 139.969 125.963 140.777L116.711 155.451L132.053 77.0988L149.356 72.1849L133.968 150.784C133.922 150.986 133.853 151.143 133.738 151.278L129.493 140.485C129.262 139.902 128.754 139.52 128.155 139.476C128.108 139.476 128.062 139.476 127.993 139.476Z" fill="#111112"/>
<path d="M123.84 91.6327C110.963 84.402 110.962 60.9585 123.837 39.2701C136.713 17.5818 157.589 5.8617 170.466 13.0924C183.343 20.3232 183.344 43.7667 170.469 65.455C157.593 87.1433 136.717 98.8635 123.84 91.6327Z" fill="#41A3A9"/>
<path d="M132.4 94.8694C137.106 94.8694 142.297 93.3436 147.672 90.337C166.152 79.9708 181.194 54.6386 181.194 33.8837C181.194 23.6073 177.572 15.9111 170.997 12.2089C164.422 8.50669 155.747 9.31445 146.588 14.4527C128.109 24.8189 113.067 50.151 113.067 70.9059C113.067 81.1824 116.689 88.8785 123.264 92.5807C125.986 94.1065 129.078 94.8694 132.4 94.8694ZM161.838 12.007C164.791 12.007 167.513 12.6801 169.889 14.0039C175.772 17.3023 179.002 24.3477 179.002 33.8389C179.002 53.9206 164.445 78.4226 146.565 88.4747C138.121 93.209 130.208 94.0168 124.348 90.7184C118.465 87.4201 115.235 80.3747 115.235 70.8835C115.235 50.8018 129.793 26.2998 147.672 16.2477C152.702 13.443 157.524 12.007 161.838 12.007Z" fill="#111112"/>
<path d="M127.382 87.9141C117.33 82.2695 117.331 63.9658 127.384 47.0315C137.437 30.0973 153.735 20.9451 163.787 26.5897C173.839 32.2343 173.839 50.5381 163.786 67.4723C153.733 84.4066 137.434 93.5586 127.382 87.9141Z" fill="#A2D0D2"/>
<path d="M143.276 68.4989C142.773 68.7809 142.296 68.8232 141.945 68.6258L134.84 64.6358C134.112 64.227 134.112 62.8735 134.84 61.6469C135.568 60.4203 136.773 59.7436 137.501 60.1525L143.276 63.3952L156.183 41.655C156.911 40.4284 158.116 39.7516 158.844 40.1605C159.572 40.5694 159.572 41.9228 158.844 43.1494L144.606 67.1313C144.255 67.7235 143.778 68.2169 143.276 68.4989Z" fill="#41A3A9"/>
<path d="M142.818 61.4759L143.276 61.7328L143.733 60.9621L156.64 39.2219C157.114 38.4236 157.913 37.9751 158.387 38.2412C158.853 38.5031 158.853 39.373 158.386 40.1584L144.149 64.1403C143.92 64.5265 143.607 64.8509 143.276 65.0368C142.945 65.2228 142.632 65.2497 142.403 65.121L135.297 61.131C134.831 60.8692 134.831 59.9993 135.297 59.2138C135.771 58.4155 136.57 57.9671 137.044 58.2332L142.818 61.4759Z" stroke="#111112" stroke-width="1.5"/>
<path d="M135.629 85.7843C139.343 85.7843 143.45 84.5951 147.672 82.2167C162.16 74.0718 173.972 54.2145 173.972 37.9247C173.972 29.8023 171.111 23.7216 165.897 20.8047C160.683 17.8878 153.831 18.4936 146.61 22.5549C132.122 30.6997 120.31 50.5571 120.31 66.8469C120.31 74.9693 123.171 81.0499 128.385 83.9668C130.53 85.1785 132.999 85.7843 135.629 85.7843ZM158.63 21.0964C160.891 21.0964 162.967 21.6125 164.79 22.6222C169.312 25.1576 171.78 30.5876 171.78 37.9247C171.78 53.5189 160.476 72.5685 146.587 80.3768C140.058 84.0341 133.991 84.6624 129.469 82.1269C124.947 79.5915 122.479 74.1616 122.479 66.8245C122.479 51.2303 133.783 32.1806 147.672 24.3723C151.548 22.1959 155.285 21.0964 158.63 21.0964Z" fill="#111112"/>
</svg>
