<svg viewBox="0 0 284 200" fill="none" xmlns="http://www.w3.org/2000/svg">
    <g opacity="0.3">
        <path d="M142.198 200L0.679077 119.618L1.81309 119.207L142.458 199.05L142.198 200Z" fill="#A2D0D2" />
        <path d="M19.3786 109.248L18.8999 110.063L159.534 189.902L160.013 189.087L19.3786 109.248Z" fill="#A2D0D2" />
        <path d="M36.9505 99.2773L36.4718 100.093L177.106 179.931L177.585 179.116L36.9505 99.2773Z" fill="#A2D0D2" />
        <path d="M54.5141 89.3028L54.0354 90.118L194.67 169.956L195.149 169.141L54.5141 89.3028Z" fill="#A2D0D2" />
        <path d="M72.0895 79.3244L71.6108 80.1396L212.245 159.978L212.724 159.163L72.0895 79.3244Z" fill="#A2D0D2" />
        <path d="M89.6605 69.3525L89.1818 70.1677L229.816 150.006L230.295 149.191L89.6605 69.3525Z" fill="#A2D0D2" />
        <path d="M107.224 59.3762L106.745 60.1915L247.38 140.03L247.859 139.215L107.224 59.3762Z" fill="#A2D0D2" />
        <path d="M124.796 49.4076L124.317 50.2228L264.952 130.061L265.43 129.246L124.796 49.4076Z" fill="#A2D0D2" />
        <path d="M282.527 120.075L141.891 40.2317L142.17 39.2995L283.679 119.645L282.527 120.075Z" fill="#A2D0D2" />
        <path d="M142.198 200L141.928 199.022L282.564 119.179L283.679 119.645L142.198 200Z" fill="#A2D0D2" />
        <path d="M264.954 109.185L124.352 189.071L124.831 189.886L265.433 110L264.954 109.185Z" fill="#A2D0D2" />
        <path d="M247.407 99.1942L106.805 179.096L107.284 179.911L247.886 100.009L247.407 99.1942Z" fill="#A2D0D2" />
        <path d="M229.818 89.2357L89.2163 169.122L89.6953 169.937L230.297 90.0507L229.818 89.2357Z" fill="#A2D0D2" />
        <path d="M194.698 69.2623L54.0962 149.165L54.5753 149.98L195.177 70.0774L194.698 69.2623Z" fill="#A2D0D2" />
        <path d="M212.547 79.4224L71.9448 159.325L72.4239 160.14L213.026 80.2374L212.547 79.4224Z" fill="#A2D0D2" />
        <path d="M177.127 59.3021L36.5253 139.204L37.0044 140.019L177.606 60.1172L177.127 59.3021Z" fill="#A2D0D2" />
        <path d="M159.563 49.3481L18.9607 129.25L19.4398 130.065L160.042 50.1631L159.563 49.3481Z" fill="#A2D0D2" />
        <path d="M1.85027 120.047L0.679077 119.618L142.17 39.2995L142.495 40.2043L1.85027 120.047Z" fill="#A2D0D2" />
    </g>
    <path
        d="M124.131 156.048L124.167 156.024C124.228 156 124.277 155.988 124.337 155.964L169.933 130.145C172.613 128.404 174.213 125.46 174.201 122.301L174.164 6.16C174.152 5.94544 174.116 5.74279 174.08 5.55206C173.473 1.24878 168.26 -1.15915 164.272 1.10573L164.199 1.1415C164.15 1.16534 164.114 1.18918 164.066 1.21302L118.518 27.0566C115.887 28.7731 114.311 31.6698 114.323 34.7691L114.408 150.505C114.408 150.731 114.432 150.934 114.469 151.137C114.772 155.702 120.009 158.384 124.131 156.048Z"
        fill="#41A3A9" />
    <path
        d="M124.252 156.25L124.155 156.095L124.252 156.25L124.324 156.226C124.361 156.215 124.397 156.203 124.458 156.167L170.066 130.335C172.818 128.547 174.455 125.543 174.443 122.301L174.406 6.148C174.394 5.94535 174.358 5.7427 174.321 5.51621C174.03 3.4659 172.673 1.66591 170.684 0.712271C168.587 -0.300967 166.138 -0.229445 164.15 0.902998L164.041 0.962602C164.016 0.974522 163.98 0.986442 163.944 1.01028L118.372 26.8657C117.111 27.6883 116.08 28.773 115.353 30.0247C114.517 31.4432 114.068 33.0763 114.08 34.769L114.165 150.505C114.165 150.719 114.189 150.934 114.226 151.148C114.371 153.342 115.668 155.297 117.681 156.346C119.766 157.442 122.215 157.407 124.252 156.25ZM125.161 40.0617C125.161 40.0617 119.487 38.3809 117.62 36.1041C115.765 33.8511 116.747 31.2644 116.759 31.2167C117.487 29.8339 118.554 28.6419 119.911 27.7598L165.459 1.91624C165.508 1.8924 165.544 1.86856 165.592 1.84472L165.665 1.80895C167.181 0.95068 168.878 0.783794 170.418 1.11757C170.43 1.12949 170.454 1.12949 170.466 1.14141C172.309 2.03544 173.57 3.69238 173.836 5.59966C173.885 5.81423 173.909 5.99303 173.921 6.15992L173.958 122.301C173.958 122.957 173.873 123.6 173.739 124.22C173.424 125.364 172.224 128.523 168.296 130.204C167.932 130.359 167.605 130.502 167.314 130.621C167.253 130.562 167.217 130.478 167.193 130.371L125.161 40.0617Z"
        fill="#111112" />
    <path
        d="M115.414 48.5489V46.8085C115.414 46.3078 115.826 46.129 116.348 46.427C116.857 46.7131 117.281 47.3568 117.281 47.8694V49.6098C117.281 50.1105 116.869 50.2893 116.348 49.9913C115.826 49.6933 115.414 49.0496 115.414 48.5489Z"
        fill="#41A3A9" />
    <path
        d="M117.268 47.8578C117.268 47.3571 116.856 46.7134 116.335 46.4154C116.213 46.3439 116.092 46.32 115.983 46.3081C115.959 46.3677 115.959 46.4273 115.959 46.5108V48.2511C115.959 48.7518 116.371 49.3955 116.892 49.6935C117.014 49.765 117.135 49.8008 117.232 49.8246C117.256 49.765 117.268 49.6935 117.268 49.6101V47.8578Z"
        fill="#A2D0D2" />
    <path
        d="M115.899 46.1649L115.996 46.1768C116.105 46.2006 116.238 46.2245 116.384 46.3079C116.942 46.6178 117.378 47.2973 117.378 47.8456V49.586C117.378 49.6695 117.366 49.7529 117.342 49.8364L117.305 49.9317L117.208 49.9198C117.087 49.896 116.954 49.8483 116.82 49.7768C116.263 49.4668 115.826 48.7874 115.826 48.239V46.4986C115.826 46.4152 115.838 46.3437 115.863 46.2602L115.899 46.1649ZM117.148 47.8576C117.148 47.3927 116.76 46.7966 116.275 46.5225C116.202 46.4867 116.141 46.4629 116.081 46.4509C116.081 46.4748 116.081 46.4867 116.081 46.5106V48.2509C116.081 48.7158 116.469 49.3119 116.954 49.586C117.014 49.6218 117.087 49.6575 117.148 49.6695C117.148 49.6456 117.148 49.6218 117.148 49.5979V47.8576Z"
        fill="#111112" />
    <path
        d="M114.589 48.8587C114.589 48.358 115.001 48.1792 115.523 48.4772C116.032 48.7633 116.456 49.407 116.456 49.9196C116.456 50.4203 116.044 50.5991 115.523 50.301C115.001 50.003 114.589 49.3593 114.589 48.8587Z"
        fill="#A2D0D2" />
    <path
        d="M114.541 48.4656C114.589 48.3822 114.662 48.3107 114.747 48.263C114.965 48.1319 115.28 48.1676 115.595 48.3464C116.153 48.6683 116.602 49.3477 116.602 49.908C116.602 50.1822 116.493 50.3848 116.311 50.504C116.093 50.6352 115.777 50.5994 115.462 50.4206C114.904 50.0987 114.456 49.4193 114.456 48.859C114.444 48.704 114.468 48.5729 114.541 48.4656ZM116.238 50.1583C116.286 50.0868 116.299 49.9915 116.299 49.908C116.299 49.455 115.911 48.8471 115.438 48.5848C115.208 48.4537 115.014 48.4299 114.88 48.5014C114.747 48.5729 114.723 48.7279 114.723 48.8471C114.723 49.3001 115.111 49.8961 115.583 50.1703C115.802 50.3014 116.02 50.3252 116.141 50.2537C116.189 50.2418 116.226 50.206 116.238 50.1583Z"
        fill="#111112" />
    <path
        d="M115.498 48.4892C116.007 48.7753 116.432 49.419 116.432 49.9316C116.432 50.1461 116.359 50.3011 116.226 50.3845L116.856 50.1104C116.88 50.0984 116.905 50.0865 116.929 50.0746L116.977 50.0508L117.014 50.0269C117.159 49.9435 117.208 49.8123 117.208 49.5859C117.208 49.0852 116.795 48.4415 116.274 48.1435C116.02 48.0004 115.801 47.9766 115.632 48.0362L115.668 48.0243L115.632 48.0362C115.632 48.0362 115.583 48.06 115.571 48.06L114.868 48.37C115.038 48.3223 115.256 48.3461 115.498 48.4892Z"
        fill="#41A3A9" />
    <path
        d="M114.808 48.2509L115.511 47.9409L115.572 47.9171L115.596 47.9052C115.814 47.8337 116.069 47.8813 116.335 48.0244C116.893 48.3462 117.342 49.0257 117.342 49.586C117.342 49.7767 117.317 50.0151 117.087 50.1462L116.99 50.1939C116.966 50.2058 116.929 50.2297 116.893 50.2416L116.178 50.5515L116.02 50.3489L116.141 50.2654C116.263 50.182 116.287 50.0389 116.287 49.9317C116.287 49.4787 115.899 48.8827 115.426 48.6085C115.232 48.5012 115.05 48.4654 114.917 48.5131L114.808 48.2509ZM115.681 48.1674L115.632 48.1913L115.402 48.2866C115.45 48.3105 115.511 48.3343 115.56 48.3582C116.117 48.68 116.566 49.3595 116.566 49.9197C116.566 49.9793 116.566 50.027 116.554 50.0747L116.796 49.9674C116.82 49.9555 116.845 49.9436 116.857 49.9436L116.954 49.8959C117.014 49.8601 117.063 49.8124 117.063 49.574C117.063 49.1211 116.675 48.5131 116.202 48.2509C116.02 48.1436 115.838 48.1078 115.705 48.1436L115.681 48.1674Z"
        fill="#111112" />
    <path
        d="M115.378 51.9584C115.887 52.2445 116.311 52.8882 116.311 53.4008L116.323 58.6219C116.323 58.8603 116.226 59.0272 116.069 59.0987L116.905 58.7054L116.99 58.6696C117.184 58.5981 117.305 58.4431 117.305 58.1689L117.293 52.9478C117.293 52.4471 116.881 51.8034 116.36 51.5054C116.105 51.3624 115.935 51.3147 115.766 51.3743L115.717 51.3862C115.705 51.3862 115.705 51.3981 115.693 51.3981L114.735 51.8392C114.881 51.7915 115.123 51.8153 115.378 51.9584Z"
        fill="#41A3A9" />
    <path
        d="M114.663 51.7317L115.705 51.2548C115.96 51.1595 116.19 51.2668 116.421 51.3979C116.978 51.7197 117.427 52.3992 117.427 52.9595L117.439 58.1806C117.439 58.574 117.221 58.7409 117.039 58.8124L116.13 59.2415L116.008 58.9912C116.154 58.9197 116.178 58.7647 116.178 58.6336L116.166 53.4124C116.166 52.9595 115.778 52.3515 115.305 52.0893C115.099 51.9701 114.905 51.9343 114.772 51.9939L114.663 51.7317ZM117.087 58.4071C117.124 58.3475 117.136 58.276 117.136 58.1687L117.124 52.9475C117.124 52.4946 116.724 51.8866 116.263 51.6244C116.045 51.4932 115.899 51.4694 115.79 51.5052L115.742 51.5171L115.257 51.7436C115.317 51.7674 115.378 51.7913 115.426 51.827C115.984 52.1489 116.433 52.8283 116.433 53.3886L116.445 58.6098C116.445 58.6574 116.445 58.7051 116.433 58.7528L116.905 58.5382C116.966 58.5263 117.039 58.4905 117.087 58.4071Z"
        fill="#111112" />
    <path
        d="M114.456 57.5728L114.444 52.3516C114.444 51.8509 114.856 51.6721 115.377 51.9701C115.887 52.2562 116.311 52.8999 116.311 53.4125L116.323 58.6337C116.323 59.1343 115.911 59.3131 115.389 59.0151C114.868 58.7171 114.456 58.0734 114.456 57.5728Z"
        fill="#A2D0D2" />
    <path
        d="M114.396 51.9581C114.444 51.8747 114.517 51.8032 114.602 51.7555C114.82 51.6244 115.135 51.6601 115.451 51.8389C116.008 52.1608 116.457 52.8402 116.457 53.4005L116.469 58.6217C116.469 58.8958 116.36 59.0985 116.178 59.2177C115.96 59.3488 115.644 59.313 115.329 59.1342C114.772 58.8124 114.323 58.1329 114.323 57.5727L114.311 52.3515C114.299 52.1965 114.335 52.0654 114.396 51.9581ZM116.117 58.872C116.166 58.8005 116.178 58.7051 116.178 58.6217L116.166 53.4005C116.166 52.9475 115.778 52.3396 115.305 52.0773C115.087 51.9581 114.869 51.9224 114.747 51.9939C114.614 52.0654 114.59 52.2204 114.59 52.3396L114.602 57.5607C114.602 58.0137 114.99 58.6097 115.463 58.8839C115.693 59.015 115.887 59.0389 116.02 58.9673C116.057 58.9435 116.093 58.9197 116.117 58.872Z"
        fill="#111112" />
    <path
        d="M115.413 60.4696C115.922 60.7557 116.347 61.3994 116.347 61.912L116.359 67.1331C116.359 67.3715 116.262 67.5384 116.104 67.61L116.941 67.2166L117.026 67.1808C117.22 67.1093 117.341 66.9424 117.341 66.6802L117.329 61.459C117.329 60.9583 116.917 60.3146 116.395 60.0166C116.141 59.8736 115.971 59.8259 115.801 59.8855L115.753 59.8974C115.741 59.8974 115.741 59.9093 115.729 59.9093L114.771 60.3504C114.928 60.2908 115.159 60.3146 115.413 60.4696Z"
        fill="#41A3A9" />
    <path
        d="M114.698 60.2311L115.741 59.7543C115.995 59.6589 116.226 59.7662 116.456 59.8854C117.014 60.2072 117.462 60.8867 117.462 61.447L117.474 66.6681C117.474 67.0615 117.256 67.2284 117.074 67.2999L116.165 67.729L116.044 67.4787C116.189 67.4072 116.214 67.2522 116.214 67.1211L116.201 61.8999C116.201 61.447 115.801 60.839 115.341 60.5768C115.135 60.4576 114.941 60.4218 114.807 60.4814L114.698 60.2311ZM117.135 66.9065C117.171 66.8469 117.183 66.7754 117.183 66.6681L117.171 61.447C117.171 60.994 116.783 60.3861 116.311 60.1238C116.092 59.9927 115.959 59.9688 115.838 60.0046L115.789 60.0284L115.304 60.2549C115.365 60.2788 115.426 60.3026 115.474 60.3384C116.032 60.6602 116.48 61.3397 116.48 61.8999L116.492 67.1211C116.492 67.1688 116.492 67.2165 116.48 67.2642L116.953 67.0496C117.014 67.0257 117.086 66.99 117.135 66.9065Z"
        fill="#111112" />
    <path
        d="M114.492 66.0719L114.48 60.8507C114.48 60.3501 114.892 60.1713 115.414 60.4693C115.923 60.7554 116.347 61.3991 116.347 61.9117L116.359 67.1328C116.359 67.6335 115.947 67.8123 115.426 67.5143C114.917 67.2282 114.492 66.5845 114.492 66.0719Z"
        fill="#A2D0D2" />
    <path
        d="M114.444 60.4577C114.492 60.3743 114.565 60.3027 114.65 60.255C114.868 60.1239 115.183 60.1597 115.499 60.3385C116.056 60.6603 116.505 61.3398 116.505 61.9001L116.517 67.1212C116.517 67.3954 116.408 67.5981 116.226 67.7173C116.008 67.8484 115.693 67.8126 115.377 67.6338C114.82 67.312 114.371 66.6325 114.371 66.0722L114.359 60.8511C114.347 60.6961 114.383 60.565 114.444 60.4577ZM116.153 67.3716C116.202 67.3 116.214 67.2047 116.214 67.1212L116.202 61.9001C116.202 61.4471 115.802 60.8391 115.341 60.5769C115.123 60.4458 114.905 60.4219 114.783 60.4935C114.65 60.565 114.626 60.7199 114.626 60.8391L114.638 66.0603C114.638 66.5133 115.026 67.1093 115.499 67.3835C115.729 67.5146 115.923 67.5385 116.056 67.4669C116.105 67.455 116.129 67.4192 116.153 67.3716Z"
        fill="#111112" />
    <path
        d="M173.473 5.69495L173.509 121.836C173.521 124.995 171.921 127.939 169.242 129.68L123.645 155.499C120.99 156.656 117.79 155.368 117.778 152.412L117.693 36.6762C117.681 33.5769 119.257 30.6802 121.887 28.9637L167.435 3.12013C170.745 1.2963 173.291 2.95324 173.473 5.69495Z"
        fill="#A2D0D2" />
    <path
        d="M119.5 32.4444C120.227 31.2046 121.233 30.1318 122.494 29.3212L168.054 3.47767C169.678 2.58364 171.255 2.44059 172.479 3.09622C173.546 3.6684 174.225 4.78892 174.31 6.15977V6.17169L174.346 122.313C174.358 125.519 172.734 128.499 170.018 130.264L124.422 156.095C122.906 156.751 121.209 156.667 119.96 155.881C118.918 155.213 118.348 154.152 118.336 152.889L118.251 37.153C118.227 35.4722 118.675 33.851 119.5 32.4444ZM174.019 6.17169C173.934 4.89621 173.315 3.85913 172.333 3.33463C171.206 2.72668 169.727 2.86973 168.187 3.71608L122.64 29.5596C120.045 31.2523 118.506 34.0894 118.518 37.153L118.602 152.889C118.602 154.057 119.136 155.034 120.094 155.642C121.258 156.381 122.858 156.465 124.264 155.845L169.848 130.025C172.491 128.309 174.055 125.424 174.043 122.313L174.019 6.17169Z"
        fill="#111112" />
    <path
        d="M125.065 152.448L169.036 127.343C170.915 126.127 172.043 124.065 172.031 121.848L171.946 8.00756C171.812 6.08836 170.03 4.93208 167.715 6.20757L158.756 11.3334V12.883C158.756 14.6949 157.64 16.8049 156.258 17.6035L136.412 28.9399C135.03 29.7266 133.903 28.9041 133.903 27.0803V25.5306L123.767 31.324C121.925 32.5279 120.821 34.5544 120.833 36.7239L120.955 150.278C120.955 152.352 123.295 153.592 125.065 152.448Z"
        fill="#41A3A9" />
    <path
        d="M138.072 42.0643L153.881 32.9928C156.657 31.4074 158.912 33.0882 158.912 36.7239C158.912 40.3716 156.67 44.6033 153.893 46.1768L138.084 55.2483C135.308 56.8337 133.053 55.1529 133.053 51.5172C133.041 47.8815 135.296 43.6378 138.072 42.0643Z"
        fill="#A2D0D2" />
    <path
        d="M136.266 46.3795C137.164 44.8418 138.352 43.5424 139.637 42.8153L155.458 33.7438C156.743 33.0167 158.004 32.9213 158.986 33.4816C160.174 34.1491 160.853 35.6868 160.853 37.6895C160.853 41.3967 158.549 45.7358 155.712 47.357L139.903 56.4284C138.618 57.1556 137.357 57.2509 136.375 56.6907C135.187 56.0231 134.508 54.4854 134.508 52.4828C134.496 50.4444 135.175 48.2272 136.266 46.3795ZM139.879 43.2206C137.176 44.7583 134.981 48.9066 134.981 52.4708C134.981 54.2947 135.575 55.6775 136.606 56.2616C137.442 56.7384 138.521 56.643 139.661 55.9993L155.47 46.9278C158.173 45.3901 160.368 41.2418 160.368 37.6776C160.368 35.8537 159.774 34.471 158.743 33.8869C157.907 33.41 156.828 33.5054 155.688 34.1491L139.879 43.2206Z"
        fill="#111112" />
    <path
        d="M143.055 46.153C142.946 46.2126 142.898 46.2007 142.837 46.1173C142.716 45.9623 142.485 45.9265 142.243 46.0696C141.807 46.3199 141.516 46.8444 141.516 47.2378C141.516 47.6312 141.758 47.6789 142.243 47.5716C142.995 47.4166 143.552 47.4285 143.552 48.2272C143.552 49.0259 142.97 49.8722 142.243 50.2894C141.649 50.6232 141.152 50.504 140.994 50.0033C140.958 49.8841 141.031 49.7649 141.152 49.6815L141.225 49.6457C141.334 49.5861 141.394 49.61 141.431 49.7053C141.564 49.9795 141.879 50.0391 142.255 49.8245C142.74 49.5504 143.128 49.002 143.128 48.4656C143.128 48.0484 142.886 47.953 142.255 48.0842C141.503 48.251 141.103 48.1557 141.103 47.4643C141.103 46.7729 141.564 45.9862 142.255 45.5928C142.74 45.3186 143.152 45.402 143.31 45.7716C143.358 45.8908 143.286 46.01 143.164 46.0815L143.055 46.153Z"
        fill="#111112" />
    <path
        d="M144.462 48.9784C144.341 49.0499 144.28 49.0142 144.28 48.8711V44.7228C144.28 44.5917 144.341 44.4844 144.462 44.4129L146.426 43.2924C146.547 43.2208 146.608 43.2566 146.608 43.3996V43.4354C146.608 43.5665 146.547 43.6738 146.426 43.7453L144.692 44.7347V46.0102L146.329 45.0804C146.45 45.0089 146.511 45.0447 146.511 45.1877V45.2235C146.511 45.3546 146.45 45.4619 146.329 45.5334L144.692 46.4632V48.4062L146.426 47.4168C146.547 47.3453 146.608 47.3811 146.608 47.5241V47.5599C146.608 47.691 146.547 47.7983 146.426 47.8698L144.462 48.9784Z"
        fill="#111112" />
    <path
        d="M147.735 47.2497C147.614 47.3213 147.553 47.2855 147.553 47.1425V42.9941C147.553 42.863 147.614 42.7557 147.735 42.6842L147.917 42.5769C148.014 42.5173 148.075 42.5292 148.135 42.5888L150.572 44.9968V41.2895C150.572 41.1584 150.633 41.0511 150.754 40.9796L150.802 40.9557C150.924 40.8842 150.984 40.92 150.984 41.063V45.2113C150.984 45.3425 150.924 45.4498 150.802 45.5213L150.62 45.6286C150.523 45.6882 150.463 45.6762 150.402 45.6166L147.965 43.2087V46.9279C147.965 47.059 147.905 47.1663 147.784 47.2378L147.735 47.2497Z"
        fill="#111112" />
    <path
        d="M151.978 44.8658C151.857 44.9373 151.796 44.9016 151.796 44.7585V40.6102C151.796 40.4791 151.857 40.3718 151.978 40.3003L152.863 39.7996C154.318 38.9771 154.899 39.287 154.899 40.9201C154.899 42.5532 154.318 43.5307 152.863 44.3532L151.978 44.8658ZM152.875 43.9122C154.027 43.2565 154.487 42.4698 154.487 41.1585C154.487 39.8473 154.027 39.585 152.875 40.2407L152.22 40.6102V44.2817L152.875 43.9122Z"
        fill="#111112" />
    <path
        d="M152.475 15.8034L152.536 15.7676C152.827 15.6007 153.069 15.7795 153.069 16.161C153.069 16.5424 152.839 16.9835 152.548 17.1504L152.487 17.1862C152.196 17.353 151.954 17.1742 151.954 16.7928C151.954 16.4113 152.184 15.9703 152.475 15.8034Z"
        fill="#41A3A9" />
    <path
        d="M140.764 22.5264L150.838 16.745C151.129 16.5781 151.372 16.7569 151.372 17.1383C151.372 17.5198 151.141 17.9609 150.85 18.1277L140.776 23.9092C140.485 24.0761 140.242 23.8972 140.242 23.5158C140.242 23.1343 140.473 22.6933 140.764 22.5264Z"
        fill="#41A3A9" />
    <path
        d="M152.439 16.3398C152.548 16.161 152.681 16.018 152.827 15.9226L152.887 15.8868C153.057 15.7915 153.239 15.7795 153.372 15.863C153.53 15.9584 153.627 16.1491 153.627 16.3994C153.627 16.8285 153.372 17.3173 153.033 17.5199L152.972 17.5557C152.802 17.6511 152.621 17.663 152.487 17.5795C152.33 17.4842 152.233 17.2934 152.233 17.0431C152.233 16.8047 152.318 16.5425 152.439 16.3398ZM153.178 16.9597C153.275 16.7928 153.348 16.5782 153.348 16.3994C153.348 16.2564 153.3 16.1372 153.239 16.1014C153.166 16.0656 153.081 16.1014 153.033 16.1252L152.972 16.161C152.73 16.304 152.524 16.6974 152.524 17.0312C152.524 17.1742 152.572 17.2934 152.633 17.3292C152.705 17.365 152.79 17.3292 152.839 17.3054L152.899 17.2696C153.009 17.21 153.106 17.1027 153.178 16.9597Z"
        fill="#111112" />
    <path
        d="M140.716 23.0628C140.825 22.884 140.958 22.741 141.103 22.6456L151.178 16.8642C151.348 16.7688 151.53 16.7569 151.663 16.8403C151.821 16.9357 151.918 17.1264 151.918 17.3768C151.918 17.8059 151.663 18.2946 151.324 18.4973L141.249 24.2787C141.079 24.3741 140.897 24.386 140.764 24.3026C140.606 24.2072 140.509 24.0165 140.509 23.7661C140.522 23.5277 140.594 23.2655 140.716 23.0628ZM151.481 17.937C151.578 17.7701 151.651 17.5556 151.639 17.3768C151.639 17.2337 151.59 17.1145 151.53 17.0788C151.457 17.043 151.372 17.0788 151.324 17.1026L141.249 22.884C141.006 23.0271 140.8 23.4204 140.8 23.7542C140.8 23.8973 140.849 24.0165 140.909 24.0522C140.982 24.088 141.067 24.0522 141.116 24.0284L151.19 18.247C151.299 18.1874 151.408 18.0682 151.481 17.937Z"
        fill="#111112" />
    <path
        d="M166.114 59.7187L125.064 82.7729C123.985 83.3808 123.124 82.7252 123.136 81.3186C123.148 79.912 124.021 78.2908 125.088 77.6829L166.138 54.6287C167.217 54.0208 168.078 54.6764 168.066 56.083C168.066 57.5015 167.181 59.1227 166.114 59.7187Z"
        fill="#A2D0D2" />
    <path
        d="M125.125 84.6204C124.882 84.6204 124.652 84.5608 124.446 84.4416C123.912 84.1317 123.609 83.4641 123.609 82.5939C123.621 81.0562 124.555 79.3277 125.743 78.6602L166.793 55.606C167.375 55.2842 167.957 55.2484 168.417 55.5107C168.951 55.8206 169.254 56.4881 169.254 57.3583C169.242 58.8961 168.308 60.6245 167.12 61.2921L126.07 84.3462C125.743 84.525 125.428 84.6204 125.125 84.6204Z"
        fill="#111112" />
    <path
        d="M180.48 111.942C179.873 111.942 179.292 111.823 178.855 111.573L127.549 82.7967C127.197 82.594 126.967 82.3199 126.882 82.0099H126.833V81.7596L126.906 80.2815L129.149 79.6855L163.543 60.5889C164.683 59.9571 166.319 59.8975 167.289 60.4339L219.093 88.5423L219.044 90.5092C218.947 90.9384 218.608 91.3317 218.062 91.6297L182.589 111.442C181.983 111.775 181.207 111.942 180.48 111.942Z"
        fill="#111112" />
    <path
        d="M218.523 88.2087L167.217 59.4327C166.332 58.9321 164.78 59.0036 163.725 59.5877L128.034 79.4114C126.991 79.9955 126.858 80.8657 127.743 81.3544L179.049 110.13C179.934 110.631 181.486 110.56 182.541 109.975L217.189 90.7358C218.22 90.1517 219.408 88.6974 218.523 88.2087Z"
        fill="#41A3A9" />
    <path
        d="M218.401 89.0428L167.095 60.2668C166.21 59.7662 164.658 59.8377 163.603 60.4218L127.9 80.2455C126.857 80.8296 127.318 81.2707 128.203 81.7594L178.636 109.606C179.521 110.106 181.231 110.798 182.273 110.225L216.17 91.2362C217.213 90.6401 219.286 89.5315 218.401 89.0428Z"
        fill="#A2D0D2" />
    <path
        d="M180.539 110.714C179.933 110.714 179.351 110.595 178.915 110.345L127.609 81.5688C127.148 81.3065 126.893 80.937 126.893 80.5078C126.893 80.0072 127.269 79.5185 127.912 79.1608L163.615 59.3371C164.755 58.7053 166.391 58.6457 167.361 59.1822L218.668 87.9581C218.959 88.1131 219.116 88.3873 219.104 88.6972C219.104 89.4482 218.183 90.4614 217.31 90.9382L182.661 110.178C182.043 110.535 181.267 110.714 180.539 110.714ZM165.737 59.349C165.094 59.349 164.403 59.504 163.87 59.7901L128.166 79.6138C127.706 79.8761 127.427 80.2098 127.427 80.5078C127.427 80.7939 127.669 80.9966 127.875 81.1039L179.182 109.88C179.982 110.333 181.449 110.261 182.406 109.725L217.055 90.4853C217.831 90.0561 218.571 89.1859 218.571 88.6972C218.571 88.5661 218.522 88.4826 218.401 88.4111L167.082 59.6471C166.731 59.4563 166.246 59.349 165.737 59.349Z"
        fill="#111112" />
    <path
        d="M149.298 75.9421L147.65 75.0242C147.092 74.7143 147.068 74.2017 147.613 73.9037L152.208 71.3408C152.754 71.0309 153.651 71.0428 154.22 71.3646L155.869 72.2825L149.298 75.9421Z"
        fill="#41A3A9" />
    <path
        d="M149.298 75.227L147.516 74.2257C147.152 74.023 146.946 73.725 146.946 73.4151C146.946 73.1051 147.14 72.831 147.479 72.6402L152.074 70.0773C152.705 69.7317 153.699 69.7317 154.341 70.1012L156.402 71.2456L149.298 75.227ZM153.177 70.3515C152.862 70.3515 152.559 70.4111 152.341 70.5422L147.746 73.1051C147.576 73.2005 147.479 73.3197 147.479 73.427C147.479 73.5462 147.588 73.6773 147.782 73.7727L149.298 74.619L155.335 71.2456L154.087 70.5542C153.832 70.423 153.505 70.3515 153.177 70.3515Z"
        fill="#111112" />
    <path d="M156.56 72.6521L159.216 74.1422L152.645 77.8136L149.99 76.3236L156.56 72.6521Z" fill="#41A3A9" />
    <path
        d="M152.644 77.0986L149.443 75.3105L156.548 71.341L159.748 73.1291L152.644 77.0986ZM150.522 75.3105L152.644 76.5026L158.681 73.1291L156.56 71.937L150.522 75.3105Z"
        fill="#111112" />
    <path
        d="M154.972 79.1131L153.336 78.1952L159.906 74.5237L161.543 75.4416C162.101 75.7515 162.125 76.2641 161.579 76.5621L156.985 79.125C156.427 79.435 155.53 79.423 154.972 79.1131Z"
        fill="#41A3A9" />
    <path
        d="M156.002 78.6007C155.59 78.6007 155.166 78.5053 154.839 78.3265L152.802 77.1822L159.906 73.2126L161.664 74.202C162.028 74.4047 162.234 74.7027 162.234 75.0126C162.234 75.3226 162.04 75.5967 161.7 75.7875L157.106 78.3504C156.803 78.5172 156.403 78.6007 156.002 78.6007ZM155.093 77.8735C155.578 78.1477 156.378 78.1477 156.839 77.8974L161.434 75.3345C161.603 75.2391 161.7 75.1199 161.7 75.0126C161.7 74.8934 161.591 74.7623 161.397 74.6669L159.894 73.8325L153.857 77.206L155.093 77.8735Z"
        fill="#111112" />
    <path
        d="M182.42 101.511C183.196 101.952 182.966 102.501 181.947 103.085C180.953 103.657 179.947 103.812 179.171 103.371C178.407 102.942 178.65 102.37 179.656 101.797C180.674 101.213 181.644 101.07 182.42 101.511ZM179.486 103.192C180.092 103.526 180.868 103.395 181.656 102.93C182.481 102.465 182.687 102.036 182.093 101.69C181.487 101.356 180.735 101.476 179.923 101.952C179.122 102.405 178.88 102.846 179.486 103.192Z"
        fill="#111112" />
    <path
        d="M179.862 100.069C180.638 100.51 180.407 101.059 179.389 101.643C178.395 102.215 177.389 102.37 176.625 101.929C175.861 101.5 176.104 100.927 177.11 100.355C178.116 99.7712 179.086 99.6401 179.862 100.069ZM176.928 101.75C177.534 102.084 178.31 101.953 179.098 101.488C179.922 101.023 180.129 100.594 179.534 100.248C178.928 99.9142 178.177 100.033 177.364 100.51C176.564 100.975 176.334 101.416 176.928 101.75Z"
        fill="#111112" />
    <path
        d="M177.304 98.6388C178.08 99.0799 177.85 99.6282 176.831 100.212C175.837 100.784 174.831 100.939 174.055 100.498C173.291 100.069 173.534 99.4971 174.54 98.9249C175.558 98.3408 176.528 98.1977 177.304 98.6388ZM174.37 100.32C174.976 100.653 175.752 100.522 176.54 100.057C177.365 99.5924 177.571 99.1633 176.977 98.8176C176.371 98.4838 175.619 98.603 174.807 99.0799C174.019 99.5328 173.776 99.9739 174.37 100.32Z"
        fill="#111112" />
    <path
        d="M174.745 97.2083C175.521 97.6494 175.291 98.1977 174.272 98.7818C173.278 99.354 172.272 99.509 171.496 99.0679C170.732 98.6388 170.975 98.0666 171.981 97.4944C172.999 96.8984 173.969 96.7673 174.745 97.2083ZM171.824 98.8772C172.43 99.211 173.206 99.0798 173.994 98.6149C174.818 98.15 175.024 97.7209 174.43 97.3752C173.824 97.0414 173.084 97.1606 172.26 97.6375C171.46 98.1024 171.217 98.5434 171.824 98.8772Z"
        fill="#111112" />
    <path
        d="M171.048 95.1224C171.824 95.5634 171.594 96.1118 170.575 96.6959C169.581 97.268 168.575 97.423 167.799 96.9819C167.035 96.5528 167.278 95.9806 168.284 95.4084C169.302 94.8243 170.272 94.6932 171.048 95.1224ZM168.114 96.8031C168.72 97.1369 169.496 97.0058 170.284 96.5409C171.109 96.076 171.315 95.6469 170.721 95.3012C170.115 94.9674 169.363 95.0866 168.551 95.5634C167.763 96.0164 167.52 96.4694 168.114 96.8031Z"
        fill="#111112" />
    <path
        d="M168.49 93.6919C169.266 94.133 169.036 94.6813 168.017 95.2654C167.023 95.8376 166.017 95.9926 165.241 95.5515C164.477 95.1224 164.72 94.5502 165.726 93.978C166.744 93.3939 167.714 93.2509 168.49 93.6919ZM165.568 95.3608C166.175 95.6945 166.95 95.5634 167.738 95.0985C168.563 94.6336 168.769 94.2045 168.175 93.8588C167.569 93.525 166.817 93.6442 166.005 94.121C165.205 94.5859 164.962 95.027 165.568 95.3608Z"
        fill="#111112" />
    <path
        d="M165.932 92.2493C166.708 92.6784 166.477 93.2387 165.459 93.8228C164.465 94.395 163.459 94.55 162.695 94.1089C161.931 93.6798 162.174 93.1076 163.18 92.5354C164.186 91.9513 165.156 91.8202 165.932 92.2493ZM163.01 93.9301C163.616 94.2639 164.392 94.1327 165.18 93.6678C166.005 93.2029 166.211 92.7738 165.617 92.4281C165.01 92.0943 164.259 92.2135 163.447 92.6904C162.646 93.1553 162.404 93.5963 163.01 93.9301Z"
        fill="#111112" />
    <path
        d="M163.374 90.8189C164.15 91.2599 163.919 91.8083 162.901 92.3924C161.907 92.9645 160.901 93.1195 160.137 92.6784C159.373 92.2493 159.616 91.6771 160.622 91.105C161.64 90.5208 162.61 90.3778 163.374 90.8189ZM160.452 92.4996C161.058 92.8334 161.834 92.7023 162.622 92.2374C163.447 91.7725 163.653 91.3434 163.059 90.9977C162.465 90.652 161.701 90.7831 160.889 91.2599C160.088 91.7129 159.846 92.154 160.452 92.4996Z"
        fill="#111112" />
    <path
        d="M159.677 88.7327C160.453 89.1618 160.222 89.7221 159.204 90.3062C158.21 90.8784 157.204 91.0334 156.428 90.5923C155.664 90.1632 155.907 89.591 156.913 89.0188C157.931 88.4347 158.901 88.3036 159.677 88.7327ZM156.755 90.4135C157.361 90.7473 158.137 90.6161 158.925 90.1512C159.75 89.6863 159.956 89.2572 159.362 88.9115C158.755 88.5777 158.004 88.6969 157.192 89.1738C156.391 89.6387 156.149 90.0797 156.755 90.4135Z"
        fill="#111112" />
    <path
        d="M157.119 87.3023C157.895 87.7433 157.664 88.2917 156.646 88.8758C155.652 89.4479 154.645 89.6029 153.882 89.1618C153.118 88.7327 153.36 88.1605 154.367 87.5883C155.373 87.0042 156.355 86.8612 157.119 87.3023ZM154.197 88.983C154.803 89.3168 155.579 89.1857 156.367 88.7208C157.191 88.2559 157.397 87.8268 156.803 87.4811C156.197 87.1473 155.446 87.2665 154.633 87.7433C153.833 88.1963 153.591 88.6373 154.197 88.983Z"
        fill="#111112" />
    <path
        d="M154.573 85.8601C155.349 86.3011 155.118 86.8495 154.1 87.4336C153.106 88.0058 152.1 88.1607 151.324 87.7197C150.56 87.2905 150.802 86.7184 151.809 86.1462C152.827 85.5621 153.797 85.4309 154.573 85.8601ZM151.639 87.5409C152.245 87.8746 153.021 87.7435 153.809 87.2786C154.633 86.8137 154.839 86.3846 154.245 86.0389C153.639 85.7051 152.888 85.8243 152.075 86.3011C151.275 86.766 151.033 87.2071 151.639 87.5409Z"
        fill="#111112" />
    <path
        d="M152.014 84.4296C152.79 84.8706 152.56 85.419 151.542 86.0031C150.548 86.5753 149.541 86.7302 148.778 86.2892C148.014 85.86 148.256 85.2878 149.262 84.7157C150.269 84.1316 151.239 83.9885 152.014 84.4296ZM149.081 86.1104C149.687 86.4441 150.463 86.313 151.251 85.8481C152.075 85.3832 152.281 84.9541 151.687 84.6084C151.081 84.2746 150.341 84.3938 149.517 84.8706C148.717 85.3236 148.487 85.7647 149.081 86.1104Z"
        fill="#111112" />
    <path
        d="M148.317 82.3435C149.093 82.7845 148.862 83.3329 147.844 83.917C146.85 84.4892 145.843 84.6441 145.068 84.2031C144.304 83.7739 144.546 83.2018 145.553 82.6296C146.571 82.0455 147.541 81.9144 148.317 82.3435ZM145.383 84.0243C145.989 84.358 146.765 84.2269 147.553 83.762C148.377 83.2971 148.583 82.868 147.989 82.5223C147.383 82.1885 146.632 82.3077 145.819 82.7845C145.019 83.2494 144.777 83.6905 145.383 84.0243Z"
        fill="#111112" />
    <path
        d="M145.76 80.913C146.535 81.3541 146.305 81.9024 145.287 82.4865C144.293 83.0587 143.286 83.2137 142.51 82.7726C141.747 82.3435 141.989 81.7713 142.995 81.1991C144.014 80.615 144.984 80.472 145.76 80.913ZM142.826 82.5938C143.432 82.9276 144.208 82.7965 144.996 82.3316C145.82 81.8667 146.026 81.4375 145.432 81.0918C144.826 80.7581 144.074 80.8773 143.262 81.3541C142.462 81.8071 142.232 82.2481 142.826 82.5938Z"
        fill="#111112" />
    <path
        d="M143.201 79.4826C143.977 79.9237 143.747 80.472 142.728 81.0561C141.734 81.6283 140.728 81.7833 139.964 81.3422C139.201 80.9131 139.443 80.3409 140.449 79.7687C141.456 79.1727 142.425 79.0416 143.201 79.4826ZM140.267 81.1515C140.874 81.4853 141.649 81.3541 142.437 80.8892C143.262 80.4243 143.468 79.9952 142.874 79.6495C142.268 79.3157 141.516 79.4349 140.704 79.9118C139.916 80.3767 139.673 80.8177 140.267 81.1515Z"
        fill="#111112" />
    <path
        d="M140.643 78.0402C141.419 78.4813 141.188 79.0296 140.17 79.6137C139.176 80.1859 138.17 80.3408 137.394 79.8998C136.63 79.4707 136.872 78.8985 137.879 78.3263C138.897 77.7422 139.867 77.6111 140.643 78.0402ZM137.721 79.721C138.327 80.0548 139.103 79.9236 139.891 79.4587C140.716 78.9938 140.922 78.5647 140.328 78.219C139.721 77.8852 138.97 78.0044 138.158 78.4813C137.357 78.9342 137.115 79.3753 137.721 79.721Z"
        fill="#111112" />
    <path
        d="M189.003 95.1221L180.505 90.2943C178.492 89.1499 178.735 87.1473 181.074 85.8241L188.433 81.64C190.761 80.3169 194.289 80.1738 196.301 81.3182L204.8 86.146C206.812 87.2903 206.57 89.293 204.23 90.6161L196.871 94.8002C194.544 96.1234 191.028 96.2664 189.003 95.1221Z"
        fill="#41A3A9" />
    <path
        d="M192.422 95.0865C191.088 95.0865 189.815 94.8243 188.87 94.2879L180.371 89.4601C179.401 88.9117 178.88 88.1369 178.88 87.2906C178.88 86.2892 179.632 85.276 180.941 84.5369L188.3 80.3529C190.7 78.9939 194.349 78.8509 196.435 80.031L204.933 84.8588C205.891 85.4071 206.424 86.17 206.424 87.0283C206.424 88.0415 205.673 89.0429 204.363 89.7819L197.004 93.966C195.707 94.7051 194.022 95.0865 192.422 95.0865ZM192.895 79.7449C191.391 79.7449 189.815 80.1025 188.579 80.8058L181.22 84.9899C180.08 85.6336 179.425 86.48 179.425 87.2906C179.425 87.9462 179.862 88.5541 180.65 89.0071L189.148 93.823C191.088 94.9316 194.495 94.7766 196.75 93.5011L204.109 89.317C205.248 88.6733 205.903 87.827 205.903 87.0164C205.903 86.3608 205.467 85.7528 204.679 85.2998L196.18 80.4721C195.307 79.9952 194.131 79.7449 192.895 79.7449Z"
        fill="#111112" />
    <path
        d="M184.59 91.1649L182.456 89.961C181.184 89.2457 181.341 87.9822 182.808 87.1477L184.226 86.3491C185.693 85.5146 187.912 85.4312 189.173 86.1464L191.307 87.3504C192.58 88.0656 192.422 89.3292 190.955 90.1636L189.537 90.9623C188.07 91.7967 185.863 91.8921 184.59 91.1649Z"
        fill="#A2D0D2" />
    <path
        d="M186.736 90.8192C185.887 90.8192 185.063 90.6523 184.457 90.3066L182.335 89.1026C181.692 88.745 181.341 88.2325 181.341 87.6603C181.341 86.9927 181.826 86.3252 182.687 85.8484L184.105 85.0497C185.645 84.1795 187.984 84.0841 189.318 84.847L191.44 86.051C192.082 86.4086 192.434 86.9212 192.434 87.4934C192.434 88.1609 191.949 88.8285 191.088 89.3053L189.67 90.104C188.833 90.5689 187.754 90.8073 186.736 90.8192ZM187.039 84.8232C186.117 84.8232 185.135 85.0497 184.372 85.4788L182.953 86.2775C182.262 86.6709 181.874 87.1596 181.874 87.6364C181.874 88.0179 182.129 88.3636 182.602 88.6258L184.735 89.8298C185.923 90.5093 188.033 90.4139 189.415 89.6272L190.833 88.8285C191.525 88.4351 191.912 87.9464 191.912 87.4696C191.912 87.0881 191.658 86.7424 191.185 86.4802L189.063 85.2762C188.518 84.9663 187.79 84.8232 187.039 84.8232Z"
        fill="#111112" />
</svg>