<svg width="22" height="19" viewBox="0 0 22 19" fill="none" xmlns="http://www.w3.org/2000/svg">
<path fill-rule="evenodd" clip-rule="evenodd" d="M14.0215 0.343645C14.5299 0.256563 15.0992 0.227487 15.635 0.318129C16.5918 0.480012 17.4757 0.924741 18.1744 1.5915C18.6311 1.60183 19.0799 1.51186 19.477 1.38359C19.8131 1.27504 20.097 1.14397 20.296 1.04033C20.3949 0.988803 20.4713 0.944845 20.521 0.915085C20.5458 0.900229 20.5638 0.888984 20.5745 0.882193L20.5841 0.876132C20.8809 0.678404 21.2761 0.716887 21.529 0.968393C21.7819 1.21996 21.8226 1.61488 21.6264 1.91278C21.4187 2.22807 21.1303 2.79015 20.8073 3.4199C20.7565 3.51892 20.7048 3.61962 20.6525 3.72129C20.4672 4.08125 20.2772 4.44507 20.1001 4.7572C19.9889 4.95318 19.87 5.15216 19.7501 5.3241V5.59788C19.7577 6.6035 19.6424 7.60389 19.4083 8.57711C19.261 9.18945 19.0667 9.79104 18.8265 10.3764C18.2041 11.8931 17.2857 13.2705 16.1249 14.4283C14.9642 15.586 13.5844 16.5009 12.0662 17.1194C10.5492 17.7374 8.9245 18.0472 7.28665 18.0308C4.91234 18.0328 2.58798 17.3488 0.593255 16.0608C0.299454 15.8711 0.175755 15.5036 0.295092 15.1748C0.414428 14.8461 0.745121 14.6435 1.09219 14.6864C1.39255 14.7236 1.69496 14.7418 1.99762 14.7408C3.08507 14.7377 4.15181 14.4975 5.12567 14.0448C4.81612 13.9039 4.52058 13.7301 4.24443 13.5254C3.43271 12.9235 2.8288 12.0835 2.51673 11.1224C2.43564 10.8726 2.49108 10.5986 2.66289 10.4001C2.66597 10.3965 2.66908 10.393 2.67221 10.3895C2.48869 10.2258 2.31696 10.0477 2.15886 9.85602C1.44754 8.99382 1.05587 7.91239 1.05009 6.79465L1.05007 6.79077L1.05008 6.74077C1.05008 6.47491 1.19083 6.22891 1.42003 6.09419C1.47813 6.06004 1.53972 6.03433 1.60307 6.01709C1.26473 5.34201 1.08879 4.59656 1.09007 3.84031C1.08968 2.98354 1.31347 2.14157 1.73923 1.39807C1.86214 1.18343 2.08297 1.0432 2.3295 1.02322C2.57603 1.00324 2.81656 1.1061 2.97242 1.29814C3.93498 2.48416 5.13626 3.45441 6.49825 4.14588C7.19839 4.50134 7.93294 4.77903 8.68874 4.97547C9.11247 5.0856 9.54288 5.17018 9.97765 5.22861C9.9585 4.50535 10.1013 3.78248 10.4011 3.11455C10.8407 2.13473 11.5932 1.32855 12.5404 0.822456C12.9416 0.608128 13.4741 0.437416 14.0215 0.343645ZM2.74335 7.89114C2.873 8.25603 3.06586 8.59835 3.31592 8.90145C3.80724 9.49699 4.48919 9.90455 5.24641 10.0552C5.58369 10.1223 5.83213 10.4102 5.84916 10.7536C5.86618 11.0971 5.64743 11.4082 5.31843 11.5083C5.04594 11.5912 4.76676 11.649 4.48441 11.6811C4.67099 11.9216 4.89047 12.137 5.13787 12.3205C5.69906 12.7366 6.376 12.9675 7.07451 12.9809C7.39143 12.987 7.6703 13.1917 7.77112 13.4922C7.87195 13.7927 7.77296 14.1242 7.52386 14.3202C6.47469 15.1457 5.26149 15.7214 3.97594 16.0153C5.04142 16.3565 6.15887 16.5321 7.28916 16.5308L7.29786 16.5308C8.73792 16.5457 10.1665 16.2736 11.5002 15.7303C12.8339 15.1869 14.046 14.3833 15.0656 13.3663C16.0853 12.3492 16.892 11.1392 17.4388 9.80693C17.6498 9.2927 17.8205 8.76424 17.9499 8.22633C18.1557 7.37057 18.257 6.4909 18.2501 5.60663L18.2501 5.60077V5.07077C18.2501 4.88892 18.3161 4.71326 18.436 4.57649C18.5053 4.49744 18.6264 4.31489 18.7955 4.01699C18.9561 3.73386 19.1339 3.39395 19.3188 3.03477C19.33 3.01305 19.3412 2.99121 19.3525 2.96928C18.8729 3.07342 18.3293 3.12801 17.7595 3.06643C17.579 3.04692 17.4118 2.96264 17.2887 2.8292C16.7858 2.28386 16.1162 1.92085 15.3848 1.79711C15.0602 1.74221 14.6679 1.75478 14.2748 1.82211C13.8477 1.89527 13.476 2.02329 13.2473 2.14546C12.593 2.49503 12.0733 3.05188 11.7696 3.72866C11.4659 4.40545 11.3954 5.16389 11.5692 5.88505C11.6246 6.11496 11.5683 6.35754 11.4174 6.53957C11.2664 6.7216 11.0384 6.82176 10.8022 6.80981C9.95877 6.76715 9.12429 6.6385 8.31142 6.42723C7.45152 6.20374 6.61579 5.8878 5.81921 5.48338C4.64643 4.88797 3.57838 4.11088 2.65354 3.18319C2.61135 3.3988 2.58993 3.61883 2.59008 3.84027L2.59007 3.84219C2.58903 4.39291 2.72418 4.93534 2.98349 5.42119C3.2428 5.90704 3.61822 6.32123 4.07633 6.62689C4.35436 6.81239 4.47608 7.15947 4.37483 7.47798C4.27358 7.7965 3.97378 8.00958 3.63968 8.00049C3.33708 7.99226 3.03702 7.95546 2.74335 7.89114Z" fill="#A2D0D2"/>
</svg>
