<svg width="32" height="32" viewBox="0 0 32 32" fill="none" xmlns="http://www.w3.org/2000/svg">
<path d="M7.97012 1.26316L7.3792 6.06316H2.60499C1.91111 6.06316 1.27899 6.62869 1.19311 7.32632L0.809523 10.4421C0.723639 11.1397 1.21651 11.7053 1.91039 11.7053H20.8397L20.4769 14.6526C20.391 15.3503 20.8839 15.9158 21.5777 15.9158H24.6768C25.3707 15.9158 26.0028 15.3503 26.0887 14.6526L26.9906 7.32632C27.0765 6.62869 26.5836 6.06316 25.8897 6.06316H12.991L13.5819 1.26316C13.6678 0.565535 13.1749 0 12.4811 0H9.382C8.68813 0 8.05601 0.565535 7.97012 1.26316Z" fill="#41A3A9"/>
<path d="M24.1086 30.7368L24.6995 25.9368H29.4737C30.1676 25.9368 30.7997 25.3713 30.8856 24.6737L31.2692 21.5579C31.3551 20.8603 30.8622 20.2947 30.1683 20.2947L11.239 20.2947L11.6018 17.3474C11.6877 16.6497 11.1948 16.0842 10.501 16.0842H7.40192C6.70804 16.0842 6.07592 16.6497 5.99004 17.3474L5.08809 24.6737C5.00221 25.3713 5.49509 25.9368 6.18896 25.9368L19.0877 25.9368L18.4968 30.7368C18.4109 31.4345 18.9038 32 19.5976 32H22.6967C23.3906 32 24.0227 31.4345 24.1086 30.7368Z" fill="#41A3A9"/>
</svg>
