<svg width="24" height="24" viewBox="0 0 24 24" fill="none" xmlns="http://www.w3.org/2000/svg">
    <path
        d="M5.00055 19.4999C5.19055 19.4999 5.38055 19.4299 5.53055 19.2799L19.5305 5.27994C19.8205 4.98994 19.8205 4.50994 19.5305 4.21994C19.2405 3.92994 18.7605 3.92994 18.4705 4.21994L4.47055 18.2199C4.18055 18.5099 4.18055 18.9899 4.47055 19.2799C4.62055 19.4299 4.81055 19.4999 5.00055 19.4999Z"
        fill="currentColor" />
    <path
        d="M19 15.77C19.41 15.77 19.75 15.43 19.75 15.02V4.75C19.75 4.34 19.41 4 19 4H8.73C8.32 4 7.98 4.34 7.98 4.75C7.98 5.16 8.32 5.5 8.73 5.5H18.25V15.02C18.25 15.43 18.59 15.77 19 15.77Z"
        fill="currentColor" />
</svg>