<svg viewBox="0 0 168 40" fill="none" xmlns="http://www.w3.org/2000/svg">
    <path
        d="M8.963 1.579l-.739 6H2.256C1.39 7.579.6 8.286.492 9.158l-.48 3.895c-.107.872.509 1.579 1.376 1.579H25.05l-.454 3.684c-.107.872.51 1.579 1.376 1.579h3.874c.868 0 1.658-.707 1.765-1.58l1.128-9.157c.107-.872-.51-1.579-1.377-1.579H15.24l.739-6C16.085.707 15.468 0 14.602 0h-3.874C9.86 0 9.07.707 8.963 1.579zM29.136 38.421l.739-6h5.967c.868 0 1.658-.707 1.765-1.579l.48-3.895c.107-.872-.509-1.579-1.376-1.579H13.049l.454-3.684c.107-.872-.51-1.579-1.377-1.579H8.253c-.868 0-1.658.707-1.765 1.58L5.36 30.841c-.107.872.51 1.579 1.376 1.579H22.86l-.739 6c-.107.872.509 1.579 1.376 1.579h3.874c.867 0 1.658-.707 1.765-1.579zM49.568 31.429c-.765 0-1.381-.713-1.27-1.469l2.392-16.186h-5.195c-1.168 0-2.1-1.107-1.895-2.254l.277-1.563a1.663 1.663 0 011.658-1.385h16.354c1.168 0 2.1 1.107 1.895 2.254l-.278 1.563a1.662 1.662 0 01-1.657 1.385h-5.861l-2.333 16.212a1.664 1.664 0 01-1.667 1.443h-2.42z"
        fill="#41A3A9" />
    <path fill-rule="evenodd" clip-rule="evenodd"
        d="M63.77 31.429c-.774 0-1.393-.73-1.265-1.492l3.351-19.964a1.663 1.663 0 011.66-1.401h16.737c1.165 0 2.095 1.103 1.896 2.248l-3.354 19.218a1.663 1.663 0 01-1.659 1.39h-2.423c-.777 0-1.398-.735-1.264-1.499l.843-4.812-9.599.017-.863 4.906a1.663 1.663 0 01-1.657 1.389H63.77zm15.431-11.465l1.085-6.156h-9.11a.61.61 0 00-.379.154.71.71 0 00-.226.41l-.972 5.526 9.602.066z"
        fill="#41A3A9" />
    <path
        d="M85.93 25.56c-.213 1.547.208 2.912 1.264 4.095 1.067 1.182 2.388 1.774 3.963 1.774h11.085c2.34 0 3.866-1.263 4.578-3.787.124-.682.238-1.348.342-1.996.387-2.289.725-4.297 1.013-6.024.19-1.141-.738-2.232-1.896-2.232H95.597c-.843 0-1.535.593-1.664 1.425l-.358 2.319c-.117.757.5 1.476 1.268 1.476h7.194l-.512 3.02c0 .17-.064.306-.192.409a.548.548 0 01-.361.153h-8.74a.7.7 0 01-.539-.239.705.705 0 01-.189-.563l1.828-11.019a.754.754 0 01.26-.41.61.61 0 01.378-.153h13.746c.834 0 1.52-.579 1.659-1.398l.272-1.598c.194-1.143-.735-2.24-1.898-2.24H92.683c-2.329 0-3.85 1.262-4.562 3.786l-2.19 13.203zM110.059 31.429c-.787 0-1.41-.753-1.26-1.523l3.91-19.98a1.664 1.664 0 011.654-1.354h2.042c.731 0 1.315.69 1.19 1.41l-3.47 20.054a1.663 1.663 0 01-1.659 1.393h-2.407z"
        fill="#41A3A9" />
    <path fill-rule="evenodd" clip-rule="evenodd"
        d="M119.2 12.358c.825-2.524 2.469-3.786 4.933-3.786h11.692c1.665 0 3.053.59 4.165 1.774 1.124 1.182 1.573 2.547 1.348 4.093l.001.017-.054.205a4.569 4.569 0 01-.05.273 8.616 8.616 0 01-.07.478l-.124.682c-.049.273-.107.597-.172.972-.066.376-.145.808-.236 1.297a176.48 176.48 0 01-.651 3.718c-.131.762-.278 1.61-.442 2.542-.153.92-.329 1.927-.528 3.019-.723 2.524-2.362 3.787-4.915 3.787h-11.608c-1.71 0-3.121-.592-4.233-1.774-1.112-1.183-1.567-2.548-1.364-4.094l-.005-.068c.009-.034.017-.08.025-.137.018-.068.034-.165.048-.29.026-.125.055-.278.088-.46.044-.194.085-.427.123-.7a138.302 138.302 0 00.392-2.269c.092-.488.191-1.04.297-1.654.117-.614.241-1.302.371-2.064s.278-1.603.442-2.524c.164-.933.34-1.945.527-3.037zm13.559 13.834c.349 0 .573-.188.672-.563l-.003-.051a.532.532 0 00.025-.12l.035-.238c.028-.103.053-.228.077-.375a51.132 51.132 0 01.246-1.399c.059-.307.12-.666.183-1.075.074-.41.157-.87.247-1.381.09-.524.192-1.104.308-1.74.116-.637.239-1.337.369-2.099.141-.773.294-1.62.458-2.541a.731.731 0 00-.172-.563c-.134-.16-.33-.239-.589-.239h-9.145c-.36 0-.583.188-.671.563l.001.017-.015.034a.358.358 0 01-.026.12 8.193 8.193 0 01-.11.63l-.098.58c-.041.228-.091.495-.15.803a41.37 41.37 0 01-.182 1.074c-.064.41-.146.876-.246 1.399a412.63 412.63 0 01-.31 1.723c-.104.636-.227 1.341-.367 2.115-.131.762-.278 1.603-.443 2.524a.683.683 0 00.206.563c.156.16.342.239.555.239h9.145z"
        fill="#41A3A9" />
    <path
        d="M142.672 31.429c-1.163 0-2.092-1.098-1.898-2.241l3.269-19.218c.14-.82.827-1.398 1.66-1.398h2.843c.621 0 1.22.324 1.584.857l9.551 14.017 2.266-13.473a1.662 1.662 0 011.66-1.401h1.653c1.171 0 2.102 1.112 1.894 2.26l-3.496 19.218a1.663 1.663 0 01-1.656 1.379h-1.778c-.81 0-1.54-.589-1.732-1.395L148.437 15.36l-2.429 14.662a1.662 1.662 0 01-1.66 1.406h-1.676z"
        fill="#41A3A9" />
</svg>