<svg width="180" height="136" fill="none" xmlns="http://www.w3.org/2000/svg">
    <g clip-path="url(#a)">
        <g opacity=".3" stroke="#41A3A9">
            <path transform="scale(-1.22477 -.70707) rotate(-45 -57.007 80.064)" d="M0-.5h112.165" />
            <path transform="matrix(-.86604 -.49997 .86604 -.49997 186.927 68)" d="M0-.5h112.164" />
            <path transform="scale(-1.22477 -.70707) rotate(-45 -67.42 84.377)" d="M0-.5h112.165" />
            <path transform="scale(-1.22477 -.70707) rotate(45 50.193 -228.004)" d="M0-.5h112.164" />
            <path transform="scale(-1.22477 -.70707) rotate(-45 -77.835 88.691)" d="M0-.5h112.165" />
            <path transform="scale(-1.22477 -.70707) rotate(45 60.61 -223.69)" d="M0-.5h112.164" />
            <path transform="scale(-1.22477 -.70707) rotate(-45 -88.251 93.005)" d="M0-.5h112.165" />
            <path transform="scale(-1.22477 -.70707) rotate(45 71.023 -219.376)" d="M0-.5h112.164" />
            <path transform="scale(-1.22477 -.70707) rotate(-45 -98.666 97.32)" d="M0-.5h112.165" />
            <path transform="scale(-1.22477 -.70707) rotate(45 81.438 -215.061)" d="M0-.5h112.164" />
            <path transform="scale(-1.22477 -.70707) rotate(-45 -109.08 101.634)" d="M0-.5h112.165" />
            <path transform="scale(-1.22477 -.70707) rotate(45 91.854 -210.748)" d="M0-.5h112.164" />
            <path transform="scale(-1.22477 -.70707) rotate(-45 -119.497 105.948)" d="M0-.5h112.165" />
            <path transform="scale(-1.22477 -.70707) rotate(45 102.268 -206.434)" d="M0-.5h112.164" />
            <path transform="scale(-1.22477 -.70707) rotate(-45 -129.911 110.262)" d="M0-.5h112.165" />
            <path transform="scale(-1.22477 -.70707) rotate(45 112.683 -202.12)" d="M0-.5h112.164" />
            <path transform="scale(-1.22477 -.70707) rotate(-45 -140.326 114.576)" d="M0-.5h112.165" />
            <path transform="scale(-1.22477 -.70707) rotate(45 123.098 -197.805)" d="M0-.5h112.164" />
            <path transform="scale(-1.22477 -.70707) rotate(-45 -150.741 118.89)" d="M0-.5h112.165" />
            <path transform="scale(-1.22477 -.70707) rotate(45 133.513 -193.492)" d="M0-.5h112.164" />
            <path transform="scale(-1.22477 -.70707) rotate(-45 -161.156 123.204)" d="M0-.5h112.165" />
            <path transform="scale(-1.22477 -.70707) rotate(45 143.929 -189.177)" d="M0-.5h112.164" />
            <path transform="scale(-1.22477 -.70707) rotate(-45 -171.57 127.517)" d="M0-.5h112.165" />
            <path transform="scale(-1.22477 -.70707) rotate(45 154.342 -184.863)" d="M0-.5h112.164" />
            <path transform="scale(-1.22477 -.70707) rotate(-45 -181.987 131.832)" d="M0-.5h112.165" />
            <path transform="scale(-1.22477 -.70707) rotate(45 164.76 -180.55)" d="M0-.5h112.164" />
            <path transform="matrix(-.86604 .49997 -.86604 -.49997 186.927 68)" d="M0-.5h112.165" />
            <path transform="scale(-1.22477 -.70707) rotate(45 175.173 -176.235)" d="M0-.5h112.164" />
        </g>
        <g clip-path="url(#b)">
            <path d="M64.976 82.061 54.6 66.295 80.706 51.26l10.387 15.766L64.976 82.06Z" fill="#41A3A9" />
            <path d="M64.434 85.058 54.058 69.302l26.106-15.035L90.55 70.033 64.434 85.058Z" fill="#A2D0D2" />
            <path
                d="M64.923 82.294 54.345 66.242l26.414-15.205L91.348 67.09 64.923 82.294Zm-10.08-15.935L65.03 81.828l25.81-14.855-10.197-15.47-25.798 14.856Z"
                fill="#111112" />
            <path d="m117.338 82.146 10.387-15.766-26.106-15.024L91.221 67.11l26.117 15.035Z" fill="#41A3A9" />
            <path d="m117.858 85.058 10.377-15.756-26.107-15.035-10.387 15.766 26.117 15.025Z" fill="#A2D0D2" />
            <path
                d="M117.401 82.379 90.977 67.174l10.589-16.052 26.403 15.205-.106.159-10.462 15.893ZM91.476 67.058l25.809 14.855 10.185-15.47-25.798-14.855-10.196 15.47Z"
                fill="#111112" />
            <path d="M65.114 82.145v27.827l26.117 15.035V97.181L65.114 82.146Z" fill="#41A3A9" />
            <path
                d="M91.231 96.98 64.934 81.84v28.228l26.297 15.131 26.202-15.088.085-.053V81.839L91.231 96.98Zm-25.947 12.897V82.453L91.05 97.287v27.424l-25.766-14.834Z"
                fill="#111112" />
            <path
                d="m100.576 99.29-.286 2.843-2.306 1.328c-.335.193-.64.684-.682 1.097l-.185 1.846c-.042.414.196.592.531.399l9.144-5.264-.176 1.746c-.041.413.197.592.532.399l1.497-.862c.335-.193.641-.684.682-1.098l.436-4.34c.041-.413-.197-.592-.532-.399l-6.23 3.587.285-2.844c.042-.413-.196-.591-.531-.398l-1.497.861c-.335.193-.641.685-.682 1.098ZM108.37 111.253l.286-2.843 2.306-1.328c.335-.193.64-.684.682-1.098l.185-1.846c.042-.413-.196-.592-.532-.399l-9.143 5.265.176-1.747c.041-.413-.197-.591-.532-.398l-1.497.861c-.335.193-.64.685-.682 1.098l-.436 4.341c-.041.413.197.591.532.399l6.23-3.588-.285 2.844c-.042.413.196.592.531.399l1.497-.862c.335-.193.641-.684.682-1.098ZM117.348 82.146 91.231 97.18 65.114 82.146 91.231 67.11l26.117 15.036Z"
                fill="#41A3A9" />
            <path
                d="M91.23 97.382 64.754 82.146 91.23 66.909l.085.053 26.382 15.184-26.467 15.236ZM65.476 82.146l25.756 14.823 25.756-14.823-25.756-14.824-25.756 14.824Z"
                fill="#111112" />
            <path d="M91.22 67.11 64.753 82.146l26.393 15.183.276-.148-.202.18v-30.25Z" fill="#111112" />
            <g clip-path="url(#c)">
                <path
                    d="M101.311 91.947c-1.299-2.229-4.757-3.821-8.834-3.821s-7.535 1.598-8.834 3.82h-.557v1.945c0 3.184 4.206 5.765 9.39 5.765 5.191 0 9.392-2.581 9.392-5.765v-1.944h-.557Z"
                    fill="#41A3A9" />
                <path
                    d="M92.477 99.807c-5.263 0-9.542-2.653-9.542-5.916v-2.095h.624c1.394-2.29 4.96-3.82 8.918-3.82 3.96 0 7.524 1.53 8.919 3.82h.624v2.095c0 3.263-4.28 5.916-9.543 5.916Zm-9.244-7.709v1.793c0 3.1 4.144 5.62 9.244 5.62s9.245-2.52 9.245-5.62v-1.793h-.495l-.045-.073c-1.31-2.24-4.808-3.748-8.705-3.748-3.897 0-7.394 1.508-8.705 3.748l-.044.073h-.495Z"
                    fill="#111112" />
                <path
                    d="M92.477 97.712c5.186 0 9.391-2.582 9.391-5.766 0-3.183-4.205-5.764-9.391-5.764-5.187 0-9.391 2.58-9.391 5.764s4.204 5.766 9.39 5.766Z"
                    fill="#41A3A9" />
                <path
                    d="M101.868 92.405c0 3.184-4.206 5.764-9.391 5.764-5.19 0-9.391-2.58-9.391-5.764s4.206-5.765 9.39-5.765c5.191 0 9.392 2.58 9.392 5.765Z"
                    fill="#A2D0D2" />
                <path
                    d="M92.477 97.863c-5.263 0-9.542-2.654-9.542-5.916 0-3.262 4.279-5.916 9.542-5.916 5.264 0 9.543 2.654 9.543 5.916 0 3.262-4.28 5.916-9.543 5.916Zm0-11.53c-5.094 0-9.244 2.52-9.244 5.62s4.144 5.62 9.244 5.62 9.245-2.52 9.245-5.62-4.15-5.62-9.245-5.62Z"
                    fill="#111112" />
                <path
                    d="M92.477 96.03c4.143 0 7.502-1.943 7.502-4.34s-3.359-4.34-7.502-4.34-7.501 1.943-7.501 4.34 3.358 4.34 7.501 4.34Z"
                    fill="#41A3A9" />
                <path
                    d="M92.478 96.175c-4.218 0-7.654-2.01-7.654-4.485 0-2.475 3.43-4.486 7.654-4.486 4.217 0 7.653 2.011 7.653 4.486 0 2.474-3.436 4.486-7.653 4.486Zm0-8.675c-4.055 0-7.35 1.877-7.35 4.19 0 2.312 3.295 4.19 7.35 4.19 4.054 0 7.35-1.878 7.35-4.19 0-2.313-3.296-4.19-7.35-4.19Z"
                    fill="#111112" />
                <path
                    d="M92.477 87.35c-4.144 0-7.501 1.944-7.501 4.34 0 .218.033.425.09.631.528-2.094 3.644-3.709 7.411-3.709 3.768 0 6.883 1.609 7.412 3.71.05-.207.09-.42.09-.632 0-2.396-3.358-4.34-7.502-4.34Z"
                    fill="#41A3A9" />
                <path
                    d="m99.8 92.629-.057-.274c-.517-2.05-3.644-3.592-7.265-3.592-3.622 0-6.748 1.548-7.266 3.592l-.084.33-.208-.33a2.785 2.785 0 0 1-.096-.67c0-2.475 3.43-4.486 7.654-4.486 4.217 0 7.653 2.011 7.653 4.486 0 .201-.028.413-.09.67l-.242.274Zm-7.322-5.128c-4.055 0-7.35 1.877-7.35 4.19v.027c.916-1.916 3.869-3.25 7.35-3.25 3.48 0 6.433 1.334 7.35 3.25v-.028c0-2.312-3.296-4.19-7.35-4.19Z"
                    fill="#111112" />
                <path
                    d="M91.234 87.45v1.224l-2.097.396-2.058.877-1.485 1.29-.528 1.084-.09-1.083.635-1.29 1.125-1.051 1.861-.922 2.278-.525h.36Z"
                    fill="#111112" />
                <path
                    d="m88 91.844.849.624-.964.552c-.14.08-.153.22-.03.31l.551.405c.124.09.338.099.478.019l3.82-2.19.522.382c.123.09.337.1.477.019l.625-.359c.14-.08.154-.219.03-.31l-1.297-.952a.475.475 0 0 0-.477-.018l-2.603 1.492-.85-.623a.475.475 0 0 0-.476-.02l-.626.36c-.14.08-.153.218-.03.309ZM97.205 93.387l-.85-.624.964-.552c.14-.08.153-.22.03-.31l-.552-.405a.475.475 0 0 0-.477-.018l-3.82 2.19-.522-.383a.475.475 0 0 0-.477-.019l-.625.359c-.14.08-.154.219-.03.31l1.296.952c.124.09.337.099.477.018l2.603-1.492.85.624c.123.09.337.099.477.018l.626-.358c.14-.08.153-.22.03-.31Z"
                    fill="#A2D0D2" />
                <path fill-rule="evenodd" clip-rule="evenodd"
                    d="M88.173 91.178c-.066.038-.075.11-.014.156l.96.705-1.09.625c-.066.038-.075.11-.014.156l.552.405c.05.037.122.037.174.008l3.982-2.284.663.487c.05.037.122.038.174.008l.625-.359c.066-.038.075-.11.014-.155l-1.297-.953a.164.164 0 0 0-.174-.008l-2.765 1.586-.99-.728a.164.164 0 0 0-.174-.008l-.626.359Zm-.333.299c-.186-.136-.168-.34.046-.464l.626-.358c.228-.131.583-.115.78.03l.708.52 2.441-1.4c.229-.131.584-.115.78.03l1.297.951c.186.136.168.341-.046.464l-.626.358c-.228.131-.583.115-.78-.029l-.38-.28-3.659 2.098c-.228.131-.583.115-.78-.03l-.551-.404c-.186-.136-.168-.341.046-.464l.837-.48-.74-.542Zm3.18 1.791c-.067.038-.076.11-.014.156l1.296.952c.05.037.122.038.174.008l2.766-1.585.99.727c.05.037.122.038.174.008l.625-.358c.067-.038.076-.11.014-.156l-.96-.705 1.09-.625c.067-.038.076-.11.014-.156l-.551-.405a.164.164 0 0 0-.174-.008l-3.983 2.284-.662-.487a.164.164 0 0 0-.174-.008l-.626.358Zm-.334.3c-.185-.137-.167-.341.047-.464l.625-.359c.228-.13.584-.115.78.03l.381.28 3.658-2.098c.228-.131.584-.115.78.029l.552.405c.185.136.167.34-.047.463l-.836.48.739.543c.185.136.167.34-.047.463l-.625.359c-.228.13-.584.115-.78-.03l-.709-.52-2.44 1.4c-.23.13-.585.115-.781-.03l-1.297-.952Z"
                    fill="#111112" />
                <path
                    d="M93.534 97.678v1.983l2.227-.363 2.142-.63 2.227-1.403 1.367-1.693.371-1.145-.028-1.547-1.052 1.972-2.092 1.419-3.149 1.128-2.013.28Z"
                    fill="#111112" />
                <path
                    d="M95.992 87.798c-1.423-2.493-5.254-4.304-9.786-4.344-4.536-.043-8.398 1.698-9.875 4.165l-.621-.004-.022 2.16c-.038 3.544 4.615 6.457 10.386 6.515 5.774.055 10.479-2.776 10.517-6.32l.022-2.16-.621-.012Z"
                    fill="#41A3A9" />
                <path
                    d="M86.074 96.457c-5.858-.055-10.587-3.05-10.553-6.682l.026-2.33.693.008c1.577-2.535 5.562-4.202 9.97-4.16 4.401.04 8.357 1.783 9.882 4.347l.693.008-.026 2.33c-.035 3.623-4.827 6.533-10.685 6.479Zm-10.197-8.675-.017 1.997c-.035 3.45 4.552 6.294 10.223 6.345 5.67.051 10.31-2.71 10.35-6.155l.017-1.997-.55-.007-.047-.081c-1.431-2.509-5.31-4.219-9.643-4.26-4.333-.04-8.247 1.6-9.727 4.08l-.053.08-.553-.002Z"
                    fill="#111112" />
                <path
                    d="M96.613 87.81c-.038 3.545-4.743 6.376-10.517 6.321-5.775-.054-10.425-2.97-10.386-6.515.039-3.545 4.743-6.375 10.518-6.321 5.774.054 10.424 2.97 10.385 6.515Z"
                    fill="#41A3A9" />
                <path
                    d="M96.608 88.32c-.038 3.544-4.743 6.375-10.517 6.32-5.775-.053-10.425-2.97-10.386-6.514.039-3.545 4.743-6.376 10.518-6.321 5.77.05 10.42 2.967 10.385 6.515Z"
                    fill="#A2D0D2" />
                <path
                    d="M86.095 94.297c-5.858-.054-10.587-3.05-10.553-6.682.035-3.63 4.832-6.537 10.686-6.486 5.858.054 10.587 3.05 10.552 6.681-.039 3.628-4.831 6.538-10.685 6.487Zm.132-12.836c-5.671-.051-10.311 2.71-10.35 6.155-.035 3.45 4.552 6.294 10.223 6.345 5.67.05 10.31-2.71 10.35-6.155.039-3.446-4.553-6.294-10.223-6.345Z"
                    fill="#111112" />
                <path
                    d="M94.513 87.503c-.031 2.667-3.784 4.794-8.396 4.75-4.611-.044-8.325-2.24-8.298-4.902.03-2.666 3.784-4.793 8.395-4.75 4.608.04 8.325 2.232 8.299 4.902Z"
                    fill="#41A3A9" />
                <path
                    d="m80.98 86.574.857.884-1.22.452c-.178.065-.22.223-.096.351l.557.574c.124.129.37.18.547.114l4.84-1.79.527.543c.124.129.37.18.547.114l.792-.293c.178-.066.22-.223.096-.352l-1.31-1.35a.556.556 0 0 0-.547-.113l-3.298 1.22-.858-.885a.556.556 0 0 0-.547-.114l-.792.293c-.178.066-.22.223-.096.352ZM91.302 90.135l-.858-.885 1.22-.451c.178-.066.22-.223.096-.352l-.557-.574a.556.556 0 0 0-.547-.114l-4.84 1.79-.527-.543a.556.556 0 0 0-.547-.114l-.793.294c-.177.065-.22.223-.095.351l1.31 1.35c.124.128.37.18.546.114l3.299-1.22.858.884c.124.129.37.18.547.114l.792-.293c.177-.066.22-.223.096-.351Z"
                    fill="#A2D0D2" />
                <path fill-rule="evenodd" clip-rule="evenodd"
                    d="M81.288 85.82c-.097.036-.124.13-.053.203l.953.982-1.358.503c-.097.036-.125.129-.053.202l.557.574a.244.244 0 0 0 .25.053l5.015-1.855.648.669a.245.245 0 0 0 .25.053l.793-.293c.097-.036.124-.129.053-.202l-1.31-1.35a.245.245 0 0 0-.25-.053L83.31 86.59l-.98-1.01a.245.245 0 0 0-.25-.053l-.792.293Zm-.392.291c-.178-.183-.12-.405.137-.5l.793-.293c.273-.101.656-.02.844.174l.736.759 3.123-1.155c.273-.1.656-.019.844.175l1.31 1.35c.177.183.12.405-.138.5l-.793.293c-.272.1-.656.019-.844-.175l-.405-.417-4.665 1.725c-.272.101-.656.02-.844-.174l-.557-.575c-.178-.183-.12-.405.138-.5l1.083-.4-.762-.787Zm3.267 2.672c-.097.037-.125.13-.053.203l1.31 1.35a.244.244 0 0 0 .249.053l3.474-1.285.98 1.01a.245.245 0 0 0 .25.053l.791-.293c.098-.036.125-.128.054-.202l-.953-.983 1.358-.502c.097-.036.125-.129.053-.202l-.557-.574a.244.244 0 0 0-.25-.054l-5.015 1.855-.649-.668a.245.245 0 0 0-.25-.054l-.792.294Zm-.392.291c-.178-.183-.12-.405.137-.5l.792-.293c.273-.101.657-.02.845.174l.405.418 4.664-1.725c.273-.101.657-.02.845.174l.556.574c.178.184.12.406-.137.5l-1.083.401.762.787c.178.183.12.405-.137.5l-.793.293c-.273.101-.656.02-.844-.174l-.736-.76-3.123 1.156c-.273.1-.656.019-.844-.175l-1.31-1.35Z"
                    fill="#111112" />
                <path
                    d="M86.113 92.415c-4.696-.044-8.492-2.315-8.462-5.073.027-2.753 3.868-4.96 8.563-4.915 4.695.044 8.492 2.315 8.462 5.072-.023 2.757-3.868 4.96-8.563 4.916Zm.097-9.652c-4.508-.04-8.201 2.013-8.228 4.584-.027 2.571 3.624 4.695 8.132 4.736 4.507.04 8.2-2.013 8.227-4.584.027-2.572-3.62-4.691-8.131-4.736Z"
                    fill="#111112" />
                <path
                    d="M86.21 82.596c-4.611-.044-8.368 2.088-8.395 4.75-.001.241.037.473.091.704.616-2.325 4.095-4.088 8.292-4.05 4.198.04 7.644 1.864 8.207 4.199.061-.232.107-.464.104-.7.03-2.667-3.687-4.859-8.299-4.903Z"
                    fill="#41A3A9" />
                <path
                    d="m94.3 88.544-.06-.306c-.554-2.287-4.017-4.036-8.047-4.075-4.034-.034-7.524 1.65-8.126 3.927l-.095.368-.227-.373a2.791 2.791 0 0 1-.094-.743c.027-2.753 3.868-4.96 8.563-4.915 4.695.043 8.492 2.315 8.462 5.072a3.051 3.051 0 0 1-.11.74l-.265.305Zm-8.09-5.781c-4.508-.04-8.201 2.013-8.228 4.584l-.003.028c1.043-2.12 4.34-3.578 8.22-3.54 3.874.034 7.143 1.554 8.14 3.691 0-.008.003-.02.002-.028.027-2.57-3.62-4.69-8.131-4.735Z"
                    fill="#111112" />
                <path
                    d="m84.825 82.695-.01 1.36-2.338.414-2.297.958-1.667 1.424-.607 1.198-.086-1.206.723-1.432 1.266-1.153 2.08-1.003 2.537-.566.398.006ZM87.274 94.103l-.023 2.204 2.482-.382 2.397-.678 2.486-1.536 1.543-1.876.428-1.27-.018-1.718-1.191 2.18-2.346 1.558-3.51 1.227-2.248.291ZM85.728 94.144l-.026 2.164-1.01-.085.02-2.274 1.016.195Z"
                    fill="#111112" />
                <path
                    d="M102.837 83.934c-1.422-2.494-5.254-4.305-9.785-4.344-4.536-.044-8.399 1.697-9.875 4.164l-.621-.003-.022 2.16c-.039 3.544 4.615 6.457 10.385 6.515 5.775.054 10.479-2.776 10.518-6.32l.022-2.16-.622-.012Z"
                    fill="#41A3A9" />
                <path
                    d="M92.92 92.593c-5.859-.055-10.588-3.051-10.553-6.682l.026-2.33.693.008c1.577-2.535 5.562-4.202 9.97-4.161 4.401.041 8.357 1.784 9.882 4.348l.693.008-.026 2.33c-.035 3.623-4.828 6.533-10.686 6.478Zm-10.197-8.675-.017 1.997c-.035 3.45 4.551 6.294 10.222 6.345 5.671.051 10.311-2.71 10.35-6.155l.017-1.998-.549-.006-.048-.081c-1.431-2.51-5.31-4.22-9.642-4.26-4.333-.04-8.248 1.6-9.728 4.079l-.052.081-.553-.002Z"
                    fill="#111112" />
                <path
                    d="M103.459 83.946c-.039 3.544-4.743 6.375-10.518 6.32-5.774-.053-10.424-2.97-10.385-6.514.038-3.545 4.743-6.376 10.517-6.321 5.775.054 10.425 2.97 10.386 6.515Z"
                    fill="#41A3A9" />
                <path
                    d="M103.454 84.456c-.039 3.544-4.743 6.375-10.517 6.32-5.775-.054-10.425-2.97-10.386-6.515.039-3.544 4.743-6.375 10.517-6.32 5.77.05 10.421 2.967 10.386 6.515Z"
                    fill="#A2D0D2" />
                <path
                    d="M92.94 90.433c-5.858-.055-10.587-3.05-10.552-6.682.035-3.631 4.831-6.537 10.685-6.487 5.858.055 10.588 3.051 10.553 6.682-.039 3.628-4.832 6.538-10.686 6.487Zm.133-12.836c-5.671-.051-10.311 2.71-10.35 6.155-.036 3.45 4.551 6.293 10.222 6.345 5.671.05 10.311-2.71 10.35-6.156.039-3.445-4.552-6.293-10.222-6.344Z"
                    fill="#111112" />
                <path
                    d="M101.358 83.639c-.03 2.666-3.783 4.794-8.395 4.75-4.611-.044-8.325-2.24-8.298-4.902.03-2.666 3.783-4.794 8.395-4.75 4.607.04 8.325 2.232 8.298 4.902Z"
                    fill="#41A3A9" />
                <path
                    d="m87.825 82.71.858.884-1.22.451c-.178.066-.221.223-.096.352l.556.574c.125.129.37.18.547.114l4.84-1.79.528.543c.124.128.37.18.547.114l.792-.293c.177-.066.22-.223.095-.352l-1.31-1.35a.555.555 0 0 0-.546-.113l-3.298 1.22-.858-.885a.556.556 0 0 0-.547-.114l-.793.293c-.177.066-.22.223-.095.352ZM98.147 86.27l-.858-.884 1.221-.451c.177-.066.22-.224.096-.352l-.557-.574a.555.555 0 0 0-.547-.114l-4.84 1.79-.527-.543a.556.556 0 0 0-.547-.114l-.793.293c-.177.066-.22.223-.095.352l1.31 1.35c.124.128.369.18.546.114l3.298-1.22.858.884c.125.129.37.18.547.114l.793-.293c.177-.066.22-.223.095-.352Z"
                    fill="#A2D0D2" />
                <path fill-rule="evenodd" clip-rule="evenodd"
                    d="M88.134 81.956c-.097.036-.125.129-.053.203l.953.982-1.358.502c-.098.036-.125.13-.054.203l.557.574a.245.245 0 0 0 .25.053l5.016-1.855.648.669a.245.245 0 0 0 .25.053l.792-.293c.098-.036.125-.129.054-.203l-1.31-1.35a.244.244 0 0 0-.25-.053l-3.473 1.285-.98-1.01a.245.245 0 0 0-.25-.053l-.792.293Zm-.393.291c-.178-.183-.12-.405.138-.5l.792-.294c.273-.1.657-.019.844.175l.737.759 3.122-1.155c.273-.101.657-.02.845.174l1.31 1.35c.177.183.119.405-.138.5l-.793.294c-.273.1-.656.019-.844-.175l-.405-.417-4.665 1.725c-.273.1-.656.019-.844-.175l-.557-.574c-.178-.183-.12-.405.138-.5l1.083-.4-.763-.787Zm3.268 2.672c-.097.036-.125.13-.053.203l1.309 1.35a.245.245 0 0 0 .25.053l3.473-1.285.98 1.01a.244.244 0 0 0 .25.053l.792-.293c.098-.036.125-.129.054-.202l-.953-.983 1.358-.502c.097-.036.124-.13.053-.203l-.557-.574a.244.244 0 0 0-.25-.053L92.7 85.348l-.649-.668a.245.245 0 0 0-.25-.054l-.792.293Zm-.393.291c-.178-.183-.12-.405.138-.5l.792-.293c.273-.101.657-.02.844.174l.405.418 4.665-1.725c.273-.102.657-.02.844.174l.557.574c.178.183.12.405-.137.5l-1.084.401.763.786c.178.184.12.406-.138.5l-.792.294c-.273.1-.656.019-.844-.175l-.736-.758-3.123 1.154c-.273.101-.656.02-.844-.174l-1.31-1.35Z"
                    fill="#111112" />
                <path
                    d="M92.958 88.55c-4.695-.043-8.492-2.315-8.461-5.072.027-2.753 3.868-4.96 8.563-4.915 4.695.043 8.492 2.315 8.461 5.072-.022 2.757-3.868 4.96-8.563 4.916Zm.097-9.651c-4.508-.04-8.2 2.013-8.228 4.584-.026 2.571 3.624 4.695 8.132 4.735 4.508.041 8.201-2.013 8.228-4.584.027-2.57-3.62-4.69-8.132-4.735Z"
                    fill="#111112" />
                <path
                    d="M93.056 78.732c-4.612-.044-8.368 2.088-8.395 4.75-.001.241.037.473.091.703.616-2.325 4.095-4.088 8.292-4.049 4.197.04 7.643 1.864 8.207 4.199.061-.233.106-.464.104-.701.03-2.666-3.687-4.858-8.299-4.902Z"
                    fill="#41A3A9" />
                <path
                    d="m101.147 84.68-.062-.306c-.553-2.288-4.016-4.036-8.046-4.075-4.034-.035-7.525 1.65-8.126 3.927l-.095.368-.228-.373a2.79 2.79 0 0 1-.093-.743c.027-2.753 3.868-4.96 8.563-4.916 4.695.044 8.492 2.316 8.461 5.073a3.017 3.017 0 0 1-.109.74l-.265.305Zm-8.092-5.781c-4.508-.041-8.2 2.012-8.228 4.584 0 .007-.003.02-.002.027 1.042-2.119 4.34-3.577 8.219-3.54 3.875.034 7.144 1.555 8.14 3.692l.003-.028c.027-2.571-3.62-4.691-8.132-4.735Z"
                    fill="#111112" />
                <path
                    d="m91.67 78.83-.01 1.36-2.337.415-2.297.958-1.667 1.424-.607 1.198-.086-1.206.723-1.433 1.265-1.152 2.08-1.004 2.538-.565.398.005ZM94.12 90.24l-.024 2.202 2.482-.381 2.398-.678 2.485-1.536 1.543-1.877.429-1.268-.018-1.72-1.191 2.182-2.346 1.557-3.51 1.227-2.248.291ZM92.574 90.28l-.026 2.164-1.01-.085.02-2.274 1.016.195Z"
                    fill="#111112" />
            </g>
            <path d="m91.221 97.182-17.301.572-26.627-15.057 17.811-.55 26.117 15.035Z" fill="#41A3A9" />
            <path d="m91.051 99.542-17.301.572-26.627-15.046 17.811-.561 26.117 15.035Z" fill="#A2D0D2" />
            <path
                d="m73.877 97.933-.043-.02-27.179-15.365 18.491-.571.043.02L91.837 97.34l-17.96.593ZM47.919 82.855l26.043 14.718 16.643-.55L65.06 82.326l-17.142.53Z"
                fill="#111112" />
            <path d="m91.231 97.181 17.302.572 26.627-15.057-17.812-.55L91.231 97.18Z" fill="#41A3A9" />
            <path d="m91.05 99.542 17.313.572 26.626-15.046-17.821-.561-26.117 15.035Z" fill="#A2D0D2" />
            <path
                d="M108.575 97.933h-.053l-17.918-.593 26.701-15.374h.054l18.448.572-27.232 15.395Zm-16.728-.91 16.643.55 26.043-14.718-17.143-.53-25.543 14.697Z"
                fill="#111112" />
            <path
                d="M102.09 43.137c-2.851-.926-7.07.355-10.576 3.488-3.512 3.133-5.247 7.169-4.64 10.098l-.478.431 1.507 1.677c2.472 2.755 8.099 1.747 12.569-2.236 4.47-3.99 6.083-9.451 3.611-12.206l-1.508-1.677-.485.425Z"
                fill="#41A3A9" />
            <path
                d="M100.589 56.724c-4.534 4.047-10.278 5.043-12.814 2.224l-1.625-1.811.538-.478c-.579-3.051 1.303-7.116 4.715-10.161 3.407-3.04 7.673-4.461 10.653-3.553l.537-.477 1.625 1.81c2.53 2.814.905 8.398-3.629 12.446Zm-13.948.442 1.397 1.55c2.407 2.678 7.935 1.665 12.323-2.255 4.388-3.919 6.001-9.282 3.6-11.96l-1.397-1.55-.427.379-.093-.03c-2.87-.931-7.053.46-10.407 3.454-3.354 2.993-5.2 6.988-4.587 9.929l.018.099-.427.384Z"
                fill="#111112" />
            <path
                d="M102.576 42.712c2.471 2.755.858 8.217-3.612 12.206-4.47 3.99-10.097 4.991-12.568 2.236-2.472-2.754-.86-8.216 3.61-12.205 4.47-3.99 10.098-4.991 12.57-2.237Z"
                fill="#41A3A9" />
            <path
                d="M102.932 43.109c2.472 2.754.859 8.217-3.611 12.206-4.47 3.989-10.097 4.99-12.569 2.236-2.472-2.755-.859-8.217 3.611-12.206 4.464-3.989 10.091-4.99 12.569-2.236Z"
                fill="#A2D0D2" />
            <path
                d="M99.082 55.047c-4.535 4.047-10.279 5.043-12.814 2.224-2.537-2.819-.906-8.403 3.622-12.45 4.535-4.048 10.278-5.044 12.814-2.225 2.531 2.819.906 8.403-3.622 12.45Zm-8.958-9.97c-4.388 3.919-6.001 9.282-3.6 11.961 2.408 2.679 7.936 1.666 12.324-2.254 4.388-3.919 6.001-9.282 3.599-11.96-2.401-2.68-7.935-1.666-12.323 2.253Z"
                fill="#111112" />
            <path
                d="M100.747 43.942c1.858 2.073.479 6.33-3.091 9.515-3.57 3.186-7.97 4.088-9.829 2.021-1.858-2.073-.479-6.33 3.092-9.516 3.564-3.185 7.964-4.093 9.828-2.02Z"
                fill="#41A3A9" />
            <path
                d="m89.704 52.673 1.283.082-.618 1.2c-.09.175-.011.327.175.339l.833.053c.186.012.41-.12.5-.294l2.449-4.76.788.051c.186.012.41-.12.5-.294l.4-.78c.09-.174.012-.325-.174-.337l-1.959-.126a.574.574 0 0 0-.5.294l-1.668 3.243-1.284-.082a.574.574 0 0 0-.5.294l-.4.78c-.09.174-.012.325.175.337ZM100.139 48.21l-1.283-.083.618-1.2c.09-.175.011-.326-.175-.338l-.833-.054a.574.574 0 0 0-.5.295l-2.45 4.76-.787-.051a.574.574 0 0 0-.5.294l-.401.779c-.09.174-.012.326.175.338l1.958.126c.187.012.41-.12.5-.294l1.669-3.244 1.283.083c.187.012.41-.12.5-.294l.401-.78c.09-.174.011-.325-.175-.337Z"
                fill="#A2D0D2" />
            <path fill-rule="evenodd" clip-rule="evenodd"
                d="M89.41 51.877c-.05.096-.005.186.102.193l1.425.092-.687 1.336c-.05.095-.004.186.102.193l.833.054a.253.253 0 0 0 .23-.134l2.537-4.932.97.063a.253.253 0 0 0 .23-.134l.4-.78c.05-.095.005-.186-.102-.193l-1.958-.126a.253.253 0 0 0-.23.134l-1.757 3.416-1.465-.095a.253.253 0 0 0-.23.134l-.4.779Zm-.096.498c-.266-.017-.378-.228-.248-.481l.4-.78c.139-.268.491-.473.772-.455l1.1.071 1.58-3.07c.139-.269.49-.474.772-.456l1.958.126c.266.017.378.23.248.482l-.4.78c-.139.268-.49.473-.772.455l-.606-.04-2.36 4.588c-.138.268-.49.473-.77.455l-.834-.054c-.266-.017-.378-.229-.248-.482l.549-1.065-1.141-.074Zm4.395-.221c-.05.095-.005.186.102.193l1.958.126a.252.252 0 0 0 .23-.133l1.757-3.416 1.466.094a.253.253 0 0 0 .229-.133l.4-.78c.05-.095.005-.186-.102-.193l-1.425-.092.687-1.335c.05-.096.005-.187-.102-.194l-.833-.053a.252.252 0 0 0-.23.133l-2.537 4.932-.97-.062a.253.253 0 0 0-.229.133l-.4.78Zm-.096.498c-.266-.017-.378-.229-.248-.482l.401-.779c.138-.268.49-.473.771-.455l.606.039 2.36-4.587c.138-.268.49-.473.771-.455l.833.053c.266.018.378.23.248.482l-.548 1.066 1.14.073c.267.017.379.229.249.482l-.401.78c-.139.268-.49.472-.771.454l-1.101-.07-1.58 3.07c-.138.269-.49.473-.771.455l-1.959-.126Z"
                fill="#111112" />
            <path
                d="M97.767 53.585c-3.634 3.243-8.15 4.146-10.073 2.003-1.923-2.137-.532-6.516 3.103-9.76 3.634-3.244 8.15-4.146 10.073-2.003 1.929 2.137.532 6.516-3.103 9.76ZM91.03 46.09c-3.488 3.116-4.873 7.274-3.079 9.271 1.794 1.997 6.094 1.083 9.583-2.032 3.488-3.116 4.873-7.274 3.079-9.271-1.794-1.998-6.088-1.083-9.583 2.032Z"
                fill="#111112" />
            <path
                d="M90.913 45.962c-3.57 3.185-4.95 7.448-3.091 9.515.17.186.362.338.566.478-1.168-2.22.258-6.004 3.506-8.904 3.25-2.9 7.182-3.902 9.262-2.499a2.776 2.776 0 0 0-.415-.611c-1.858-2.073-6.258-1.165-9.828 2.02Z"
                fill="#41A3A9" />
            <path
                d="m101.319 44.89-.263-.192c-2.039-1.374-5.93-.303-9.05 2.481-3.121 2.79-4.611 6.522-3.466 8.694l.187.35-.438-.128a2.938 2.938 0 0 1-.596-.507c-1.922-2.137-.532-6.516 3.103-9.76 3.634-3.244 8.15-4.146 10.073-2.003.158.174.298.384.439.646l.011.42Zm-10.29 1.2c-3.488 3.116-4.873 7.273-3.079 9.271.006.006.012.017.017.023-.695-2.358.807-5.782 3.81-8.461 2.998-2.679 6.58-3.791 8.853-2.842-.006-.006-.012-.018-.018-.023-1.794-1.998-6.088-1.083-9.583 2.032Z"
                fill="#111112" />
            <path
                d="m89.92 47.004.952 1.054-1.502 1.95-1.086 2.342-.275 2.26.38 1.345-.918-.868-.455-1.607.157-1.77.889-2.225 1.548-2.207.31-.274ZM99.847 54.074l1.536 1.712 1.637-2.027 1.361-2.195.824-2.918-.14-2.521-.567-1.276-1.227-1.31.625 2.51-.701 2.836-1.829 3.395-1.52 1.794ZM98.69 55.187l1.507 1.683-.835.64-1.59-1.764.918-.56Z"
                fill="#111112" />
            <path
                d="M103.816 29.578c-1.352-2.328-4.952-3.99-9.195-3.99-4.244 0-7.844 1.668-9.196 3.99h-.58v2.03c0 3.325 4.379 6.02 9.776 6.02 5.402 0 9.774-2.695 9.774-6.02v-2.03h-.579Z"
                fill="#41A3A9" />
            <path
                d="M94.62 37.786c-5.478 0-9.933-2.771-9.933-6.178v-2.187h.65c1.452-2.392 5.163-3.99 9.283-3.99 4.121 0 7.832 1.598 9.284 3.99h.649v2.187c0 3.407-4.454 6.178-9.933 6.178Zm-9.622-8.05v1.872c0 3.238 4.313 5.869 9.622 5.869 5.31 0 9.623-2.631 9.623-5.869v-1.872h-.515l-.047-.076c-1.364-2.34-5.004-3.914-9.06-3.914-4.057 0-7.698 1.575-9.061 3.914l-.047.076h-.515Z"
                fill="#111112" />
            <path
                d="M94.62 35.598c5.399 0 9.775-2.696 9.775-6.02 0-3.325-4.376-6.02-9.774-6.02-5.399 0-9.775 2.695-9.775 6.02 0 3.324 4.376 6.02 9.775 6.02Z"
                fill="#41A3A9" />
            <path
                d="M104.395 30.056c0 3.325-4.378 6.02-9.774 6.02-5.403 0-9.775-2.695-9.775-6.02 0-3.325 4.378-6.02 9.775-6.02 5.402 0 9.774 2.695 9.774 6.02Z"
                fill="#A2D0D2" />
            <path
                d="M94.62 35.755c-5.478 0-9.933-2.77-9.933-6.177 0-3.407 4.455-6.178 9.933-6.178 5.479 0 9.933 2.771 9.933 6.178s-4.454 6.177-9.933 6.177Zm0-12.04c-5.303 0-9.622 2.631-9.622 5.869 0 3.237 4.313 5.868 9.622 5.868 5.31 0 9.623-2.63 9.623-5.868 0-3.238-4.32-5.869-9.623-5.869Z"
                fill="#111112" />
            <path
                d="M94.62 33.841c4.313 0 7.809-2.029 7.809-4.532s-3.496-4.533-7.808-4.533c-4.313 0-7.808 2.03-7.808 4.533 0 2.503 3.495 4.532 7.808 4.532Z"
                fill="#41A3A9" />
            <path
                d="M94.62 33.993c-4.39 0-7.966-2.1-7.966-4.684s3.57-4.684 7.967-4.684c4.39 0 7.966 2.1 7.966 4.684s-3.577 4.684-7.966 4.684Zm0-9.059c-4.22 0-7.65 1.96-7.65 4.375s3.43 4.375 7.65 4.375c4.22 0 7.651-1.96 7.651-4.375s-3.43-4.375-7.65-4.375Z"
                fill="#111112" />
            <path
                d="M94.62 24.776c-4.313 0-7.808 2.03-7.808 4.533 0 .227.036.443.094.66.55-2.189 3.793-3.874 7.715-3.874 3.921 0 7.164 1.68 7.714 3.873.053-.216.094-.437.094-.66 0-2.502-3.495-4.532-7.808-4.532Z"
                fill="#41A3A9" />
            <path
                d="m102.241 30.29-.058-.287c-.539-2.14-3.793-3.75-7.563-3.75-3.769 0-7.023 1.615-7.562 3.75l-.088.345-.216-.345a2.915 2.915 0 0 1-.1-.7c0-2.584 3.57-4.684 7.967-4.684 4.39 0 7.966 2.1 7.966 4.684 0 .21-.03.432-.094.7l-.252.286Zm-7.62-5.356c-4.22 0-7.65 1.96-7.65 4.375v.03c.953-2.002 4.026-3.396 7.65-3.396 3.623 0 6.696 1.394 7.65 3.395v-.029c0-2.415-3.43-4.375-7.65-4.375Z"
                fill="#111112" />
            <path
                d="M93.327 24.882v1.277l-2.183.415-2.142.915-1.546 1.348-.55 1.131-.094-1.131.662-1.348 1.17-1.096 1.938-.963 2.37-.548h.375ZM95.72 35.563v2.07l2.319-.379 2.23-.659 2.317-1.464 1.423-1.767.386-1.196-.029-1.616-1.095 2.059-2.177 1.482-3.278 1.178-2.095.292ZM94.27 35.621v2.03l-.943-.076v-2.129l.943.175Z"
                fill="#111112" />
            <path
                d="M103.701 20.78c-.072-2.724-2.467-5.944-6.238-7.995-3.77-2.05-7.785-2.304-10.12-.892l-.517-.284-.984 1.808c-1.619 2.96.966 7.47 5.77 10.081 4.802 2.606 10.007 2.322 11.626-.632l.99-1.808-.527-.278Z"
                fill="#41A3A9" />
            <path
                d="M91.528 23.64c-4.874-2.647-7.489-7.262-5.834-10.293l1.061-1.944.575.313c2.455-1.424 6.534-1.058 10.198.933 3.664 1.992 6.19 5.206 6.315 8.037l.575.313-1.062 1.944c-1.642 3.031-6.954 3.344-11.828.697Zm-4.643-11.806-.913 1.666c-1.57 2.878.985 7.304 5.704 9.862 4.72 2.565 9.837 2.305 11.414-.573l.913-1.666-.457-.248v-.089c-.071-2.742-2.549-5.897-6.154-7.859-3.611-1.962-7.613-2.316-9.961-.892l-.077.047-.469-.248Z"
                fill="#111112" />
            <path
                d="M104.216 21.058c1.617-2.958-.966-7.469-5.767-10.076-4.802-2.607-10.006-2.323-11.622.634-1.617 2.957.965 7.468 5.767 10.076 4.802 2.607 10.005 2.323 11.622-.634Z"
                fill="#41A3A9" />
            <path
                d="M103.985 21.49c-1.619 2.96-6.824 3.244-11.627.632-4.802-2.606-7.388-7.12-5.769-10.081 1.619-2.96 6.825-3.244 11.627-.632 4.803 2.605 7.388 7.12 5.769 10.08Z"
                fill="#A2D0D2" />
            <path
                d="M92.518 21.838c-4.874-2.647-7.488-7.262-5.834-10.293 1.654-3.032 6.967-3.345 11.84-.697 4.874 2.647 7.489 7.262 5.829 10.293-1.655 3.025-6.961 3.339-11.835.697Zm5.858-10.713c-4.72-2.564-9.836-2.304-11.407.573-1.572 2.878.984 7.304 5.703 9.863 4.72 2.564 9.837 2.304 11.408-.574 1.571-2.877-.984-7.303-5.704-9.862Z"
                fill="#111112" />
            <path
                d="M102.598 19.87c-1.216 2.228-5.313 2.34-9.149.26-3.836-2.08-5.959-5.578-4.743-7.8 1.215-2.227 5.312-2.34 9.148-.26 3.836 2.08 5.959 5.573 4.744 7.8Z"
                fill="#41A3A9" />
            <path
                d="M93.372 20.266c-3.907-2.121-6.06-5.714-4.802-8.013 1.257-2.298 5.454-2.44 9.362-.319 3.907 2.121 6.059 5.714 4.802 8.013-1.251 2.298-5.454 2.44-9.362.319Zm4.411-8.06c-3.753-2.039-7.76-1.95-8.935.195-1.174 2.145.925 5.549 4.678 7.587 3.754 2.039 7.762 1.95 8.935-.195 1.174-2.145-.924-5.548-4.678-7.587Z"
                fill="#111112" />
            <path
                d="M97.855 12.07c-3.837-2.08-7.934-1.967-9.15.26-.106.201-.183.414-.236.633 1.553-1.678 5.253-1.613 8.745.283 3.492 1.897 5.556 4.958 4.981 7.168.154-.166.29-.343.403-.544 1.215-2.227-.907-5.72-4.743-7.8Z"
                fill="#41A3A9" />
            <path
                d="m101.957 20.656.089-.284c.563-2.163-1.547-5.17-4.903-6.99-3.356-1.82-7.032-1.956-8.556-.313l-.243.265-.024-.413c.072-.266.149-.479.255-.668 1.257-2.298 5.455-2.44 9.362-.319 3.908 2.121 6.06 5.714 4.803 8.013-.101.189-.237.372-.427.573l-.356.136Zm-4.174-8.45c-3.753-2.039-7.761-1.95-8.935.195-.006.006-.006.018-.012.024 1.82-1.318 5.23-1.076 8.455.68 3.225 1.748 5.277 4.472 5.158 6.712a.044.044 0 0 0 .012-.024c1.174-2.145-.925-5.548-4.678-7.587Z"
                fill="#111112" />
            <path
                d="m96.65 11.538-.616 1.134-2.14-.685-2.354-.219-2.028.45-1.043.744.468-1.052 1.245-.886 1.577-.408 2.188.083 2.378.656.326.183ZM93.591 22.193l-1.008 1.843 2.247.78 2.306.497 2.77-.183 2.128-.893.925-.874.753-1.448-1.969 1.3-2.662.266-3.48-.532-2.01-.756ZM92.275 21.542l-.99 1.808-.806-.52 1.037-1.896.759.608Z"
                fill="#111112" />
            <path
                d="M58.496 102.526c-2.019.794-4.313-.191-5.11-2.203a3.926 3.926 0 0 1 2.21-5.094c2.018-.794 4.313.19 5.11 2.203a3.926 3.926 0 0 1-2.21 5.094Zm-2.359-5.91a2.438 2.438 0 0 0-1.37 3.167 2.45 2.45 0 0 0 3.176 1.366 2.438 2.438 0 0 0 1.37-3.166 2.45 2.45 0 0 0-3.176-1.367ZM32.417 101.392c.117-1.154.701-2.044 1.615-2.446.934-.413 2.04-.244 3.038.476.51.371 1.03.487 1.413.318.36-.159.594-.55.658-1.112l.106-.921c.128-1.102.702-1.97 1.562-2.372.882-.413 1.933-.286 2.89.328l.615.402c.49.318.978.392 1.328.223.35-.17.584-.593.638-1.155l.02-.296c.107-1.176.691-2.076 1.605-2.489.935-.424 2.04-.254 3.038.466l-.945 1.313c-.51-.37-1.03-.476-1.424-.307-.372.17-.605.593-.658 1.165l-.022.297c-.106 1.143-.669 2.044-1.54 2.467-.882.424-1.944.318-2.921-.318l-.606-.413c-.478-.307-.966-.392-1.317-.222-.35.17-.584.55-.648 1.101l-.106.922c-.138 1.133-.723 2.012-1.626 2.404-.934.402-2.028.233-3.016-.487-.51-.382-1.03-.498-1.424-.318-.371.159-.605.572-.658 1.144l-1.615-.17ZM133.014 81.43a2.419 2.419 0 0 1-3.378-.435 2.402 2.402 0 0 1 .435-3.368 2.419 2.419 0 0 1 3.378.435 2.402 2.402 0 0 1-.435 3.367Zm-2.39-3.082a1.494 1.494 0 0 0-.276 2.097c.499.656 1.444.773 2.103.275.658-.498.775-1.44.276-2.097a1.497 1.497 0 0 0-2.103-.275ZM133.343 73.402c.287-.89.903-1.493 1.689-1.663.807-.17 1.646.159 2.316.89.339.38.722.55 1.062.487.308-.064.563-.329.712-.763l.244-.71c.287-.847.892-1.429 1.636-1.609.765-.18 1.572.095 2.22.752l.414.424c.329.328.701.476 1.009.402.308-.074.563-.37.701-.805l.075-.222c.287-.9.892-1.525 1.689-1.695.807-.18 1.657.148 2.316.88l-.967.868c-.34-.382-.733-.551-1.073-.477-.319.074-.584.36-.722.805l-.075.222c-.276.88-.871 1.494-1.636 1.684-.764.19-1.593-.085-2.252-.741l-.425-.424c-.329-.328-.69-.476-.998-.402-.308.074-.552.339-.691.762l-.244.71c-.297.868-.913 1.461-1.689 1.62-.807.16-1.636-.159-2.294-.9-.34-.381-.733-.55-1.073-.487-.319.063-.574.35-.712.784l-1.232-.392ZM79.667 47.964c-1.392-.053-2.507-.678-3.07-1.726-.574-1.08-.457-2.414.33-3.654.403-.635.498-1.26.265-1.715-.223-.424-.712-.667-1.381-.7l-1.116-.052c-1.338-.064-2.41-.678-2.974-1.673-.563-1.017-.5-2.277.17-3.474l.436-.773c.34-.604.393-1.186.159-1.61-.234-.413-.765-.657-1.445-.667l-.35-.01c-1.413-.032-2.55-.657-3.113-1.706-.584-1.08-.467-2.414.308-3.664l1.647 1.027c-.404.636-.489 1.271-.245 1.716.234.423.755.678 1.456.688l.35.01c1.381.033 2.497.626 3.081 1.642.584 1.017.531 2.299-.149 3.506l-.435.773c-.33.593-.393 1.175-.16 1.588.223.403.712.646 1.37.678l1.116.053c1.37.064 2.465.7 3.006 1.737.563 1.08.436 2.404-.34 3.633-.403.635-.499 1.26-.255 1.715.224.424.733.667 1.424.7l-.085 1.958ZM69.183 50.496a3.218 3.218 0 0 1-3.22-3.209 3.218 3.218 0 0 1 6.438 0 3.225 3.225 0 0 1-3.218 3.209Zm0-5.454a2.25 2.25 0 0 0-2.253 2.245 2.25 2.25 0 0 0 2.253 2.245 2.25 2.25 0 0 0 2.252-2.245 2.264 2.264 0 0 0-2.252-2.245ZM49.01 51.089c.627-.52 1.36-.668 2.008-.424.669.254 1.136.879 1.264 1.726.074.434.265.742.552.847.255.096.563.022.871-.222l.51-.402c.605-.487 1.317-.636 1.944-.413.637.222 1.105.804 1.275 1.578l.106.497c.085.392.287.667.552.763.266.084.584-.01.892-.265l.16-.138c.627-.53 1.37-.688 2.018-.455.67.244 1.137.879 1.275 1.716l-1.115.18c-.075-.434-.277-.742-.553-.848-.265-.095-.595 0-.903.255l-.16.137c-.615.52-1.338.689-1.986.466-.648-.222-1.115-.794-1.296-1.588L56.318 54c-.085-.392-.287-.667-.542-.763-.255-.095-.563-.01-.86.233l-.51.403c-.627.498-1.349.635-1.986.392-.659-.255-1.116-.88-1.254-1.716-.074-.434-.276-.741-.552-.847-.266-.096-.584-.01-.892.243l-.712-.857Z"
                fill="#A2D0D2" />
            <path
                d="M78.243 47.943c-1.392-.053-2.507-.678-3.07-1.726-.574-1.08-.457-2.415.33-3.654.403-.635.498-1.26.265-1.716-.223-.423-.712-.667-1.381-.699l-1.116-.053c-1.338-.063-2.41-.677-2.974-1.673-.563-1.016-.5-2.277.17-3.473l.436-.773c.34-.604.393-1.187.159-1.61-.234-.413-.765-.657-1.445-.667l-.35-.011c-1.413-.032-2.55-.657-3.113-1.705-.605-1.07-.488-2.404.298-3.654l1.646 1.028c-.403.635-.489 1.27-.244 1.715.234.424.754.678 1.455.689l.35.01c1.382.032 2.497.625 3.081 1.642.585 1.016.531 2.298-.148 3.505l-.436.773c-.33.593-.393 1.176-.16 1.589.224.402.712.646 1.371.678l1.115.052c1.37.064 2.465.7 3.007 1.737.563 1.08.435 2.404-.34 3.633-.404.635-.5 1.26-.255 1.715.223.424.733.668 1.423.7l-.074 1.948ZM67.759 50.474a3.218 3.218 0 0 1-3.219-3.208 3.218 3.218 0 0 1 6.437 0 3.218 3.218 0 0 1-3.218 3.208Zm0-5.454a2.25 2.25 0 0 0-2.252 2.245 2.25 2.25 0 0 0 2.252 2.246 2.25 2.25 0 0 0 2.252-2.245 2.263 2.263 0 0 0-2.252-2.246Z"
                fill="#111112" />
            <path
                d="M116.346 49.892c-.234-.667-.138-1.313.266-1.758.403-.466 1.062-.646 1.795-.498.404.085.743 0 .924-.201.181-.201.212-.498.096-.847l-.181-.551c-.212-.646-.117-1.26.255-1.705.382-.445.988-.646 1.678-.55l.457.063c.372.053.691-.032.861-.244.17-.2.191-.519.063-.868l-.063-.17c-.245-.677-.149-1.323.244-1.779.404-.466 1.062-.656 1.795-.508l-.18.89c-.404-.075-.744 0-.925.211-.17.201-.201.52-.074.88l.064.169c.233.656.159 1.292-.223 1.747-.372.456-.999.667-1.7.561l-.457-.063c-.372-.053-.68.032-.85.233-.169.201-.191.498-.085.836l.181.551c.213.657.117 1.292-.287 1.737-.414.455-1.062.636-1.795.498-.404-.085-.744 0-.935.212-.18.2-.212.508-.085.868l-.839.286ZM121 58.64a2.994 2.994 0 0 1-2.996-2.986A2.987 2.987 0 0 1 121 52.666a2.994 2.994 0 0 1 2.995 2.986A2.994 2.994 0 0 1 121 58.64Zm0-5.179a2.2 2.2 0 0 0-2.199 2.193A2.2 2.2 0 0 0 121 57.846a2.2 2.2 0 0 0 2.198-2.192A2.2 2.2 0 0 0 121 53.46Z"
                fill="#A2D0D2" />
            <path
                d="M115.773 49.15c-.234-.666-.138-1.313.265-1.757.404-.466 1.063-.646 1.796-.498.403.085.743 0 .924-.201.18-.202.212-.498.095-.848l-.18-.55c-.213-.646-.117-1.26.255-1.705.382-.445.988-.646 1.678-.55l.457.063c.372.053.69-.032.86-.244.17-.201.192-.519.064-.868l-.064-.17c-.244-.678-.148-1.324.245-1.779.403-.466 1.062-.657 1.795-.508l-.181.89c-.403-.075-.743 0-.924.211-.17.201-.202.519-.074.88l.064.169c.233.656.159 1.291-.224 1.747-.371.455-.998.667-1.699.561l-.457-.063c-.372-.053-.68.031-.85.233-.17.2-.191.497-.085.836l.181.551c.212.657.117 1.292-.287 1.737-.414.455-1.062.635-1.795.498-.404-.085-.744 0-.935.211-.181.202-.212.509-.085.869l-.839.286ZM120.373 58.1a2.994 2.994 0 0 1-2.996-2.987 2.994 2.994 0 0 1 2.996-2.986 2.994 2.994 0 0 1 2.995 2.986 3 3 0 0 1-2.995 2.987Zm0-5.168a2.2 2.2 0 0 0-2.199 2.192 2.2 2.2 0 0 0 4.397 0 2.206 2.206 0 0 0-2.198-2.192Z"
                fill="#111112" />
        </g>
    </g>
    <defs>
        <clipPath id="a">
            <path fill="#fff" d="M0 0h180v136H0z" />
        </clipPath>
        <clipPath id="b">
            <path fill="#fff" transform="translate(31 9)" d="M0 0h117v122H0z" />
        </clipPath>
        <clipPath id="c">
            <path fill="#fff" transform="translate(72.558 71.447)" d="M0 0h34.002v25.529H0z" />
        </clipPath>
    </defs>
</svg>