<svg viewBox="0 0 283 200" fill="none" xmlns="http://www.w3.org/2000/svg">
<g opacity="0.3">
<path d="M141.519 200L0 118.121L1.13401 117.702L141.779 199.032L141.519 200Z" fill="#A2D0D2"/>
<path d="M18.6996 107.559L18.2209 108.389L158.855 189.714L159.334 188.883L18.6996 107.559Z" fill="#A2D0D2"/>
<path d="M36.2714 97.4026L35.7927 98.233L176.427 179.558L176.906 178.727L36.2714 97.4026Z" fill="#A2D0D2"/>
<path d="M53.835 87.2419L53.3563 88.0723L193.991 169.397L194.47 168.567L53.835 87.2419Z" fill="#A2D0D2"/>
<path d="M71.4105 77.0777L70.9318 77.9081L211.566 159.233L212.045 158.402L71.4105 77.0777Z" fill="#A2D0D2"/>
<path d="M88.9814 66.9202L88.5027 67.7506L229.137 149.075L229.616 148.245L88.9814 66.9202Z" fill="#A2D0D2"/>
<path d="M106.545 56.7582L106.066 57.5886L246.701 138.913L247.179 138.083L106.545 56.7582Z" fill="#A2D0D2"/>
<path d="M124.117 46.6039L123.638 47.4343L264.273 128.759L264.751 127.929L124.117 46.6039Z" fill="#A2D0D2"/>
<path d="M281.847 118.587L141.212 37.2573L141.491 36.3077L283 118.149L281.847 118.587Z" fill="#A2D0D2"/>
<path d="M141.519 200L141.249 199.004L281.885 117.674L283 118.149L141.519 200Z" fill="#A2D0D2"/>
<path d="M264.275 107.494L123.673 188.867L124.152 189.698L264.754 108.324L264.275 107.494Z" fill="#A2D0D2"/>
<path d="M246.728 97.3175L106.126 178.707L106.605 179.537L247.207 98.1477L246.728 97.3175Z" fill="#A2D0D2"/>
<path d="M229.139 87.1735L88.5372 168.547L89.0162 169.377L229.618 88.0037L229.139 87.1735Z" fill="#A2D0D2"/>
<path d="M194.019 66.8283L53.4171 148.218L53.8962 149.048L194.498 67.6585L194.019 66.8283Z" fill="#A2D0D2"/>
<path d="M211.868 77.1776L71.2657 158.567L71.7448 159.398L212.347 78.0078L211.868 77.1776Z" fill="#A2D0D2"/>
<path d="M176.448 56.6827L35.8462 138.072L36.3253 138.903L176.927 57.5129L176.448 56.6827Z" fill="#A2D0D2"/>
<path d="M158.884 46.5434L18.2817 127.933L18.7608 128.763L159.363 47.3736L158.884 46.5434Z" fill="#A2D0D2"/>
<path d="M1.1712 118.559L0 118.121L141.491 36.3077L141.816 37.2294L1.1712 118.559Z" fill="#A2D0D2"/>
</g>
<path d="M89.2174 120.801V33.1971L195.252 31.1074V117.843C195.627 119.017 195.134 120.191 193.704 121.036L145.599 149.541C143.114 151.02 138.73 150.879 135.823 149.235L91.6086 124.3C89.8738 123.29 89.0767 121.999 89.2174 120.801Z" fill="#111112"/>
<path d="M141.238 151.419C139.222 151.419 137.089 150.926 135.401 149.963L91.1866 125.028C89.2174 123.901 88.1859 122.351 88.35 120.754V32.3286L196.119 30.1919V117.678C196.565 119.252 195.838 120.754 194.15 121.764L146.044 150.269C144.731 151.043 143.02 151.419 141.238 151.419ZM90.0848 34.0426V120.895C89.991 121.764 90.7178 122.75 92.0541 123.501L136.268 148.437C138.894 149.916 142.973 150.057 145.177 148.742L193.282 120.238C193.869 119.886 194.783 119.158 194.431 118.054L194.384 117.796V31.9529L90.0848 34.0426Z" fill="#111112"/>
<path d="M89.1932 33.1972L142.269 32.1406V150.48C140.089 150.691 137.651 150.245 135.798 149.212L91.5844 124.276C89.8495 123.29 89.0291 121.999 89.1932 120.801V33.1972Z" fill="#41A3A9"/>
<path d="M141.214 151.419C139.127 151.419 137.017 150.903 135.376 149.987L91.1623 125.051C89.1696 123.924 88.138 122.351 88.3256 120.731V32.3757L143.16 31.2956V151.325L142.363 151.396C141.987 151.396 141.589 151.419 141.214 151.419ZM90.0604 34.0427V120.801C89.9432 121.788 90.6934 122.75 92.0297 123.502L136.244 148.437C137.674 149.236 139.502 149.635 141.425 149.635V33.0096L90.0604 34.0427Z" fill="#111112"/>
<path d="M145.599 61.3262L193.705 32.8214C196.19 31.3422 195.861 28.8298 192.955 27.1862L148.74 2.227C145.833 0.5834 141.449 0.442508 138.964 1.92175L90.8587 30.4265C88.3737 31.9057 88.702 34.4416 91.6089 36.0617L135.823 60.9974C138.73 62.6645 143.114 62.7819 145.599 61.3262Z" fill="#A2D0D2"/>
<path d="M148.833 7.65094C145.926 6.00734 141.542 5.86647 139.057 7.34571L91.233 35.6861C91.4675 35.8504 91.7019 36.0383 91.9832 36.1792L136.197 61.1384C139.104 62.782 143.488 62.9229 145.973 61.4436L193.798 33.1033C193.563 32.9389 193.329 32.7511 193.048 32.6102L148.833 7.65094Z" fill="#A2D0D2"/>
<path d="M141.238 63.2283C139.222 63.2283 137.088 62.7352 135.401 61.7725L91.1863 36.8133C89.3812 35.8036 88.3262 34.3713 88.3262 32.8921C88.3028 31.6242 89.053 30.4737 90.4127 29.6519L138.518 1.14711C141.285 -0.496489 145.973 -0.355597 149.162 1.45236L193.376 26.3881C195.181 27.3978 196.236 28.8301 196.236 30.3093C196.236 31.5772 195.509 32.7277 194.15 33.5495L146.044 62.0543C144.731 62.8291 143.02 63.2283 141.238 63.2283ZM143.301 1.78108C141.824 1.78108 140.417 2.08632 139.386 2.67332L91.2801 31.178C90.7175 31.5068 90.0376 32.0938 90.0376 32.8921C90.0376 33.7139 90.7878 34.6296 92.0303 35.3105L136.244 60.2698C138.87 61.749 142.949 61.8899 145.153 60.575L193.259 32.0703C193.821 31.7416 194.501 31.1546 194.501 30.3563C194.501 29.5345 193.751 28.6187 192.508 27.9378L148.294 3.00204C146.888 2.18023 145.059 1.78108 143.301 1.78108Z" fill="#111112"/>
<path d="M153.968 112.936C153.921 110.963 155.116 108.639 156.617 107.747L192.415 86.5675C193.095 86.1684 193.704 86.1449 194.197 86.4032C194.267 86.4502 194.337 86.4736 194.407 86.5206L203.316 91.8271L164.283 120.59L155.281 115.213C155.07 115.166 154.905 115.049 154.718 114.884C154.272 114.509 153.991 113.851 153.968 112.936Z" fill="#A2D0D2"/>
<path d="M164.306 121.647L154.881 116.011C154.6 115.917 154.342 115.753 154.108 115.542C153.662 115.143 153.123 114.368 153.1 112.982C153.053 110.681 154.389 108.075 156.171 107.019L191.969 85.8396C192.883 85.2996 193.821 85.2291 194.594 85.6517C194.735 85.7222 194.829 85.7692 194.923 85.8631L204.863 91.78L164.306 121.647ZM154.835 112.936C154.858 113.523 154.999 114.016 155.28 114.25C155.374 114.321 155.444 114.368 155.491 114.391L155.702 114.485L164.212 119.58L201.745 91.9444L193.985 87.3188C193.516 87.0606 193.141 87.2015 192.86 87.3658L157.062 108.545C155.819 109.226 154.788 111.245 154.835 112.936Z" fill="#111112"/>
<path d="M165.876 120.355L201.674 99.1761C203.175 98.2838 204.37 95.9593 204.323 93.987C204.276 92.0146 203.034 91.1224 201.51 92.0147L165.712 113.194C164.212 114.086 163.016 116.41 163.063 118.383C163.11 120.355 164.376 121.247 165.876 120.355Z" fill="#41A3A9"/>
<path d="M164.75 121.576C164.352 121.576 163.977 121.482 163.625 121.294C162.758 120.801 162.218 119.745 162.195 118.406C162.148 116.105 163.484 113.499 165.266 112.442L201.064 91.2634C202.002 90.6999 202.963 90.6529 203.76 91.0756C204.627 91.5687 205.167 92.6253 205.19 93.9636C205.237 96.2647 203.901 98.8944 202.119 99.9275L166.321 121.107C165.782 121.412 165.243 121.576 164.75 121.576ZM202.635 92.5313C202.377 92.5313 202.119 92.6722 201.955 92.7661L166.157 113.945C164.914 114.673 163.906 116.692 163.953 118.359C163.977 119.04 164.164 119.58 164.493 119.768C164.821 119.932 165.219 119.745 165.454 119.604L201.252 98.4248C202.494 97.6969 203.502 95.6542 203.479 93.9871C203.455 93.3062 203.268 92.7661 202.94 92.5783C202.822 92.5548 202.729 92.5313 202.635 92.5313Z" fill="#111112"/>
<path d="M153.849 97.1804C153.803 95.2081 154.998 92.8836 156.499 91.9914L192.297 70.8124C192.976 70.4132 193.586 70.3897 194.078 70.648C194.149 70.695 194.219 70.7184 194.289 70.7654L203.198 76.0719L164.165 104.835L155.162 99.458C154.951 99.411 154.764 99.2936 154.6 99.1293C154.154 98.7536 153.873 98.0961 153.849 97.1804Z" fill="#A2D0D2"/>
<path d="M164.188 105.868L154.764 100.233C154.483 100.139 154.248 99.9747 153.99 99.7634C153.545 99.3642 153.006 98.5893 152.959 97.1805C152.912 94.8795 154.248 92.2732 156.03 91.2166L191.828 70.0376C192.742 69.4976 193.68 69.4272 194.454 69.8498C194.571 69.9202 194.688 69.9907 194.805 70.0611L204.745 75.9781L164.188 105.868ZM154.717 97.1571C154.741 97.7441 154.881 98.2371 155.163 98.4719C155.256 98.5424 155.327 98.5893 155.374 98.6128L155.585 98.7068L164.095 103.802L201.627 76.1659L193.844 71.5404C193.375 71.2821 193 71.423 192.742 71.5873L156.944 92.7663C155.702 93.4707 154.694 95.49 154.717 97.1571Z" fill="#111112"/>
<path d="M165.759 104.577L201.557 83.3977C203.057 82.5055 204.253 80.181 204.206 78.2086C204.159 76.2363 202.917 75.3441 201.393 76.2363L165.595 97.4153C164.095 98.3076 162.899 100.632 162.946 102.604C163.016 104.6 164.259 105.469 165.759 104.577Z" fill="#41A3A9"/>
<path d="M164.633 105.798C164.235 105.798 163.86 105.704 163.508 105.516C162.64 105.023 162.101 103.966 162.078 102.628C162.031 100.327 163.367 97.7207 165.149 96.6641L200.947 75.4851C201.885 74.9216 202.846 74.8746 203.643 75.2973C204.51 75.7903 205.049 76.8469 205.073 78.1853C205.12 80.4863 203.784 83.0926 202.002 84.1492L166.204 105.328C165.688 105.657 165.149 105.798 164.633 105.798ZM202.518 76.753C202.26 76.753 202.002 76.8939 201.838 76.9878L166.04 98.1668C164.797 98.8947 163.789 100.937 163.813 102.604C163.836 103.285 164.024 103.825 164.352 104.013C164.657 104.201 165.079 103.99 165.313 103.849L201.111 82.67C202.353 81.9421 203.362 79.8993 203.338 78.2323C203.315 77.5513 203.127 77.0113 202.799 76.8235C202.705 76.7765 202.611 76.753 202.518 76.753Z" fill="#111112"/>
<path d="M153.849 81.4254C153.803 79.453 154.998 77.1285 156.499 76.2363L192.297 55.0573C192.976 54.6581 193.586 54.6347 194.078 54.8929C194.149 54.9399 194.219 54.9634 194.289 55.0104L203.198 60.3168L164.165 89.0798L155.162 83.7029C154.951 83.6559 154.764 83.5385 154.6 83.3742C154.154 82.975 153.873 82.3176 153.849 81.4254Z" fill="#A2D0D2"/>
<path d="M164.188 90.113L154.764 84.4778C154.506 84.3839 154.248 84.2195 153.99 84.0082C153.545 83.609 153.006 82.8342 152.959 81.4254C152.912 79.1244 154.248 76.5181 156.03 75.4615L191.828 54.2825C192.742 53.7425 193.68 53.6721 194.454 54.0947C194.571 54.1651 194.688 54.2356 194.805 54.306L204.745 60.2229L164.188 90.113ZM154.717 81.4019C154.741 81.9889 154.881 82.482 155.163 82.7168C155.233 82.7872 155.327 82.8342 155.374 82.8577L155.585 82.9516L164.095 88.0468L201.627 60.4108L193.844 55.7852C193.375 55.5269 193 55.6678 192.742 55.8322L156.944 77.0112C155.702 77.7156 154.694 79.7348 154.717 81.4019Z" fill="#111112"/>
<path d="M165.759 88.8215L201.557 67.6425C203.057 66.7503 204.253 64.4258 204.206 62.4535C204.159 60.4812 202.917 59.5889 201.393 60.4811L165.595 81.6601C164.095 82.5524 162.899 84.8769 162.946 86.8492C163.016 88.8215 164.259 89.7138 165.759 88.8215Z" fill="#41A3A9"/>
<path d="M164.633 90.0424C164.235 90.0424 163.86 89.9485 163.508 89.7606C162.64 89.2675 162.101 88.2109 162.078 86.8726C162.031 84.5715 163.367 81.9653 165.149 80.9087L200.947 59.7297C201.885 59.1662 202.846 59.0957 203.643 59.5419C204.51 60.0349 205.049 61.0915 205.073 62.4299C205.12 64.7309 203.784 67.3372 202.002 68.3938L166.204 89.5728C165.688 89.878 165.149 90.0424 164.633 90.0424ZM202.518 60.9976C202.26 60.9976 202.002 61.115 201.838 61.2324L166.04 82.4114C164.797 83.1393 163.789 85.182 163.813 86.8491C163.836 87.53 164.024 88.0701 164.352 88.2579C164.657 88.4223 165.079 88.2344 165.313 88.0936L201.111 66.9146C202.353 66.1867 203.362 64.1439 203.338 62.4769C203.315 61.7959 203.127 61.2559 202.799 61.068C202.705 61.0211 202.611 60.9976 202.518 60.9976Z" fill="#111112"/>
<path d="M144.074 49.3047L173.542 31.8591C175.066 30.9434 174.855 29.4172 173.074 28.4075L145.996 13.1221C144.215 12.1124 141.519 12.042 139.995 12.9342L110.527 30.3799C109.003 31.2721 109.214 32.8218 110.996 33.8314L138.073 49.1169C139.854 50.1265 142.55 50.197 144.074 49.3047Z" fill="#41A3A9"/>
<path d="M141.378 50.7839C140.089 50.7839 138.729 50.4786 137.627 49.8681L110.55 34.5826C109.331 33.9017 108.628 32.9156 108.628 31.8824C108.628 30.9667 109.144 30.1684 110.081 29.6049L139.55 12.1592C141.331 11.1026 144.356 11.1731 146.419 12.3471L173.496 27.6326C174.715 28.3135 175.418 29.2996 175.418 30.3328C175.418 31.2485 174.902 32.0468 173.965 32.6103L144.496 50.056C143.652 50.5491 142.55 50.7839 141.378 50.7839ZM142.668 13.1454C141.824 13.1454 141.027 13.3098 140.441 13.662L110.972 31.1076C110.761 31.2485 110.363 31.5068 110.386 31.859C110.386 32.1642 110.668 32.6103 111.441 33.0564L138.518 48.3419C140.019 49.1872 142.363 49.2811 143.629 48.5298L173.097 31.0841C173.308 30.9432 173.707 30.685 173.683 30.3328C173.683 30.0275 173.402 29.5814 172.628 29.1353L145.551 13.8498C144.731 13.3802 143.676 13.1454 142.668 13.1454Z" fill="#111112"/>
<path d="M173.541 31.8828L168.618 34.7943L145.995 22.0212C144.214 21.0115 141.518 20.9411 139.994 21.8333L115.425 36.3675L110.971 33.8551C109.189 32.8455 108.978 31.2958 110.502 30.4036L139.971 12.9579C141.494 12.0657 144.19 12.1361 145.972 13.1457L173.049 28.4312C174.854 29.4409 175.065 30.9905 173.541 31.8828Z" fill="#111112"/>
<path d="M115.449 37.4005L110.573 34.6534C109.354 33.9724 108.651 32.9863 108.651 31.9532C108.651 31.0374 109.166 30.2391 110.104 29.6756L139.572 12.2299C141.354 11.1733 144.378 11.2438 146.441 12.3943L173.518 27.6798C174.737 28.3607 175.441 29.3469 175.441 30.38C175.441 31.2957 174.925 32.094 173.987 32.6576L168.642 35.8274L145.574 22.796C144.05 21.9507 141.706 21.8568 140.463 22.6081L115.449 37.4005ZM142.667 13.2161C141.823 13.2161 141.026 13.3805 140.44 13.7327L110.972 31.1783C110.761 31.3192 110.362 31.5775 110.385 31.9297C110.385 32.2349 110.667 32.681 111.44 33.1272L115.449 35.3812L139.572 21.0819C141.354 20.0253 144.378 20.0957 146.441 21.2697L168.642 33.7846L173.12 31.1314C173.331 30.9905 173.729 30.7322 173.706 30.38C173.706 30.0748 173.425 29.6286 172.651 29.1825L145.574 13.897C144.73 13.4509 143.675 13.2161 142.667 13.2161Z" fill="#111112"/>
<path d="M145.998 21.9035C145.224 21.4808 144.286 21.246 143.349 21.1521V12.2767C144.286 12.3706 145.224 12.5819 145.998 13.028L173.075 28.3135C174.857 29.3231 175.068 30.8728 173.544 31.7651L168.621 34.6766L145.998 21.9035Z" fill="#A2D0D2"/>
<path d="M168.644 35.6862L145.575 22.6548C144.989 22.326 144.192 22.0912 143.278 22.0208L142.481 21.9503V11.3139L143.419 11.4078C144.591 11.5252 145.599 11.807 146.396 12.2531L173.473 27.5386C174.692 28.2195 175.395 29.2057 175.395 30.2388C175.395 31.1545 174.88 31.9528 173.942 32.5163L168.644 35.6862ZM144.216 20.4007C145.06 20.5416 145.786 20.7998 146.419 21.152L168.62 33.6903L173.098 31.0371C173.309 30.8962 173.707 30.638 173.684 30.2858C173.684 29.9805 173.403 29.5109 172.629 29.0883L145.552 13.8028C145.177 13.5915 144.731 13.4271 144.216 13.3097V20.4007Z" fill="#111112"/>
<path d="M96.7893 62.1952L130.337 81.5897V76.3771L96.7893 56.9827V62.1952Z" fill="#41A3A9"/>
<path d="M131.204 83.0922L95.9215 62.6881V55.4562L131.204 75.8604V83.0922ZM97.6563 61.7019L129.469 80.0868V76.87L97.6563 58.4852V61.7019Z" fill="#111112"/>
<path d="M96.7893 72.2208L107.081 78.1847V72.9487L96.7893 67.0082V72.2208Z" fill="#41A3A9"/>
<path d="M107.948 79.6874L95.9215 72.7373V65.5055L107.948 72.4556V79.6874ZM97.6563 71.7277L106.213 76.682V73.4653L97.6563 68.511V71.7277Z" fill="#111112"/>
<path d="M110.997 80.439L130.338 91.639V86.403L110.997 75.2265V80.439Z" fill="#41A3A9"/>
<path d="M131.205 93.1417L110.129 80.9556V73.7238L131.205 85.9099V93.1417ZM111.864 79.946L129.47 90.1363V86.9195L111.864 76.7292V79.946Z" fill="#111112"/>
<path d="M96.7875 81.895L120.676 95.7247V90.5122L96.7875 76.6589V81.895Z" fill="#41A3A9"/>
<path d="M121.544 97.2274L95.9442 82.388V75.1561L121.544 89.9955V97.2274ZM97.6556 81.3784L119.786 94.1984V90.9817L97.6556 78.1616V81.3784Z" fill="#111112"/>
<path d="M124.57 97.9784L130.337 101.289V96.053L124.57 92.7658V97.9784Z" fill="#41A3A9"/>
<path d="M131.204 102.792L123.703 98.4949V91.2631L131.204 95.5599V102.792ZM125.461 97.4853L129.493 99.7863V96.5696L125.461 94.2685V97.4853Z" fill="#111112"/>
<path d="M96.7893 91.9675L130.337 111.362V106.149L96.7893 86.7549V91.9675Z" fill="#41A3A9"/>
<path d="M131.204 112.888L95.9215 92.484V85.2522L131.204 105.656V112.888ZM97.6563 91.4744L129.469 109.859V106.642L97.6563 88.2576V91.4744Z" fill="#111112"/>
<path d="M96.7893 102.041L107.081 108.004V102.768L96.7893 96.8279V102.041Z" fill="#41A3A9"/>
<path d="M107.948 109.507L95.9215 102.557V95.3252L107.948 102.275V109.507ZM97.6563 101.547L106.213 106.502V103.285L97.6563 98.3306V101.547Z" fill="#111112"/>
<path d="M110.997 110.259L130.338 121.435V116.223L110.997 105.046V110.259Z" fill="#41A3A9"/>
<path d="M131.205 122.961L110.129 110.775V103.543L131.205 115.729V122.961ZM111.864 109.742L129.47 119.932V116.716L111.864 106.525V109.742Z" fill="#111112"/>
</svg>
