<svg width="22" height="22" viewBox="0 0 22 22" fill="none" xmlns="http://www.w3.org/2000/svg">
<path fill-rule="evenodd" clip-rule="evenodd" d="M9.496 5.83813C10.1287 5.20545 10.9868 4.85001 11.8816 4.85001H13.5394C13.8766 4.85001 14.15 5.12335 14.15 5.46053V7.67106C14.15 8.00824 13.8766 8.28158 13.5394 8.28158H11.9394V9.27106H13.5394C13.7274 9.27106 13.905 9.35767 14.0207 9.50586C14.1364 9.65404 14.1773 9.84727 14.1317 10.0297L13.5791 12.2402C13.5112 12.512 13.267 12.7026 12.9868 12.7026H11.9394V16.5132C11.9394 16.8503 11.6661 17.1237 11.3289 17.1237H9.1184C8.78121 17.1237 8.50787 16.8503 8.50787 16.5132V12.7026H7.4605C7.12332 12.7026 6.84998 12.4293 6.84998 12.0921V9.88158C6.84998 9.5444 7.12332 9.27106 7.4605 9.27106H8.50787V8.22369C8.50787 7.32893 8.86331 6.47082 9.496 5.83813ZM11.8816 6.07106C11.3106 6.07106 10.7631 6.29785 10.3594 6.70155C9.95572 7.10525 9.72892 7.65278 9.72892 8.22369V9.88158C9.72892 10.2188 9.45558 10.4921 9.1184 10.4921H8.07103V11.4816H9.1184C9.45558 11.4816 9.72892 11.7549 9.72892 12.0921V15.9026H10.7184V12.0921C10.7184 11.7549 10.9917 11.4816 11.3289 11.4816H12.5101L12.7575 10.4921H11.3289C10.9917 10.4921 10.7184 10.2188 10.7184 9.88158V8.22369C10.7184 7.9152 10.8409 7.61935 11.0591 7.40121C11.2772 7.18308 11.5731 7.06053 11.8816 7.06053H12.9289V6.07106H11.8816Z" fill="#A2D0D2"/>
<path fill-rule="evenodd" clip-rule="evenodd" d="M0 11C0 17.0679 4.93209 22 11 22C17.0679 22 22 17.0679 22 11C22 4.93209 17.0679 0 11 0C4.93209 0 0 4.93209 0 11ZM1.53488 11C1.53488 5.7814 5.7814 1.53488 11 1.53488C16.2186 1.53488 20.4651 5.7814 20.4651 11C20.4651 16.2186 16.2186 20.4651 11 20.4651C5.7814 20.4651 1.53488 16.2186 1.53488 11Z" fill="#A2D0D2"/>
</svg>
