<svg viewBox="0 0 40 40" fill="none" xmlns="http://www.w3.org/2000/svg">
    <path
        d="M9.9629 1.57895L9.22424 7.57895H3.25648C2.38913 7.57895 1.59898 8.28587 1.49163 9.1579L1.01215 13.0526C0.904793 13.9247 1.52088 14.6316 2.38823 14.6316H26.0499L25.5963 18.3158C25.489 19.1878 26.1051 19.8947 26.9724 19.8947H30.8462C31.7136 19.8947 32.5037 19.1878 32.6111 18.3158L33.7385 9.1579C33.8458 8.28587 33.2298 7.57895 32.3624 7.57895H16.239L16.9776 1.57895C17.085 0.706919 16.4689 0 15.6016 0H11.7277C10.8604 0 10.0703 0.706919 9.9629 1.57895Z"
        fill="#41A3A9" />
    <path
        d="M30.136 38.4211L30.8746 32.4211H36.8424C37.7097 32.4211 38.4999 31.7141 38.6072 30.8421L39.0867 26.9474C39.1941 26.0753 38.578 25.3684 37.7106 25.3684L14.049 25.3684L14.5025 21.6842C14.6099 20.8122 13.9938 20.1053 13.1264 20.1053H9.25264C8.38529 20.1053 7.59514 20.8122 7.48779 21.6842L6.36036 30.8421C6.25301 31.7141 6.8691 32.421 7.73644 32.421L23.8599 32.4211L23.1212 38.4211C23.0139 39.2931 23.63 40 24.4973 40H28.3711C29.2385 40 30.0286 39.2931 30.136 38.4211Z"
        fill="#41A3A9" />
</svg>