<svg width="24" height="21" viewBox="0 0 24 21" fill="none" xmlns="http://www.w3.org/2000/svg">
<path d="M16.7348 11.75C16.7348 12.5493 16.0868 13.1973 15.2874 13.1973C14.488 13.1973 13.84 12.5493 13.84 11.75C13.84 10.9506 14.488 10.3026 15.2874 10.3026C16.0868 10.3026 16.7348 10.9506 16.7348 11.75Z" fill="#A2D0D2"/>
<path d="M8.20738 13.1973C9.00674 13.1973 9.65475 12.5493 9.65475 11.75C9.65475 10.9506 9.00674 10.3026 8.20738 10.3026C7.40802 10.3026 6.76001 10.9506 6.76001 11.75C6.76001 12.5493 7.40802 13.1973 8.20738 13.1973Z" fill="#A2D0D2"/>
<path d="M8.60013 14.8788C8.24979 14.6578 7.78664 14.7627 7.56565 15.113C7.34466 15.4634 7.44951 15.9265 7.79985 16.1475L8.14477 16.3651C10.345 17.753 13.1471 17.753 15.3473 16.3651L15.6922 16.1475C16.0426 15.9265 16.1474 15.4634 15.9264 15.113C15.7054 14.7627 15.2423 14.6578 14.892 14.8788L14.547 15.0964C12.8357 16.1759 10.6564 16.1759 8.94505 15.0964L8.60013 14.8788Z" fill="#A2D0D2"/>
<path fill-rule="evenodd" clip-rule="evenodd" d="M19.7105 0C18.8366 0 18.0745 0.47861 17.672 1.18801L14.0717 0.449486C13.7221 0.377768 13.3704 0.562363 13.2308 0.890832C12.82 1.85742 12.2035 3.32237 11.6893 4.57585C11.5073 5.01955 11.3373 5.43862 11.1935 5.80064C9.14709 5.88308 7.25064 6.41774 5.69951 7.28545C5.16473 6.39005 4.18607 5.78946 3.06579 5.78946C1.3726 5.78946 0 7.16206 0 8.85525C0 10.1506 0.802803 11.257 1.93741 11.7065C1.80646 12.1851 1.73682 12.6834 1.73682 13.1974C1.73682 15.3389 2.94585 17.2087 4.76221 18.5142C6.57975 19.8206 9.0527 20.6052 11.75 20.6052C14.4473 20.6052 16.9202 19.8206 18.7377 18.5142C20.5541 17.2087 21.7631 15.3389 21.7631 13.1974C21.7631 12.6834 21.6935 12.1851 21.5625 11.7065C22.6968 11.2572 23.5 10.1509 23.5 8.85525C23.5 7.16206 22.1274 5.78946 20.4342 5.78946C19.3139 5.78946 18.3352 6.39005 17.8005 7.28546C16.3743 6.48768 14.6563 5.97142 12.7982 5.82932C12.8858 5.61278 12.9795 5.38313 13.0771 5.14516C13.496 4.12394 13.9841 2.9595 14.3719 2.04229L17.39 2.66138C17.5457 3.80385 18.5253 4.68421 19.7105 4.68421C21.004 4.68421 22.0526 3.63561 22.0526 2.3421C22.0526 1.0486 21.004 0 19.7105 0ZM18.8684 2.3421C18.8684 1.87702 19.2454 1.5 19.7105 1.5C20.1756 1.5 20.5526 1.87702 20.5526 2.3421C20.5526 2.80719 20.1756 3.18421 19.7105 3.18421C19.2454 3.18421 18.8684 2.80719 18.8684 2.3421ZM11.75 7.28946C11.9043 7.28946 12.0575 7.29233 12.2096 7.298C12.2082 7.32685 12.2053 7.3482 12.2038 7.35845C12.2013 7.37529 12.1988 7.38703 12.1978 7.3915L12.1965 7.39739L12.1991 7.38787C12.2046 7.36926 12.2139 7.34007 12.228 7.29869C14.4524 7.38488 16.4291 8.06841 17.8623 9.09852C19.3985 10.2027 20.2631 11.6618 20.2631 13.1974C20.2631 14.7329 19.3985 16.192 17.8623 17.2962C16.3272 18.3995 14.1686 19.1052 11.75 19.1052C9.33135 19.1052 7.17272 18.3995 5.63766 17.2962C4.10141 16.192 3.23682 14.7329 3.23682 13.1974C3.23682 11.6618 4.10141 10.2027 5.63766 9.09852C7.17272 7.9952 9.33135 7.28946 11.75 7.28946ZM1.5 8.85525C1.5 7.99049 2.20103 7.28946 3.06579 7.28946C3.66282 7.28946 4.18322 7.62393 4.44734 8.11728C3.64802 8.74615 2.98394 9.49013 2.51317 10.321C1.92089 10.0976 1.5 9.52484 1.5 8.85525ZM20.9868 10.321C20.516 9.49014 19.8519 8.74617 19.0526 8.1173C19.3168 7.62394 19.8372 7.28946 20.4342 7.28946C21.299 7.28946 22 7.99049 22 8.85525C22 9.5246 21.5795 10.0975 20.9868 10.321Z" fill="#A2D0D2"/>
</svg>
