<svg width="21" height="18" viewBox="0 0 21 18" fill="none" xmlns="http://www.w3.org/2000/svg">
<path fill-rule="evenodd" clip-rule="evenodd" d="M4.38055 10.7696C4.42433 10.7844 4.46851 10.7948 4.51265 10.8012C4.56078 10.9144 4.62298 11.0607 4.69554 11.2318C4.87261 11.6494 5.1112 12.2143 5.35748 12.8035C5.85972 14.0052 6.36634 15.2439 6.47822 15.5985C6.61673 16.0368 6.76314 16.3348 6.92298 16.5383C7.00562 16.6435 7.1012 16.7353 7.21305 16.8049C7.26935 16.8399 7.32882 16.8686 7.3909 16.89C7.39363 16.891 7.39637 16.8919 7.3991 16.8928C7.71911 17.0136 8.01087 16.9633 8.19354 16.9018C8.29129 16.8688 8.37037 16.8291 8.42642 16.7969C8.45499 16.7804 8.47914 16.7651 8.4984 16.7521L8.50294 16.7491L11.3292 14.9866L14.5937 17.4894C14.6419 17.5263 14.6944 17.5573 14.75 17.5816C15.1422 17.7527 15.522 17.8124 15.8793 17.7636C16.2359 17.7149 16.5191 17.5651 16.7298 17.3964C16.9363 17.2313 17.0762 17.0463 17.1633 16.9089C17.2078 16.8387 17.2412 16.7766 17.2648 16.7291C17.2766 16.7052 17.2862 16.6846 17.2935 16.6681L17.3029 16.6463L17.3065 16.6377L17.308 16.6341L17.3087 16.6324L17.3093 16.6308C17.3264 16.5879 17.3396 16.5435 17.3486 16.4982L20.3288 1.47274C20.3383 1.42469 20.3431 1.37581 20.3431 1.32682C20.3431 0.886811 20.1773 0.468409 19.7875 0.214515C19.4543 -0.00248222 19.0832 -0.0118227 18.8486 0.00598236C18.5955 0.0251888 18.3618 0.0876563 18.205 0.137572C18.1234 0.16355 18.055 0.188614 18.0056 0.207735C17.9808 0.217345 17.9605 0.22559 17.9454 0.231878L17.934 0.236665L1.22027 6.79321L1.21811 6.79399C1.20745 6.79786 1.19378 6.80297 1.17753 6.80929C1.14516 6.82189 1.1018 6.83965 1.05115 6.8626C0.952365 6.90738 0.813784 6.97734 0.671577 7.07473C0.444389 7.23031 -0.0781018 7.65641 0.00987929 8.35971C0.0800681 8.92078 0.464449 9.26537 0.698638 9.43107C0.82723 9.52206 0.949395 9.58713 1.03837 9.62949C1.07964 9.64913 1.16534 9.68395 1.20252 9.69905L1.2119 9.70287L4.38055 10.7696ZM18.5189 1.61786L18.5166 1.61888C18.5083 1.6225 18.4999 1.62596 18.4914 1.62928L1.75742 8.19378C1.74868 8.19721 1.73988 8.20047 1.73102 8.20357L1.7217 8.2071C1.711 8.21127 1.69298 8.21858 1.67035 8.22884C1.65753 8.23465 1.64414 8.24099 1.63049 8.2478C1.64924 8.25836 1.66719 8.26754 1.68314 8.27513C1.69845 8.28242 1.71012 8.2874 1.71652 8.29003L4.85915 9.34802C4.91667 9.36738 4.97029 9.39304 5.01951 9.42397L15.3963 3.34948L15.406 3.34374C15.4136 3.33927 15.4235 3.33353 15.4354 3.3268C15.459 3.31345 15.4914 3.29568 15.53 3.27603C15.6021 3.23938 15.7173 3.18497 15.8471 3.14485C15.9375 3.11692 16.2039 3.03823 16.492 3.13064C16.6698 3.18767 16.8539 3.31028 16.9737 3.51798C17.0332 3.62117 17.0649 3.72483 17.0802 3.81972C17.121 3.9692 17.1145 4.11681 17.0826 4.24424C17.0139 4.51875 16.821 4.73287 16.6455 4.89665C16.4952 5.03706 14.5498 6.91292 12.6306 8.76468C11.6736 9.68813 10.7263 10.6025 10.0182 11.2859L9.55318 11.7349L15.4251 16.2367C15.5598 16.2849 15.6394 16.2825 15.6762 16.2774C15.7201 16.2714 15.756 16.2545 15.7927 16.2252C15.8337 16.1924 15.8696 16.148 15.8965 16.1057L15.8976 16.104L18.788 1.53102C18.7451 1.54133 18.7018 1.55361 18.66 1.56691C18.6126 1.58198 18.5736 1.59634 18.5477 1.60637C18.5349 1.61134 18.5256 1.61511 18.5206 1.61719L18.5189 1.61786ZM10.0576 14.0118L8.88616 13.1136L8.6023 14.9193L10.0576 14.0118ZM7.81148 11.3314L8.97645 10.2067C9.68454 9.52321 10.6319 8.60879 11.5891 7.68524L12.5616 6.747L6.04154 10.5638L6.07653 10.6463C6.25423 11.0654 6.49388 11.6327 6.74147 12.2251C6.92659 12.668 7.12018 13.1344 7.29651 13.5662L7.57954 11.7658C7.60683 11.5922 7.69163 11.442 7.81148 11.3314Z" fill="#A2D0D2"/>
</svg>
