<svg width="22" height="22" viewBox="0 0 22 22" fill="none" xmlns="http://www.w3.org/2000/svg">
<path fill-rule="evenodd" clip-rule="evenodd" d="M7.96347 6.67192C8.17825 6.549 8.4422 6.5512 8.65451 6.67528L15.4405 10.6499L15.3397 10.8227C15.49 10.9103 15.5821 11.072 15.5821 11.2458C15.5821 11.4197 15.4895 11.5809 15.3397 11.6685L15.2592 11.7157L15.4407 11.8412L8.65466 15.8148C8.54748 15.8773 8.42716 15.9093 8.30625 15.9093C8.18795 15.9093 8.06939 15.8791 7.96311 15.8183C7.74904 15.6954 7.61646 15.4664 7.61646 15.2195V7.27064C7.61646 7.02313 7.74886 6.79476 7.96347 6.67192ZM7.96347 6.67192L8.1554 6.8046C8.16499 6.80151 8.17466 6.79872 8.18439 6.79623L7.96347 6.67192ZM8.99605 8.47379L13.7273 11.2453L8.99605 14.016V8.47379Z" fill="#A2D0D2"/>
<path fill-rule="evenodd" clip-rule="evenodd" d="M8 21.75H14C19.43 21.75 21.75 19.43 21.75 14V8C21.75 2.57 19.43 0.25 14 0.25H8C2.57 0.25 0.25 2.57 0.25 8V14C0.25 19.43 2.57 21.75 8 21.75ZM1.75 8C1.75 3.39 3.39 1.75 8 1.75H14C18.61 1.75 20.25 3.39 20.25 8V14C20.25 18.61 18.61 20.25 14 20.25H8C3.39 20.25 1.75 18.61 1.75 14V8Z" fill="#A2D0D2"/>
</svg>
